%TF.GenerationSoftware,KiCad,Pcbnew,10.0.3*%
%TF.CreationDate,2026-06-25T13:49:25+09:00*%
%TF.ProjectId,elephant_robot_posision_sensor,656c6570-6861-46e7-945f-726f626f745f,rev?*%
%TF.SameCoordinates,Original*%
%TF.FileFunction,Legend,Bot*%
%TF.FilePolarity,Positive*%
%FSLAX46Y46*%
G04 Gerber Fmt 4.6, Leading zero omitted, Abs format (unit mm)*
G04 Created by KiCad (PCBNEW 10.0.3) date 2026-06-25 13:49:25*
%MOMM*%
%LPD*%
G01*
G04 APERTURE LIST*
%ADD10C,0.120000*%
G04 APERTURE END LIST*
%TO.C,J2*%
D10*
X176890000Y-82785000D02*
X176890000Y-85285000D01*
X176890000Y-85285000D02*
X177940000Y-85285000D01*
X177940000Y-85285000D02*
X177940000Y-86275000D01*
X178060000Y-80815000D02*
X181940000Y-80815000D01*
X183110000Y-82785000D02*
X183110000Y-85285000D01*
X183110000Y-85285000D02*
X182060000Y-85285000D01*
%TO.C,R3*%
X186490000Y-98415580D02*
X186490000Y-98134420D01*
X187510000Y-98415580D02*
X187510000Y-98134420D01*
%TO.C,U2*%
X183440000Y-86940000D02*
X183440000Y-91060000D01*
X183440000Y-91060000D02*
X183535000Y-91060000D01*
X183535000Y-86940000D02*
X183440000Y-86940000D01*
X188465000Y-91060000D02*
X188560000Y-91060000D01*
X188560000Y-86940000D02*
X188465000Y-86940000D01*
X188560000Y-91060000D02*
X188560000Y-86940000D01*
X183530000Y-86400000D02*
X183200000Y-86160000D01*
X183200000Y-86640000D01*
X183530000Y-86400000D01*
G36*
X183530000Y-86400000D02*
G01*
X183200000Y-86640000D01*
X183200000Y-86160000D01*
X183530000Y-86400000D01*
G37*
%TO.C,R2*%
X184140580Y-92990000D02*
X183859420Y-92990000D01*
X184140580Y-94010000D02*
X183859420Y-94010000D01*
%TO.C,C5*%
X184490000Y-98390580D02*
X184490000Y-98109420D01*
X185510000Y-98390580D02*
X185510000Y-98109420D01*
%TO.C,J3*%
X176890000Y-94715000D02*
X177940000Y-94715000D01*
X176890000Y-97215000D02*
X176890000Y-94715000D01*
X181940000Y-99185000D02*
X178060000Y-99185000D01*
X182060000Y-94715000D02*
X182060000Y-93725000D01*
X183110000Y-94715000D02*
X182060000Y-94715000D01*
X183110000Y-97215000D02*
X183110000Y-94715000D01*
%TO.C,U3*%
X171440000Y-86940000D02*
X171440000Y-91060000D01*
X171440000Y-91060000D02*
X171535000Y-91060000D01*
X171535000Y-86940000D02*
X171440000Y-86940000D01*
X176465000Y-91060000D02*
X176560000Y-91060000D01*
X176560000Y-86940000D02*
X176465000Y-86940000D01*
X176560000Y-91060000D02*
X176560000Y-86940000D01*
X171530000Y-86400000D02*
X171200000Y-86160000D01*
X171200000Y-86640000D01*
X171530000Y-86400000D01*
G36*
X171530000Y-86400000D02*
G01*
X171200000Y-86640000D01*
X171200000Y-86160000D01*
X171530000Y-86400000D01*
G37*
%TO.C,C6*%
X175859420Y-92990000D02*
X176140580Y-92990000D01*
X175859420Y-94010000D02*
X176140580Y-94010000D01*
%TO.C,U1*%
X171440000Y-94340000D02*
X171440000Y-96160000D01*
X171440000Y-96160000D02*
X171490000Y-96160000D01*
X171490000Y-94340000D02*
X171440000Y-94340000D01*
X174510000Y-96160000D02*
X174560000Y-96160000D01*
X174560000Y-94340000D02*
X174510000Y-94340000D01*
X174560000Y-96160000D02*
X174560000Y-94340000D01*
X171490000Y-93800000D02*
X171160000Y-93560000D01*
X171160000Y-94040000D01*
X171490000Y-93800000D01*
G36*
X171490000Y-93800000D02*
G01*
X171160000Y-94040000D01*
X171160000Y-93560000D01*
X171490000Y-93800000D01*
G37*
%TO.C,56k1*%
X174727500Y-98487258D02*
X174727500Y-98012742D01*
X175772500Y-98487258D02*
X175772500Y-98012742D01*
%TD*%
M02*
