%TF.GenerationSoftware,KiCad,Pcbnew,10.0.3*%
%TF.CreationDate,2026-06-25T13:49:25+09:00*%
%TF.ProjectId,elephant_robot_posision_sensor,656c6570-6861-46e7-945f-726f626f745f,rev?*%
%TF.SameCoordinates,Original*%
%TF.FileFunction,Legend,Top*%
%TF.FilePolarity,Positive*%
%FSLAX46Y46*%
G04 Gerber Fmt 4.6, Leading zero omitted, Abs format (unit mm)*
G04 Created by KiCad (PCBNEW 10.0.3) date 2026-06-25 13:49:25*
%MOMM*%
%LPD*%
G01*
G04 APERTURE LIST*
%ADD10C,0.120000*%
%ADD11C,0.100000*%
G04 APERTURE END LIST*
%TO.C,R1*%
D10*
X185740000Y-86609420D02*
X185740000Y-86890580D01*
X186760000Y-86609420D02*
X186760000Y-86890580D01*
%TO.C,C3*%
X173140580Y-85740000D02*
X172859420Y-85740000D01*
X173140580Y-86760000D02*
X172859420Y-86760000D01*
%TO.C,C2*%
X172859420Y-94990000D02*
X173140580Y-94990000D01*
X172859420Y-96010000D02*
X173140580Y-96010000D01*
%TO.C,J1*%
X186255000Y-93015000D02*
X187000000Y-93015000D01*
X186255000Y-93750000D02*
X186255000Y-93015000D01*
X186255000Y-94485000D02*
X186255000Y-96360000D01*
X186255000Y-94485000D02*
X186314435Y-94485000D01*
X186255000Y-96360000D02*
X186589970Y-96360000D01*
X187410030Y-96360000D02*
X187745000Y-96360000D01*
X187685565Y-94485000D02*
X187745000Y-94485000D01*
X187745000Y-94485000D02*
X187745000Y-96360000D01*
%TO.C,C4*%
X187240000Y-86609420D02*
X187240000Y-86890580D01*
X188260000Y-86609420D02*
X188260000Y-86890580D01*
%TO.C,U4*%
D11*
X174500000Y-90000000D02*
X174500000Y-96500000D01*
X174500000Y-96500000D02*
X185500000Y-96500000D01*
X185500000Y-90000000D02*
X185500000Y-96500000D01*
X174500000Y-90000000D02*
G75*
G02*
X185500000Y-90000000I5500000J0D01*
G01*
%TO.C,C1*%
D10*
X172490000Y-88609420D02*
X172490000Y-88890580D01*
X173510000Y-88609420D02*
X173510000Y-88890580D01*
%TO.C,10k1*%
X173237258Y-97977500D02*
X172762742Y-97977500D01*
X173237258Y-99022500D02*
X172762742Y-99022500D01*
%TO.C,L1*%
X173162779Y-90740000D02*
X172837221Y-90740000D01*
X173162779Y-91760000D02*
X172837221Y-91760000D01*
%TD*%
M02*
