%TF.GenerationSoftware,KiCad,Pcbnew,10.0.3*%
%TF.CreationDate,2026-06-25T13:49:25+09:00*%
%TF.ProjectId,elephant_robot_posision_sensor,656c6570-6861-46e7-945f-726f626f745f,rev?*%
%TF.SameCoordinates,Original*%
%TF.FileFunction,Copper,L2,Bot*%
%TF.FilePolarity,Positive*%
%FSLAX46Y46*%
G04 Gerber Fmt 4.6, Leading zero omitted, Abs format (unit mm)*
G04 Created by KiCad (PCBNEW 10.0.3) date 2026-06-25 13:49:25*
%MOMM*%
%LPD*%
G01*
G04 APERTURE LIST*
G04 Aperture macros list*
%AMRoundRect*
0 Rectangle with rounded corners*
0 $1 Rounding radius*
0 $2 $3 $4 $5 $6 $7 $8 $9 X,Y pos of 4 corners*
0 Add a 4 corners polygon primitive as box body*
4,1,4,$2,$3,$4,$5,$6,$7,$8,$9,$2,$3,0*
0 Add four circle primitives for the rounded corners*
1,1,$1+$1,$2,$3*
1,1,$1+$1,$4,$5*
1,1,$1+$1,$6,$7*
1,1,$1+$1,$8,$9*
0 Add four rect primitives between the rounded corners*
20,1,$1+$1,$2,$3,$4,$5,0*
20,1,$1+$1,$4,$5,$6,$7,0*
20,1,$1+$1,$6,$7,$8,$9,0*
20,1,$1+$1,$8,$9,$2,$3,0*%
G04 Aperture macros list end*
%TA.AperFunction,ComponentPad*%
%ADD10R,0.850000X0.850000*%
%TD*%
%TA.AperFunction,ComponentPad*%
%ADD11C,0.850000*%
%TD*%
%TA.AperFunction,SMDPad,CuDef*%
%ADD12RoundRect,0.150000X-0.150000X-0.625000X0.150000X-0.625000X0.150000X0.625000X-0.150000X0.625000X0*%
%TD*%
%TA.AperFunction,SMDPad,CuDef*%
%ADD13RoundRect,0.250000X-0.350000X-0.650000X0.350000X-0.650000X0.350000X0.650000X-0.350000X0.650000X0*%
%TD*%
%TA.AperFunction,SMDPad,CuDef*%
%ADD14RoundRect,0.225000X0.250000X-0.225000X0.250000X0.225000X-0.250000X0.225000X-0.250000X-0.225000X0*%
%TD*%
%TA.AperFunction,SMDPad,CuDef*%
%ADD15RoundRect,0.150000X-0.150000X0.825000X-0.150000X-0.825000X0.150000X-0.825000X0.150000X0.825000X0*%
%TD*%
%TA.AperFunction,SMDPad,CuDef*%
%ADD16RoundRect,0.225000X0.225000X0.250000X-0.225000X0.250000X-0.225000X-0.250000X0.225000X-0.250000X0*%
%TD*%
%TA.AperFunction,SMDPad,CuDef*%
%ADD17RoundRect,0.150000X0.150000X0.625000X-0.150000X0.625000X-0.150000X-0.625000X0.150000X-0.625000X0*%
%TD*%
%TA.AperFunction,SMDPad,CuDef*%
%ADD18RoundRect,0.250000X0.350000X0.650000X-0.350000X0.650000X-0.350000X-0.650000X0.350000X-0.650000X0*%
%TD*%
%TA.AperFunction,SMDPad,CuDef*%
%ADD19RoundRect,0.225000X-0.225000X-0.250000X0.225000X-0.250000X0.225000X0.250000X-0.225000X0.250000X0*%
%TD*%
%TA.AperFunction,SMDPad,CuDef*%
%ADD20RoundRect,0.150000X-0.150000X0.512500X-0.150000X-0.512500X0.150000X-0.512500X0.150000X0.512500X0*%
%TD*%
%TA.AperFunction,SMDPad,CuDef*%
%ADD21RoundRect,0.200000X0.275000X-0.200000X0.275000X0.200000X-0.275000X0.200000X-0.275000X-0.200000X0*%
%TD*%
%TA.AperFunction,ViaPad*%
%ADD22C,0.600000*%
%TD*%
%TA.AperFunction,Conductor*%
%ADD23C,0.200000*%
%TD*%
G04 APERTURE END LIST*
D10*
%TO.P,J1,1,Pin_1_1*%
%TO.N,GND*%
X187000000Y-93750000D03*
D11*
%TO.P,J1,2,Pin_2_2*%
%TO.N,/updi*%
X187000000Y-94750000D03*
%TO.P,J1,3,Pin_3_3*%
%TO.N,VCC*%
X187000000Y-95750000D03*
%TD*%
D12*
%TO.P,J2,1,Pin_1_1*%
%TO.N,GND*%
X178500000Y-85500000D03*
%TO.P,J2,2,Pin_2_2*%
%TO.N,VDD*%
X179500000Y-85500000D03*
%TO.P,J2,3,Pin_3_3*%
%TO.N,/data+*%
X180500000Y-85500000D03*
%TO.P,J2,4,Pin_4_4*%
%TO.N,/data-*%
X181500000Y-85500000D03*
D13*
%TO.P,J2,MP*%
%TO.N,N/C*%
X177200000Y-81625000D03*
X182800000Y-81625000D03*
%TD*%
D14*
%TO.P,R3,1*%
%TO.N,/V_out*%
X187000000Y-99050000D03*
%TO.P,R3,2*%
%TO.N,Net-(R3-Pad2)*%
X187000000Y-97500000D03*
%TD*%
D15*
%TO.P,U2,1,VCC_1*%
%TO.N,VCC*%
X184095000Y-86525000D03*
%TO.P,U2,2,PA6_2*%
%TO.N,/tx1*%
X185365000Y-86525000D03*
%TO.P,U2,3,PA7_3*%
%TO.N,/rx1*%
X186635000Y-86525000D03*
%TO.P,U2,4,PA1_4*%
%TO.N,unconnected-(U2-PA1-Pad4)*%
X187905000Y-86525000D03*
%TO.P,U2,5,PA2_5*%
%TO.N,/V_out*%
X187905000Y-91475000D03*
%TO.P,U2,6,~{RESET}/PA0_6*%
%TO.N,/updi*%
X186635000Y-91475000D03*
%TO.P,U2,7,PA3_7*%
%TO.N,/ena*%
X185365000Y-91475000D03*
%TO.P,U2,8,GND_8*%
%TO.N,GND*%
X184095000Y-91475000D03*
%TD*%
D16*
%TO.P,R2,1*%
%TO.N,/data+*%
X184775000Y-93500000D03*
%TO.P,R2,2*%
%TO.N,/data-*%
X183225000Y-93500000D03*
%TD*%
D14*
%TO.P,C5,1*%
%TO.N,/V_out*%
X185000000Y-99025000D03*
%TO.P,C5,2*%
%TO.N,GND*%
X185000000Y-97475000D03*
%TD*%
D17*
%TO.P,J3,1,Pin_1_1*%
%TO.N,GND*%
X181500000Y-94500000D03*
%TO.P,J3,2,Pin_2_2*%
%TO.N,VDD*%
X180500000Y-94500000D03*
%TO.P,J3,3,Pin_3_3*%
%TO.N,/data+*%
X179500000Y-94500000D03*
%TO.P,J3,4,Pin_4_4*%
%TO.N,/data-*%
X178500000Y-94500000D03*
D18*
%TO.P,J3,MP*%
%TO.N,N/C*%
X182800000Y-98375000D03*
X177200000Y-98375000D03*
%TD*%
D15*
%TO.P,U3,1,RO_1*%
%TO.N,/rx1*%
X172095000Y-86525000D03*
%TO.P,U3,2,~{RE}_2*%
%TO.N,/ena*%
X173365000Y-86525000D03*
%TO.P,U3,3,DE_3*%
X174635000Y-86525000D03*
%TO.P,U3,4,DI_4*%
%TO.N,/tx1*%
X175905000Y-86525000D03*
%TO.P,U3,5,GND_5*%
%TO.N,GND*%
X175905000Y-91475000D03*
%TO.P,U3,6,A_6*%
%TO.N,/data+*%
X174635000Y-91475000D03*
%TO.P,U3,7,B_7*%
%TO.N,/data-*%
X173365000Y-91475000D03*
%TO.P,U3,8,VCC_8*%
%TO.N,VCC*%
X172095000Y-91475000D03*
%TD*%
D19*
%TO.P,C6,1*%
%TO.N,VCC*%
X175225000Y-93500000D03*
%TO.P,C6,2*%
%TO.N,GND*%
X176775000Y-93500000D03*
%TD*%
D20*
%TO.P,U1,1,GND_1*%
%TO.N,GND*%
X172050000Y-94112500D03*
%TO.P,U1,2,SW_2*%
%TO.N,Net-(U1-SW)*%
X173000000Y-94112500D03*
%TO.P,U1,3,VIN_3*%
%TO.N,VDD*%
X173950000Y-94112500D03*
%TO.P,U1,4,VFB_4*%
%TO.N,Net-(U1-VFB)*%
X173950000Y-96387500D03*
%TO.P,U1,5,EN_5*%
%TO.N,VDD*%
X173000000Y-96387500D03*
%TO.P,U1,6,VBST_6*%
%TO.N,Net-(U1-VBST)*%
X172050000Y-96387500D03*
%TD*%
D21*
%TO.P,56k1,1*%
%TO.N,Net-(U1-VFB)*%
X175250000Y-99075000D03*
%TO.P,56k1,2*%
%TO.N,VCC*%
X175250000Y-97425000D03*
%TD*%
D22*
%TO.N,GND*%
X176022100Y-88677600D03*
X176731300Y-91910000D03*
X183962600Y-97804900D03*
%TO.N,VDD*%
X177581300Y-94764700D03*
X177465000Y-85319800D03*
X175054900Y-94598900D03*
%TO.N,/data+*%
X184750000Y-93475000D03*
X179500000Y-94926300D03*
%TO.N,/data-*%
X182324600Y-94326300D03*
X175401600Y-89199000D03*
X182697300Y-86750000D03*
X177737900Y-93560900D03*
%TO.N,Net-(R3-Pad2)*%
X185978200Y-97500000D03*
%TO.N,VCC*%
X174536800Y-88010700D03*
X172012400Y-89635000D03*
X185267300Y-88046700D03*
X175863400Y-94439700D03*
%TO.N,/updi*%
X186632700Y-88750000D03*
%TO.N,Net-(U1-VFB)*%
X175946500Y-98281200D03*
%TO.N,Net-(U1-VBST)*%
X173600000Y-97520865D03*
%TO.N,Net-(U1-SW)*%
X173996500Y-90207000D03*
%TD*%
%TO.N,GND*%
D23*
X172706900Y-89990700D02*
X172706900Y-92896900D01*
X177946100Y-95980800D02*
X180513900Y-95980800D01*
X175131300Y-88586100D02*
X174924500Y-88792900D01*
X182547500Y-94952500D02*
X183225000Y-94275000D01*
X176966900Y-94433600D02*
X176966900Y-95001500D01*
X176966900Y-95001500D02*
X177710700Y-95745300D01*
X173904700Y-88792900D02*
X172706900Y-89990700D01*
X176022100Y-88586100D02*
X175131300Y-88586100D01*
X172706900Y-92896900D02*
X172050000Y-93553800D01*
X174924500Y-88792900D02*
X173904700Y-88792900D01*
X184006700Y-91475000D02*
X184095000Y-91475000D01*
X176731300Y-93456300D02*
X176775000Y-93500000D01*
X176775000Y-94241700D02*
X176966900Y-94433600D01*
X185748300Y-94275000D02*
X186273300Y-93750000D01*
X181747400Y-94747300D02*
X181500000Y-94500000D01*
X178500000Y-85500000D02*
X178500000Y-85750000D01*
X181500000Y-93981700D02*
X184006700Y-91475000D01*
X175905000Y-91475000D02*
X176340000Y-91910000D01*
X184670100Y-97804900D02*
X185000000Y-97475000D01*
X181500000Y-94500000D02*
X181500000Y-93981700D01*
X186273300Y-93750000D02*
X187000000Y-93750000D01*
X176731300Y-91910000D02*
X176731300Y-93456300D01*
X177710700Y-95745300D02*
X177710700Y-95745400D01*
X181747400Y-94747300D02*
X181747400Y-94747400D01*
X183225000Y-94275000D02*
X185748300Y-94275000D01*
X183962600Y-97804900D02*
X184670100Y-97804900D01*
X172050000Y-93553800D02*
X172050000Y-94112500D01*
X177710700Y-95745400D02*
X177946100Y-95980800D01*
X181973300Y-94952500D02*
X182547500Y-94952500D01*
X180513900Y-95980800D02*
X181747400Y-94747300D01*
X181768200Y-94747400D02*
X181973300Y-94952500D01*
X181747400Y-94747400D02*
X181768200Y-94747400D01*
X176022100Y-88227900D02*
X176022100Y-88586100D01*
X176022100Y-88586100D02*
X176022100Y-88677600D01*
X178500000Y-85750000D02*
X176022100Y-88227900D01*
X176775000Y-93500000D02*
X176775000Y-94241700D01*
X176340000Y-91910000D02*
X176731300Y-91910000D01*
%TO.N,VDD*%
X180500000Y-95250000D02*
X180171000Y-95579000D01*
X173950000Y-94112500D02*
X174436400Y-94598900D01*
X173000000Y-96387500D02*
X173000000Y-95415552D01*
X178836300Y-84395500D02*
X179500000Y-85059200D01*
X177409900Y-94794000D02*
X177439200Y-94764700D01*
X180500000Y-94500000D02*
X180500000Y-95250000D01*
X173000000Y-95415552D02*
X173950000Y-94465552D01*
X177465000Y-85078200D02*
X178147700Y-84395500D01*
X178112400Y-95579000D02*
X177409900Y-94876500D01*
X174436400Y-94598900D02*
X175054900Y-94598900D01*
X177439200Y-94764700D02*
X177581300Y-94764700D01*
X173950000Y-94465552D02*
X173950000Y-94112500D01*
X177409900Y-94876500D02*
X177409900Y-94794000D01*
X179500000Y-85059200D02*
X179500000Y-85500000D01*
X180171000Y-95579000D02*
X178112400Y-95579000D01*
X177465000Y-85319800D02*
X177465000Y-85078200D01*
X178147700Y-84395500D02*
X178836300Y-84395500D01*
%TO.N,/data+*%
X183500000Y-88209300D02*
X183500000Y-87545552D01*
X176836400Y-88425500D02*
X178625400Y-86636500D01*
X184730000Y-89439300D02*
X183500000Y-88209300D01*
X181128100Y-84395500D02*
X180500000Y-85023600D01*
X176836400Y-88887200D02*
X176836400Y-88425500D01*
X184730000Y-93455000D02*
X184730000Y-89439300D01*
X180500000Y-85937200D02*
X180500000Y-85500000D01*
X184775000Y-93500000D02*
X184750000Y-93475000D01*
X183495000Y-87540552D02*
X183495000Y-86046200D01*
X183495000Y-86046200D02*
X181844300Y-84395500D01*
X179800700Y-86636500D02*
X180500000Y-85937200D01*
X174635000Y-91088600D02*
X176836400Y-88887200D01*
X183500000Y-87545552D02*
X183495000Y-87540552D01*
X181844300Y-84395500D02*
X181128100Y-84395500D01*
X178625400Y-86636500D02*
X179800700Y-86636500D01*
X184775000Y-93500000D02*
X184730000Y-93455000D01*
X180500000Y-85023600D02*
X180500000Y-85500000D01*
X174635000Y-91475000D02*
X174635000Y-91088600D01*
%TO.N,/data-*%
X173365000Y-89985400D02*
X174151400Y-89199000D01*
X178500000Y-94500000D02*
X177738000Y-93738000D01*
X177738000Y-93738000D02*
X177738000Y-93560900D01*
X182697300Y-86750000D02*
X182697300Y-86697300D01*
X183225000Y-93500000D02*
X182398700Y-94326300D01*
X182398700Y-94326300D02*
X182324600Y-94326300D01*
X182697300Y-86697300D02*
X181500000Y-85500000D01*
X177738000Y-93560900D02*
X177737900Y-93560900D01*
X173365000Y-91475000D02*
X173365000Y-89985400D01*
X174151400Y-89199000D02*
X175401600Y-89199000D01*
%TO.N,/V_out*%
X187905000Y-91475000D02*
X188149958Y-91719958D01*
X188149949Y-94750000D02*
X188149937Y-97900063D01*
X188149958Y-91719958D02*
X188149958Y-94749991D01*
X188149958Y-94749991D02*
X188149949Y-94750000D01*
X188149937Y-97900063D02*
X187000000Y-99050000D01*
X187000000Y-99050000D02*
X185025000Y-99050000D01*
X185025000Y-99050000D02*
X185000000Y-99025000D01*
%TO.N,Net-(R3-Pad2)*%
X187000000Y-97500000D02*
X185978200Y-97500000D01*
%TO.N,VCC*%
X172095000Y-90013200D02*
X172242800Y-89865400D01*
X175863400Y-94439700D02*
X175863400Y-94138400D01*
X172242800Y-89865400D02*
X172012400Y-89635000D01*
X175863400Y-94439700D02*
X175863400Y-94466000D01*
X184095000Y-86874400D02*
X185267300Y-88046700D01*
X172242800Y-89865400D02*
X174097500Y-88010700D01*
X175863400Y-94466000D02*
X176598800Y-95201400D01*
X176319500Y-96355500D02*
X176598800Y-96355500D01*
X174097500Y-88010700D02*
X174536800Y-88010700D01*
X186367500Y-96382500D02*
X187000000Y-95750000D01*
X175250000Y-97425000D02*
X176319500Y-96355500D01*
X175863400Y-94138400D02*
X175225000Y-93500000D01*
X184095000Y-86525000D02*
X184095000Y-86874400D01*
X176598800Y-95201400D02*
X176598800Y-96355500D01*
X172095000Y-91475000D02*
X172095000Y-90013200D01*
X176598800Y-96355500D02*
X176625800Y-96382500D01*
X176625800Y-96382500D02*
X186367500Y-96382500D01*
%TO.N,/tx1*%
X185365000Y-86525000D02*
X185365000Y-86068200D01*
X185365000Y-86068200D02*
X183263400Y-83966600D01*
X183263400Y-83966600D02*
X177964300Y-83966600D01*
X175905000Y-86025900D02*
X175905000Y-86525000D01*
X177964300Y-83966600D02*
X175905000Y-86025900D01*
%TO.N,/rx1*%
X172095000Y-86131100D02*
X172095000Y-86525000D01*
X186635000Y-85560800D02*
X184184400Y-83110200D01*
X186635000Y-86525000D02*
X186635000Y-85560800D01*
X174926700Y-84805500D02*
X173420600Y-84805500D01*
X176622000Y-83110200D02*
X174926700Y-84805500D01*
X184184400Y-83110200D02*
X176622000Y-83110200D01*
X173420600Y-84805500D02*
X172095000Y-86131100D01*
%TO.N,/updi*%
X187725000Y-93025000D02*
X186635000Y-91935000D01*
X187000000Y-94750000D02*
X187450000Y-94750000D01*
X186635000Y-88752300D02*
X186632700Y-88750000D01*
X186635000Y-91935000D02*
X186635000Y-91475000D01*
X187450000Y-94750000D02*
X187725000Y-94475000D01*
X186635000Y-91475000D02*
X186635000Y-88752300D01*
X187725000Y-94475000D02*
X187725000Y-93025000D01*
%TO.N,/ena*%
X174635000Y-86123000D02*
X174635000Y-86525000D01*
X184472800Y-83966600D02*
X183868200Y-83966600D01*
X183463500Y-83561900D02*
X177196100Y-83561900D01*
X186032700Y-90807300D02*
X186032700Y-85526500D01*
X174635000Y-86525000D02*
X173365000Y-86525000D01*
X177196100Y-83561900D02*
X174635000Y-86123000D01*
X183868200Y-83966600D02*
X183463500Y-83561900D01*
X185365000Y-91475000D02*
X186032700Y-90807300D01*
X186032700Y-85526500D02*
X184472800Y-83966600D01*
%TO.N,Net-(U1-VFB)*%
X175418200Y-98809500D02*
X174214300Y-97605700D01*
X173950000Y-96921700D02*
X173950000Y-96387500D01*
X174214300Y-97186000D02*
X173950000Y-96921700D01*
X175418200Y-98809500D02*
X175250000Y-98977700D01*
X175946500Y-98281200D02*
X175418200Y-98809500D01*
X175250000Y-98977700D02*
X175250000Y-99075000D01*
X174214300Y-97605700D02*
X174214300Y-97186000D01*
%TO.N,Net-(U1-VBST)*%
X172050000Y-96387500D02*
X172050000Y-97049999D01*
X172050000Y-97049999D02*
X172520866Y-97520865D01*
X172520866Y-97520865D02*
X173600000Y-97520865D01*
%TO.N,Net-(U1-SW)*%
X173000000Y-93565100D02*
X173996500Y-92568600D01*
X173996500Y-92568600D02*
X173996500Y-90207000D01*
X173000000Y-94112500D02*
X173000000Y-93565100D01*
%TD*%
%TA.AperFunction,Conductor*%
%TO.N,GND*%
G36*
X183722884Y-94439612D02*
G01*
X183739698Y-94439034D01*
X183755880Y-94448664D01*
X183774041Y-94453646D01*
X183785283Y-94466162D01*
X183799740Y-94474765D01*
X183808147Y-94491614D01*
X183820732Y-94505625D01*
X183823422Y-94522230D01*
X183830934Y-94537285D01*
X183828896Y-94556008D01*
X183831908Y-94574595D01*
X183825194Y-94590018D01*
X183823374Y-94606745D01*
X183811538Y-94621392D01*
X183804023Y-94638659D01*
X183780553Y-94659740D01*
X183779462Y-94661091D01*
X183777766Y-94662244D01*
X183612218Y-94772860D01*
X183612214Y-94772863D01*
X183472863Y-94912214D01*
X183472860Y-94912218D01*
X183363371Y-95076079D01*
X183363364Y-95076092D01*
X183287950Y-95258160D01*
X183287947Y-95258170D01*
X183249500Y-95451456D01*
X183249500Y-95654633D01*
X183247566Y-95654633D01*
X183236222Y-95714480D01*
X183188163Y-95765195D01*
X183125832Y-95782000D01*
X182211602Y-95782000D01*
X182144563Y-95762315D01*
X182098808Y-95709511D01*
X182088864Y-95640353D01*
X182117889Y-95576797D01*
X182123921Y-95570319D01*
X182167678Y-95526561D01*
X182167685Y-95526552D01*
X182251282Y-95385196D01*
X182251283Y-95385193D01*
X182298868Y-95221407D01*
X182300024Y-95221743D01*
X182328484Y-95165179D01*
X182388646Y-95129650D01*
X182397491Y-95128105D01*
X182397468Y-95127989D01*
X182483934Y-95110788D01*
X182558097Y-95096037D01*
X182703779Y-95035694D01*
X182834889Y-94948089D01*
X182946389Y-94836589D01*
X183033994Y-94705479D01*
X183094337Y-94559797D01*
X183094337Y-94559796D01*
X183096668Y-94554169D01*
X183098758Y-94555034D01*
X183131522Y-94505055D01*
X183195338Y-94476606D01*
X183211873Y-94475499D01*
X183498338Y-94475499D01*
X183498344Y-94475499D01*
X183498352Y-94475498D01*
X183498355Y-94475498D01*
X183552760Y-94469940D01*
X183597708Y-94465349D01*
X183669873Y-94441435D01*
X183688691Y-94440788D01*
X183706661Y-94435162D01*
X183722884Y-94439612D01*
G37*
%TD.AperFunction*%
%TA.AperFunction,Conductor*%
G36*
X186003618Y-92791288D02*
G01*
X186033727Y-92790983D01*
X186040268Y-92793890D01*
X186043274Y-92794104D01*
X186048937Y-92797743D01*
X186065978Y-92805318D01*
X186077803Y-92812749D01*
X186083135Y-92818081D01*
X186136634Y-92849720D01*
X186138039Y-92850603D01*
X186160108Y-92875557D01*
X186182865Y-92899929D01*
X186183176Y-92901639D01*
X186184327Y-92902941D01*
X186189403Y-92935873D01*
X186195369Y-92968671D01*
X186194706Y-92970277D01*
X186194971Y-92971995D01*
X186171328Y-93029904D01*
X186131647Y-93082911D01*
X186131645Y-93082913D01*
X186081403Y-93217620D01*
X186081401Y-93217627D01*
X186075000Y-93277155D01*
X186075000Y-93500000D01*
X186876000Y-93500000D01*
X186884685Y-93502550D01*
X186893647Y-93501262D01*
X186917687Y-93512240D01*
X186919462Y-93512761D01*
X186858386Y-93538060D01*
X186788060Y-93608386D01*
X186750000Y-93700272D01*
X186750000Y-93799728D01*
X186771570Y-93851805D01*
X186730047Y-93860065D01*
X186730037Y-93860068D01*
X186561613Y-93929831D01*
X186517034Y-93959617D01*
X186487873Y-93979102D01*
X186421197Y-93999980D01*
X186418984Y-94000000D01*
X186075000Y-94000000D01*
X186075000Y-94222844D01*
X186081401Y-94282372D01*
X186081403Y-94282380D01*
X186116727Y-94377089D01*
X186121711Y-94446781D01*
X186115109Y-94467867D01*
X186110068Y-94480037D01*
X186110065Y-94480048D01*
X186074500Y-94658843D01*
X186074500Y-94658846D01*
X186074500Y-94841154D01*
X186074500Y-94841156D01*
X186074499Y-94841156D01*
X186110065Y-95019952D01*
X186110067Y-95019958D01*
X186179835Y-95188394D01*
X186181525Y-95191556D01*
X186181908Y-95193399D01*
X186182164Y-95194016D01*
X186182047Y-95194064D01*
X186195761Y-95259960D01*
X186181525Y-95308444D01*
X186179835Y-95311605D01*
X186110067Y-95480041D01*
X186110065Y-95480047D01*
X186074499Y-95658843D01*
X186073903Y-95664906D01*
X186072512Y-95664769D01*
X186054815Y-95725039D01*
X186002011Y-95770794D01*
X185950500Y-95782000D01*
X185374168Y-95782000D01*
X185307129Y-95762315D01*
X185261374Y-95709511D01*
X185252232Y-95654633D01*
X185250500Y-95654633D01*
X185250500Y-95451456D01*
X185212052Y-95258170D01*
X185212051Y-95258169D01*
X185212051Y-95258165D01*
X185196965Y-95221743D01*
X185136635Y-95076092D01*
X185136628Y-95076079D01*
X185027139Y-94912218D01*
X185027136Y-94912214D01*
X184887785Y-94772863D01*
X184887781Y-94772860D01*
X184782631Y-94702601D01*
X184737826Y-94648989D01*
X184729119Y-94579664D01*
X184759273Y-94516637D01*
X184818716Y-94479917D01*
X184851519Y-94475499D01*
X185048344Y-94475499D01*
X185048352Y-94475498D01*
X185048355Y-94475498D01*
X185102760Y-94469940D01*
X185147708Y-94465349D01*
X185308697Y-94412003D01*
X185453044Y-94322968D01*
X185572968Y-94203044D01*
X185662003Y-94058697D01*
X185715349Y-93897708D01*
X185725500Y-93798345D01*
X185725499Y-93201656D01*
X185725139Y-93198135D01*
X185715349Y-93102292D01*
X185715348Y-93102289D01*
X185700458Y-93057353D01*
X185698056Y-92987524D01*
X185733788Y-92927483D01*
X185768922Y-92904546D01*
X185775387Y-92901746D01*
X185775398Y-92901744D01*
X185916865Y-92818081D01*
X185916870Y-92818075D01*
X185923031Y-92813298D01*
X185924933Y-92815750D01*
X185938699Y-92808224D01*
X185963861Y-92791691D01*
X185969036Y-92791638D01*
X185973579Y-92789155D01*
X186003618Y-92791288D01*
G37*
%TD.AperFunction*%
%TA.AperFunction,Conductor*%
G36*
X176910203Y-91662615D02*
G01*
X176938358Y-91697875D01*
X176993893Y-91801775D01*
X176993904Y-91801793D01*
X177184975Y-92087751D01*
X177184985Y-92087765D01*
X177403176Y-92353632D01*
X177431342Y-92381798D01*
X177464827Y-92443121D01*
X177459843Y-92512813D01*
X177417971Y-92568746D01*
X177352507Y-92593163D01*
X177304657Y-92587185D01*
X177147607Y-92535144D01*
X177048322Y-92525000D01*
X177025000Y-92525000D01*
X177025000Y-93165521D01*
X177024598Y-93168036D01*
X177024941Y-93169352D01*
X177022798Y-93179313D01*
X177018841Y-93204115D01*
X177017371Y-93208603D01*
X176968163Y-93327403D01*
X176952229Y-93407505D01*
X176949908Y-93414594D01*
X176934172Y-93437491D01*
X176921299Y-93462102D01*
X176914662Y-93465880D01*
X176910336Y-93472177D01*
X176884718Y-93482932D01*
X176860583Y-93496676D01*
X176848677Y-93498063D01*
X176845914Y-93499224D01*
X176843044Y-93498720D01*
X176832067Y-93500000D01*
X176649000Y-93500000D01*
X176581961Y-93480315D01*
X176536206Y-93427511D01*
X176525000Y-93376000D01*
X176525000Y-92519000D01*
X176544685Y-92451961D01*
X176597489Y-92406206D01*
X176649000Y-92395000D01*
X176702690Y-92395000D01*
X176702690Y-92394999D01*
X176704999Y-92365651D01*
X176705000Y-92365633D01*
X176705000Y-91756328D01*
X176724685Y-91689289D01*
X176777489Y-91643534D01*
X176846647Y-91633590D01*
X176910203Y-91662615D01*
G37*
%TD.AperFunction*%
%TA.AperFunction,Conductor*%
G36*
X182257344Y-92716038D02*
G01*
X182272220Y-92713618D01*
X182291088Y-92721816D01*
X182311361Y-92725287D01*
X182322480Y-92735455D01*
X182336302Y-92741461D01*
X182347742Y-92758558D01*
X182362921Y-92772439D01*
X182366777Y-92787004D01*
X182375159Y-92799530D01*
X182375539Y-92820096D01*
X182380805Y-92839981D01*
X182376194Y-92855445D01*
X182376453Y-92869387D01*
X182362388Y-92901758D01*
X182338000Y-92941296D01*
X182337996Y-92941305D01*
X182284651Y-93102290D01*
X182274500Y-93201648D01*
X182274500Y-93280898D01*
X182254815Y-93347937D01*
X182202011Y-93393692D01*
X182132853Y-93403636D01*
X182069297Y-93374611D01*
X182062819Y-93368579D01*
X182051561Y-93357321D01*
X182051552Y-93357314D01*
X181910196Y-93273717D01*
X181910195Y-93273716D01*
X181807925Y-93244004D01*
X181749040Y-93206398D01*
X181719834Y-93142925D01*
X181729580Y-93073738D01*
X181775184Y-93020804D01*
X181784048Y-93015581D01*
X181801787Y-93006100D01*
X182087760Y-92815019D01*
X182178186Y-92740807D01*
X182192053Y-92734918D01*
X182203257Y-92724841D01*
X182223560Y-92721536D01*
X182242493Y-92713496D01*
X182257344Y-92716038D01*
G37*
%TD.AperFunction*%
%TA.AperFunction,Conductor*%
G36*
X183244421Y-91656401D02*
G01*
X183286790Y-91711959D01*
X183295000Y-91756328D01*
X183295000Y-92365657D01*
X183296977Y-92390775D01*
X183282611Y-92459151D01*
X183233558Y-92508907D01*
X183173360Y-92524500D01*
X182951663Y-92524500D01*
X182951644Y-92524501D01*
X182852292Y-92534650D01*
X182852286Y-92534652D01*
X182696129Y-92586397D01*
X182626301Y-92588799D01*
X182566259Y-92553067D01*
X182535067Y-92490546D01*
X182542628Y-92421087D01*
X182569443Y-92381011D01*
X182596828Y-92353627D01*
X182815019Y-92087760D01*
X183006100Y-91801787D01*
X183061642Y-91697874D01*
X183110604Y-91648031D01*
X183178742Y-91632570D01*
X183244421Y-91656401D01*
G37*
%TD.AperFunction*%
%TA.AperFunction,Conductor*%
G36*
X183615188Y-89179971D02*
G01*
X183641509Y-89200044D01*
X184093181Y-89651716D01*
X184126666Y-89713039D01*
X184129500Y-89739397D01*
X184129500Y-91351000D01*
X184126949Y-91359685D01*
X184128238Y-91368647D01*
X184117259Y-91392687D01*
X184109815Y-91418039D01*
X184102974Y-91423966D01*
X184099213Y-91432203D01*
X184076978Y-91446492D01*
X184057011Y-91463794D01*
X184046496Y-91466081D01*
X184040435Y-91469977D01*
X184005500Y-91475000D01*
X183969000Y-91475000D01*
X183901961Y-91455315D01*
X183856206Y-91402511D01*
X183845000Y-91351000D01*
X183845000Y-90002703D01*
X183842503Y-90002900D01*
X183684806Y-90048716D01*
X183677646Y-90051815D01*
X183676775Y-90049802D01*
X183619895Y-90064233D01*
X183553633Y-90042073D01*
X183509871Y-89987606D01*
X183500500Y-89940319D01*
X183500500Y-89828034D01*
X183499786Y-89820789D01*
X183466789Y-89485750D01*
X183432211Y-89311915D01*
X183438438Y-89242325D01*
X183481301Y-89187148D01*
X183547191Y-89163903D01*
X183615188Y-89179971D01*
G37*
%TD.AperFunction*%
%TA.AperFunction,Conductor*%
G36*
X175474468Y-87949101D02*
G01*
X175478947Y-87948458D01*
X175495895Y-87952120D01*
X175652426Y-87997597D01*
X175652429Y-87997597D01*
X175652431Y-87997598D01*
X175689306Y-88000500D01*
X175689314Y-88000500D01*
X176120686Y-88000500D01*
X176120694Y-88000500D01*
X176153780Y-87997896D01*
X176163886Y-87997101D01*
X176164066Y-87999389D01*
X176223195Y-88005592D01*
X176277712Y-88049292D01*
X176299948Y-88115529D01*
X176283429Y-88182269D01*
X176276826Y-88193705D01*
X176276824Y-88193710D01*
X176276823Y-88193715D01*
X176235899Y-88346443D01*
X176235899Y-88346445D01*
X176235899Y-88514546D01*
X176235900Y-88514559D01*
X176235900Y-88587100D01*
X176216215Y-88654139D01*
X176199575Y-88674787D01*
X176192195Y-88682166D01*
X176169691Y-88694452D01*
X176163411Y-88699894D01*
X176158405Y-88700613D01*
X176130870Y-88715647D01*
X176061179Y-88710658D01*
X176016839Y-88682160D01*
X175911892Y-88577213D01*
X175911888Y-88577210D01*
X175780785Y-88489609D01*
X175780772Y-88489602D01*
X175635101Y-88429264D01*
X175635089Y-88429261D01*
X175480445Y-88398500D01*
X175480442Y-88398500D01*
X175426924Y-88398500D01*
X175359885Y-88378815D01*
X175314130Y-88326011D01*
X175304186Y-88256853D01*
X175305666Y-88250235D01*
X175305349Y-88250172D01*
X175337299Y-88089546D01*
X175337300Y-88089544D01*
X175337300Y-88071196D01*
X175344696Y-88046006D01*
X175348359Y-88020007D01*
X175354384Y-88013012D01*
X175356985Y-88004157D01*
X175376823Y-87986967D01*
X175393963Y-87967072D01*
X175402814Y-87964445D01*
X175409789Y-87958402D01*
X175435775Y-87954665D01*
X175460946Y-87947197D01*
X175474468Y-87949101D01*
G37*
%TD.AperFunction*%
%TA.AperFunction,Conductor*%
G36*
X176944130Y-85938516D02*
G01*
X176969685Y-85951594D01*
X177085821Y-86029194D01*
X177085823Y-86029195D01*
X177085827Y-86029197D01*
X177231498Y-86089535D01*
X177231503Y-86089537D01*
X177374721Y-86118025D01*
X177386153Y-86120299D01*
X177386156Y-86120300D01*
X177386158Y-86120300D01*
X177543843Y-86120300D01*
X177555279Y-86118025D01*
X177624870Y-86124251D01*
X177680048Y-86167113D01*
X177700032Y-86221570D01*
X177701761Y-86221255D01*
X177702900Y-86227495D01*
X177748716Y-86385193D01*
X177748716Y-86385194D01*
X177803345Y-86477568D01*
X177820527Y-86545292D01*
X177798366Y-86611554D01*
X177784293Y-86628369D01*
X176917181Y-87495482D01*
X176855858Y-87528967D01*
X176786167Y-87523983D01*
X176730233Y-87482111D01*
X176705816Y-87416647D01*
X176705500Y-87407801D01*
X176705500Y-86125996D01*
X176714143Y-86096559D01*
X176720667Y-86066570D01*
X176724422Y-86061552D01*
X176725185Y-86058957D01*
X176741810Y-86038324D01*
X176813120Y-85967014D01*
X176874438Y-85933532D01*
X176944130Y-85938516D01*
G37*
%TD.AperFunction*%
%TD*%
M02*
