%TF.GenerationSoftware,KiCad,Pcbnew,10.0.3*%
%TF.CreationDate,2026-06-25T13:49:25+09:00*%
%TF.ProjectId,elephant_robot_posision_sensor,656c6570-6861-46e7-945f-726f626f745f,rev?*%
%TF.SameCoordinates,Original*%
%TF.FileFunction,Copper,L1,Top*%
%TF.FilePolarity,Positive*%
%FSLAX46Y46*%
G04 Gerber Fmt 4.6, Leading zero omitted, Abs format (unit mm)*
G04 Created by KiCad (PCBNEW 10.0.3) date 2026-06-25 13:49:25*
%MOMM*%
%LPD*%
G01*
G04 APERTURE LIST*
G04 Aperture macros list*
%AMRoundRect*
0 Rectangle with rounded corners*
0 $1 Rounding radius*
0 $2 $3 $4 $5 $6 $7 $8 $9 X,Y pos of 4 corners*
0 Add a 4 corners polygon primitive as box body*
4,1,4,$2,$3,$4,$5,$6,$7,$8,$9,$2,$3,0*
0 Add four circle primitives for the rounded corners*
1,1,$1+$1,$2,$3*
1,1,$1+$1,$4,$5*
1,1,$1+$1,$6,$7*
1,1,$1+$1,$8,$9*
0 Add four rect primitives between the rounded corners*
20,1,$1+$1,$2,$3,$4,$5,0*
20,1,$1+$1,$4,$5,$6,$7,0*
20,1,$1+$1,$6,$7,$8,$9,0*
20,1,$1+$1,$8,$9,$2,$3,0*%
G04 Aperture macros list end*
%TA.AperFunction,SMDPad,CuDef*%
%ADD10RoundRect,0.225000X-0.250000X0.225000X-0.250000X-0.225000X0.250000X-0.225000X0.250000X0.225000X0*%
%TD*%
%TA.AperFunction,SMDPad,CuDef*%
%ADD11RoundRect,0.225000X0.225000X0.250000X-0.225000X0.250000X-0.225000X-0.250000X0.225000X-0.250000X0*%
%TD*%
%TA.AperFunction,SMDPad,CuDef*%
%ADD12RoundRect,0.225000X-0.225000X-0.250000X0.225000X-0.250000X0.225000X0.250000X-0.225000X0.250000X0*%
%TD*%
%TA.AperFunction,ComponentPad*%
%ADD13R,0.850000X0.850000*%
%TD*%
%TA.AperFunction,ComponentPad*%
%ADD14C,0.850000*%
%TD*%
%TA.AperFunction,SMDPad,CuDef*%
%ADD15R,1.800000X2.000000*%
%TD*%
%TA.AperFunction,SMDPad,CuDef*%
%ADD16RoundRect,0.200000X0.200000X0.275000X-0.200000X0.275000X-0.200000X-0.275000X0.200000X-0.275000X0*%
%TD*%
%TA.AperFunction,SMDPad,CuDef*%
%ADD17RoundRect,0.218750X0.218750X0.256250X-0.218750X0.256250X-0.218750X-0.256250X0.218750X-0.256250X0*%
%TD*%
%TA.AperFunction,ViaPad*%
%ADD18C,0.600000*%
%TD*%
%TA.AperFunction,Conductor*%
%ADD19C,0.200000*%
%TD*%
G04 APERTURE END LIST*
D10*
%TO.P,R1,1*%
%TO.N,VCC*%
X186250000Y-85975000D03*
%TO.P,R1,2*%
%TO.N,/updi*%
X186250000Y-87525000D03*
%TD*%
D11*
%TO.P,C3,1*%
%TO.N,VCC*%
X173775000Y-86250000D03*
%TO.P,C3,2*%
%TO.N,GND*%
X172225000Y-86250000D03*
%TD*%
D12*
%TO.P,C2,1*%
%TO.N,Net-(U1-SW)*%
X172225000Y-95500000D03*
%TO.P,C2,2*%
%TO.N,Net-(U1-VBST)*%
X173775000Y-95500000D03*
%TD*%
D13*
%TO.P,J1,1,Pin_1_1*%
%TO.N,GND*%
X187000000Y-93750000D03*
D14*
%TO.P,J1,2,Pin_2_2*%
%TO.N,/updi*%
X187000000Y-94750000D03*
%TO.P,J1,3,Pin_3_3*%
%TO.N,VCC*%
X187000000Y-95750000D03*
%TD*%
D10*
%TO.P,C4,1*%
%TO.N,VCC*%
X187750000Y-85975000D03*
%TO.P,C4,2*%
%TO.N,GND*%
X187750000Y-87525000D03*
%TD*%
D15*
%TO.P,U4,1,1_1*%
%TO.N,VCC*%
X177500000Y-97700000D03*
%TO.P,U4,2,2_2*%
%TO.N,Net-(R3-Pad2)*%
X180000000Y-97700000D03*
%TO.P,U4,3,3_3*%
%TO.N,GND*%
X182500000Y-97700000D03*
%TO.P,U4,4*%
%TO.N,N/C*%
X180000000Y-83800000D03*
%TD*%
D10*
%TO.P,C1,1*%
%TO.N,VDD*%
X173000000Y-87975000D03*
%TO.P,C1,2*%
%TO.N,GND*%
X173000000Y-89525000D03*
%TD*%
D16*
%TO.P,10k1,1*%
%TO.N,Net-(U1-VFB)*%
X173825000Y-98500000D03*
%TO.P,10k1,2*%
%TO.N,GND*%
X172175000Y-98500000D03*
%TD*%
D17*
%TO.P,L1,1,1_1*%
%TO.N,Net-(U1-SW)*%
X173787500Y-91250000D03*
%TO.P,L1,2,2_2*%
%TO.N,VCC*%
X172212500Y-91250000D03*
%TD*%
D18*
%TO.N,GND*%
X176022100Y-88677600D03*
X176731300Y-91910000D03*
X183962600Y-97804900D03*
%TO.N,VDD*%
X177581300Y-94764700D03*
X177465000Y-85319800D03*
X175054900Y-94598900D03*
%TO.N,/data+*%
X184750000Y-93475000D03*
X179500000Y-94926300D03*
%TO.N,/data-*%
X182324600Y-94326300D03*
X175401600Y-89199000D03*
X182697300Y-86750000D03*
X177737900Y-93560900D03*
%TO.N,Net-(R3-Pad2)*%
X185978200Y-97500000D03*
%TO.N,VCC*%
X174536800Y-88010700D03*
X172012400Y-89635000D03*
X185267300Y-88046700D03*
X175863400Y-94439700D03*
%TO.N,/updi*%
X186632700Y-88750000D03*
%TO.N,Net-(U1-VFB)*%
X175946500Y-98281200D03*
%TO.N,Net-(U1-VBST)*%
X173600000Y-97520865D03*
%TO.N,Net-(U1-SW)*%
X173996500Y-90207000D03*
%TD*%
%TO.N,GND*%
D19*
X178752100Y-98817000D02*
X178245400Y-99323700D01*
X172201100Y-88726100D02*
X173000000Y-89525000D01*
X181198300Y-96398300D02*
X178975000Y-96398300D01*
X187000000Y-93023300D02*
X187750000Y-93023300D01*
X174598200Y-89953800D02*
X174598200Y-92954200D01*
X187750000Y-96091100D02*
X187331400Y-96509700D01*
X187750000Y-93023300D02*
X187750000Y-96091100D01*
X183962600Y-97700000D02*
X183701700Y-97700000D01*
X172225000Y-86250000D02*
X172201100Y-86273900D01*
X176731300Y-91910000D02*
X176022100Y-91200800D01*
X178752100Y-96621200D02*
X178752100Y-98817000D01*
X187750000Y-87525000D02*
X187750000Y-93023300D01*
X187331400Y-96509700D02*
X185152900Y-96509700D01*
X172201100Y-86273900D02*
X172201100Y-88726100D01*
X182500000Y-97700000D02*
X181198300Y-96398300D01*
X176022100Y-91200800D02*
X176022100Y-88677600D01*
X173000000Y-97675000D02*
X172175000Y-98500000D01*
X174598200Y-92954200D02*
X173000000Y-94552400D01*
X183962600Y-97700000D02*
X183962600Y-97804900D01*
X174169400Y-89525000D02*
X174598200Y-89953800D01*
X187000000Y-93750000D02*
X187000000Y-93023300D01*
X178975000Y-96398300D02*
X178752100Y-96621200D01*
X185152900Y-96509700D02*
X183962600Y-97700000D01*
X173000000Y-94552400D02*
X173000000Y-97675000D01*
X172998700Y-99323700D02*
X172175000Y-98500000D01*
X173000000Y-89525000D02*
X174169400Y-89525000D01*
X182500000Y-97700000D02*
X183701700Y-97700000D01*
X178245400Y-99323700D02*
X172998700Y-99323700D01*
%TO.N,VDD*%
X176632200Y-93815600D02*
X177581300Y-94764700D01*
X173000000Y-87975000D02*
X173000000Y-85775300D01*
X175201600Y-93815600D02*
X176632200Y-93815600D01*
X177465000Y-85319900D02*
X177465000Y-85319800D01*
X175201600Y-93815600D02*
X174999900Y-93613900D01*
X173000000Y-85775300D02*
X173455400Y-85319900D01*
X175201600Y-94452200D02*
X175054900Y-94598900D01*
X174999900Y-93613900D02*
X174999900Y-89746200D01*
X173228700Y-87975000D02*
X173000000Y-87975000D01*
X174999900Y-89746200D02*
X173228700Y-87975000D01*
X173455400Y-85319900D02*
X177465000Y-85319900D01*
X175201600Y-93815600D02*
X175201600Y-94452200D01*
%TO.N,/data+*%
X184750000Y-93475000D02*
X183298700Y-94926300D01*
X183298700Y-94926300D02*
X179500000Y-94926300D01*
%TO.N,/data-*%
X184000000Y-92650900D02*
X182324600Y-94326300D01*
X177737900Y-93560900D02*
X178503300Y-94326300D01*
X177737900Y-93560900D02*
X177481800Y-93560900D01*
X177481800Y-93560900D02*
X175401600Y-91480700D01*
X184000000Y-88052700D02*
X184000000Y-92650900D01*
X175401600Y-91480700D02*
X175401600Y-89199000D01*
X182697300Y-86750000D02*
X184000000Y-88052700D01*
X178503300Y-94326300D02*
X182324600Y-94326300D01*
%TO.N,Net-(R3-Pad2)*%
X181451900Y-99001700D02*
X184476500Y-99001700D01*
X181201700Y-97700000D02*
X181201700Y-98751500D01*
X180000000Y-97700000D02*
X181201700Y-97700000D01*
X184476500Y-99001700D02*
X185978200Y-97500000D01*
X181201700Y-98751500D02*
X181451900Y-99001700D01*
%TO.N,VCC*%
X183220600Y-86000000D02*
X185267300Y-88046700D01*
X185442900Y-94306900D02*
X186886000Y-95750000D01*
X176500000Y-94750000D02*
X177500000Y-95750000D01*
X172212500Y-91250000D02*
X172212500Y-89835100D01*
X174100000Y-86250000D02*
X174536800Y-86686800D01*
X174536800Y-86686800D02*
X174536800Y-88010700D01*
X185267300Y-88046700D02*
X185442900Y-88046700D01*
X185442900Y-88046700D02*
X185442900Y-94306900D01*
X176173700Y-94750000D02*
X176500000Y-94750000D01*
X175863400Y-94439700D02*
X176173700Y-94750000D01*
X177500000Y-95750000D02*
X177500000Y-97700000D01*
X186886000Y-95750000D02*
X187000000Y-95750000D01*
X187750000Y-85975000D02*
X186250000Y-85975000D01*
X186250000Y-85975000D02*
X185442900Y-86782100D01*
X174536800Y-86686800D02*
X175223600Y-86000000D01*
X175223600Y-86000000D02*
X183220600Y-86000000D01*
X185442900Y-86782100D02*
X185442900Y-88046700D01*
X172212500Y-89835100D02*
X172012400Y-89635000D01*
X173775000Y-86250000D02*
X174100000Y-86250000D01*
%TO.N,/updi*%
X186632700Y-87907700D02*
X186250000Y-87525000D01*
X186632700Y-88750000D02*
X186632700Y-87907700D01*
%TO.N,Net-(U1-VFB)*%
X173825000Y-98500000D02*
X175727700Y-98500000D01*
X175727700Y-98500000D02*
X175946500Y-98281200D01*
%TO.N,Net-(U1-VBST)*%
X173775000Y-96975000D02*
X173775000Y-95500000D01*
X173600000Y-97520865D02*
X173600000Y-97150000D01*
X173600000Y-97150000D02*
X173775000Y-96975000D01*
%TO.N,Net-(U1-SW)*%
X172225000Y-92812500D02*
X172225000Y-95500000D01*
X173787500Y-91250000D02*
X172225000Y-92812500D01*
X173787500Y-91250000D02*
X173996500Y-91041000D01*
X173996500Y-91041000D02*
X173996500Y-90207000D01*
%TD*%
%TA.AperFunction,Conductor*%
%TO.N,GND*%
G36*
X187943039Y-87544685D02*
G01*
X187988794Y-87597489D01*
X188000000Y-87649000D01*
X188000000Y-88474999D01*
X188048308Y-88474999D01*
X188048320Y-88474998D01*
X188112868Y-88468404D01*
X188181561Y-88481173D01*
X188232446Y-88529054D01*
X188249471Y-88591762D01*
X188249434Y-98743109D01*
X188248652Y-98757015D01*
X188238461Y-98847313D01*
X188232278Y-98874380D01*
X188204564Y-98953543D01*
X188192515Y-98978555D01*
X188147884Y-99049566D01*
X188130573Y-99071269D01*
X188071256Y-99130577D01*
X188049548Y-99147886D01*
X187978533Y-99192503D01*
X187953520Y-99204548D01*
X187874347Y-99232251D01*
X187847279Y-99238429D01*
X187756971Y-99248606D01*
X187743089Y-99249386D01*
X187676993Y-99249387D01*
X187675193Y-99249504D01*
X185377293Y-99249503D01*
X185310253Y-99229818D01*
X185264499Y-99177014D01*
X185254555Y-99107856D01*
X185283580Y-99044300D01*
X185289612Y-99037822D01*
X185294680Y-99032754D01*
X185992865Y-98334570D01*
X186054184Y-98301088D01*
X186056351Y-98300637D01*
X186057040Y-98300500D01*
X186057042Y-98300500D01*
X186211697Y-98269737D01*
X186357379Y-98209394D01*
X186488489Y-98121789D01*
X186599989Y-98010289D01*
X186687594Y-97879179D01*
X186747937Y-97733497D01*
X186778700Y-97578842D01*
X186778700Y-97421158D01*
X186778700Y-97421155D01*
X186778699Y-97421153D01*
X186760823Y-97331284D01*
X186747937Y-97266503D01*
X186719794Y-97198559D01*
X186687597Y-97120827D01*
X186687590Y-97120814D01*
X186599989Y-96989711D01*
X186599986Y-96989707D01*
X186488492Y-96878213D01*
X186488488Y-96878210D01*
X186357385Y-96790609D01*
X186357372Y-96790602D01*
X186211701Y-96730264D01*
X186211689Y-96730261D01*
X186057045Y-96699500D01*
X186057042Y-96699500D01*
X185899358Y-96699500D01*
X185899355Y-96699500D01*
X185744710Y-96730261D01*
X185744698Y-96730264D01*
X185599027Y-96790602D01*
X185599014Y-96790609D01*
X185467911Y-96878210D01*
X185467907Y-96878213D01*
X185356413Y-96989707D01*
X185356410Y-96989711D01*
X185268809Y-97120814D01*
X185268802Y-97120827D01*
X185208464Y-97266498D01*
X185208461Y-97266508D01*
X185177562Y-97421848D01*
X185145177Y-97483759D01*
X185143626Y-97485337D01*
X184264084Y-98364881D01*
X184237156Y-98379584D01*
X184211338Y-98396177D01*
X184205137Y-98397068D01*
X184202761Y-98398366D01*
X184176403Y-98401200D01*
X184024000Y-98401200D01*
X183956961Y-98381515D01*
X183911206Y-98328711D01*
X183900000Y-98277200D01*
X183900000Y-97950000D01*
X182624000Y-97950000D01*
X182556961Y-97930315D01*
X182511206Y-97877511D01*
X182500000Y-97826000D01*
X182500000Y-97700000D01*
X182374000Y-97700000D01*
X182306961Y-97680315D01*
X182261206Y-97627511D01*
X182250000Y-97576000D01*
X182250000Y-96200000D01*
X181552155Y-96200000D01*
X181492627Y-96206401D01*
X181492620Y-96206403D01*
X181357913Y-96256645D01*
X181357906Y-96256649D01*
X181324726Y-96281488D01*
X181259262Y-96305905D01*
X181190989Y-96291053D01*
X181176106Y-96281488D01*
X181142331Y-96256204D01*
X181142328Y-96256202D01*
X181007482Y-96205908D01*
X181007483Y-96205908D01*
X180947883Y-96199501D01*
X180947881Y-96199500D01*
X180947873Y-96199500D01*
X180947864Y-96199500D01*
X179052129Y-96199500D01*
X179052123Y-96199501D01*
X178992516Y-96205908D01*
X178857671Y-96256202D01*
X178857669Y-96256203D01*
X178824310Y-96281176D01*
X178758845Y-96305592D01*
X178690572Y-96290740D01*
X178675690Y-96281176D01*
X178642330Y-96256203D01*
X178642328Y-96256202D01*
X178507482Y-96205908D01*
X178507483Y-96205908D01*
X178447883Y-96199501D01*
X178447881Y-96199500D01*
X178447873Y-96199500D01*
X178447865Y-96199500D01*
X178224500Y-96199500D01*
X178215814Y-96196949D01*
X178206853Y-96198238D01*
X178182812Y-96187259D01*
X178157461Y-96179815D01*
X178151533Y-96172974D01*
X178143297Y-96169213D01*
X178129007Y-96146978D01*
X178111706Y-96127011D01*
X178109418Y-96116496D01*
X178105523Y-96110435D01*
X178100500Y-96075500D01*
X178100500Y-95839060D01*
X178100501Y-95839047D01*
X178100501Y-95670944D01*
X178100501Y-95670943D01*
X178059577Y-95518216D01*
X178059576Y-95518215D01*
X178057473Y-95510365D01*
X178060498Y-95509554D01*
X178054608Y-95454792D01*
X178085879Y-95392311D01*
X178088958Y-95389119D01*
X178091585Y-95386491D01*
X178091589Y-95386489D01*
X178203089Y-95274989D01*
X178290694Y-95143879D01*
X178290695Y-95143876D01*
X178290697Y-95143873D01*
X178339269Y-95026608D01*
X178348903Y-95003346D01*
X178361445Y-94987782D01*
X178369751Y-94969597D01*
X178382920Y-94961133D01*
X178392743Y-94948944D01*
X178411712Y-94942630D01*
X178428529Y-94931823D01*
X178456088Y-94927860D01*
X178459037Y-94926879D01*
X178463464Y-94926800D01*
X178582152Y-94926800D01*
X178649191Y-94946485D01*
X178694946Y-94999289D01*
X178703769Y-95026608D01*
X178730261Y-95159791D01*
X178730264Y-95159801D01*
X178790602Y-95305472D01*
X178790609Y-95305485D01*
X178878210Y-95436588D01*
X178878213Y-95436592D01*
X178989707Y-95548086D01*
X178989711Y-95548089D01*
X179120814Y-95635690D01*
X179120827Y-95635697D01*
X179266498Y-95696035D01*
X179266503Y-95696037D01*
X179421153Y-95726799D01*
X179421156Y-95726800D01*
X179421158Y-95726800D01*
X179578844Y-95726800D01*
X179578845Y-95726799D01*
X179733497Y-95696037D01*
X179879179Y-95635694D01*
X179933663Y-95599289D01*
X180010875Y-95547698D01*
X180077553Y-95526820D01*
X180079766Y-95526800D01*
X183125500Y-95526800D01*
X183192539Y-95546485D01*
X183238294Y-95599289D01*
X183247715Y-95642597D01*
X183248903Y-95642481D01*
X183249499Y-95648543D01*
X183287947Y-95841829D01*
X183287950Y-95841839D01*
X183365287Y-96028548D01*
X183372756Y-96098017D01*
X183341481Y-96160496D01*
X183281392Y-96196148D01*
X183250726Y-96200000D01*
X182750000Y-96200000D01*
X182750000Y-97450000D01*
X183900000Y-97450000D01*
X183900000Y-96651576D01*
X183919685Y-96584537D01*
X183972489Y-96538782D01*
X184041647Y-96528838D01*
X184048192Y-96529959D01*
X184151456Y-96550500D01*
X184151459Y-96550500D01*
X184348543Y-96550500D01*
X184478582Y-96524632D01*
X184541835Y-96512051D01*
X184723914Y-96436632D01*
X184887782Y-96327139D01*
X185027139Y-96187782D01*
X185136632Y-96023914D01*
X185212051Y-95841835D01*
X185241052Y-95696038D01*
X185250500Y-95648543D01*
X185250500Y-95451456D01*
X185212051Y-95258165D01*
X185210807Y-95254064D01*
X185210179Y-95184197D01*
X185247424Y-95125082D01*
X185310716Y-95095488D01*
X185379961Y-95104809D01*
X185417146Y-95130381D01*
X186038181Y-95751416D01*
X186071666Y-95812739D01*
X186074500Y-95839097D01*
X186074500Y-95841154D01*
X186074500Y-95841156D01*
X186074499Y-95841156D01*
X186110065Y-96019952D01*
X186110068Y-96019962D01*
X186179831Y-96188387D01*
X186179833Y-96188391D01*
X186281113Y-96339967D01*
X186281119Y-96339975D01*
X186410024Y-96468880D01*
X186410032Y-96468886D01*
X186561608Y-96570166D01*
X186561612Y-96570168D01*
X186667361Y-96613970D01*
X186730042Y-96639933D01*
X186730046Y-96639933D01*
X186730047Y-96639934D01*
X186908843Y-96675500D01*
X186908846Y-96675500D01*
X187091156Y-96675500D01*
X187211445Y-96651572D01*
X187269958Y-96639933D01*
X187438389Y-96570167D01*
X187438391Y-96570166D01*
X187525369Y-96512049D01*
X187589972Y-96468883D01*
X187718883Y-96339972D01*
X187795145Y-96225838D01*
X187820166Y-96188391D01*
X187820168Y-96188387D01*
X187866927Y-96075500D01*
X187889933Y-96019958D01*
X187902420Y-95957185D01*
X187925500Y-95841156D01*
X187925500Y-95658843D01*
X187889934Y-95480047D01*
X187889933Y-95480046D01*
X187889933Y-95480042D01*
X187852272Y-95389119D01*
X187820169Y-95311615D01*
X187818482Y-95308459D01*
X187818097Y-95306613D01*
X187817836Y-95305982D01*
X187817955Y-95305932D01*
X187804236Y-95240057D01*
X187818482Y-95191541D01*
X187820163Y-95188394D01*
X187820167Y-95188389D01*
X187889933Y-95019958D01*
X187905315Y-94942630D01*
X187925500Y-94841156D01*
X187925500Y-94658843D01*
X187889934Y-94480047D01*
X187889933Y-94480046D01*
X187889933Y-94480042D01*
X187884892Y-94467874D01*
X187877424Y-94398406D01*
X187883272Y-94377088D01*
X187918597Y-94282376D01*
X187918598Y-94282372D01*
X187924999Y-94222844D01*
X187925000Y-94222827D01*
X187925000Y-94000000D01*
X187581016Y-94000000D01*
X187513977Y-93980315D01*
X187512157Y-93979123D01*
X187438389Y-93929833D01*
X187438388Y-93929832D01*
X187438386Y-93929831D01*
X187269962Y-93860068D01*
X187269952Y-93860065D01*
X187228429Y-93851805D01*
X187250000Y-93799728D01*
X187250000Y-93700272D01*
X187211940Y-93608386D01*
X187141614Y-93538060D01*
X187049728Y-93500000D01*
X187250000Y-93500000D01*
X187925000Y-93500000D01*
X187925000Y-93277172D01*
X187924999Y-93277155D01*
X187918598Y-93217627D01*
X187918596Y-93217620D01*
X187868354Y-93082913D01*
X187868350Y-93082906D01*
X187782190Y-92967812D01*
X187782187Y-92967809D01*
X187667093Y-92881649D01*
X187667086Y-92881645D01*
X187532379Y-92831403D01*
X187532372Y-92831401D01*
X187472844Y-92825000D01*
X187250000Y-92825000D01*
X187250000Y-93500000D01*
X187049728Y-93500000D01*
X186950272Y-93500000D01*
X186858386Y-93538060D01*
X186788060Y-93608386D01*
X186760593Y-93674696D01*
X186750000Y-93626000D01*
X186750000Y-92825000D01*
X186527155Y-92825000D01*
X186467627Y-92831401D01*
X186467620Y-92831403D01*
X186332913Y-92881645D01*
X186332910Y-92881647D01*
X186241711Y-92949919D01*
X186176246Y-92974336D01*
X186107974Y-92959484D01*
X186058568Y-92910079D01*
X186043400Y-92850652D01*
X186043400Y-89550983D01*
X186063085Y-89483944D01*
X186115889Y-89438189D01*
X186185047Y-89428245D01*
X186236294Y-89447883D01*
X186253516Y-89459391D01*
X186253527Y-89459397D01*
X186399198Y-89519735D01*
X186399203Y-89519737D01*
X186553853Y-89550499D01*
X186553856Y-89550500D01*
X186553858Y-89550500D01*
X186711544Y-89550500D01*
X186711545Y-89550499D01*
X186866197Y-89519737D01*
X187011879Y-89459394D01*
X187142989Y-89371789D01*
X187254489Y-89260289D01*
X187342094Y-89129179D01*
X187402437Y-88983497D01*
X187433200Y-88828842D01*
X187433200Y-88671158D01*
X187423658Y-88623188D01*
X187429884Y-88553600D01*
X187472746Y-88498422D01*
X187478665Y-88496333D01*
X187500000Y-88474998D01*
X187500000Y-87649000D01*
X187519685Y-87581961D01*
X187572489Y-87536206D01*
X187624000Y-87525000D01*
X187876000Y-87525000D01*
X187943039Y-87544685D01*
G37*
%TD.AperFunction*%
%TA.AperFunction,Conductor*%
G36*
X173009124Y-96282745D02*
G01*
X173043334Y-96285192D01*
X173043972Y-96285602D01*
X173044540Y-96285649D01*
X173075339Y-96302885D01*
X173081865Y-96307877D01*
X173096956Y-96322968D01*
X173120900Y-96337736D01*
X173125839Y-96341515D01*
X173142952Y-96364879D01*
X173162321Y-96386412D01*
X173163348Y-96392723D01*
X173167126Y-96397881D01*
X173174500Y-96440004D01*
X173174500Y-96674902D01*
X173154815Y-96741941D01*
X173138181Y-96762583D01*
X173119481Y-96781282D01*
X173119477Y-96781287D01*
X173102053Y-96811469D01*
X173102052Y-96811471D01*
X173040421Y-96918217D01*
X173040421Y-96918218D01*
X173037984Y-96927313D01*
X173005895Y-96982890D01*
X172978213Y-97010573D01*
X172978208Y-97010579D01*
X172890609Y-97141679D01*
X172890602Y-97141692D01*
X172830265Y-97287362D01*
X172830261Y-97287375D01*
X172799500Y-97442018D01*
X172799500Y-97455560D01*
X172779815Y-97522599D01*
X172727011Y-97568354D01*
X172657853Y-97578298D01*
X172638610Y-97573946D01*
X172502101Y-97531408D01*
X172431572Y-97525000D01*
X172425000Y-97525000D01*
X172425000Y-98376000D01*
X172405315Y-98443039D01*
X172352511Y-98488794D01*
X172301000Y-98500000D01*
X172049000Y-98500000D01*
X171981961Y-98480315D01*
X171936206Y-98427511D01*
X171925000Y-98376000D01*
X171925000Y-97525000D01*
X171924999Y-97524999D01*
X171918436Y-97525000D01*
X171885826Y-97527963D01*
X171817281Y-97514424D01*
X171766936Y-97465976D01*
X171750609Y-97404475D01*
X171750605Y-96592271D01*
X171770289Y-96525235D01*
X171823093Y-96479480D01*
X171887208Y-96468916D01*
X171951655Y-96475500D01*
X172498344Y-96475499D01*
X172498352Y-96475498D01*
X172498355Y-96475498D01*
X172552760Y-96469940D01*
X172597708Y-96465349D01*
X172758697Y-96412003D01*
X172903044Y-96322968D01*
X172912319Y-96313693D01*
X172912907Y-96313371D01*
X172913236Y-96312785D01*
X172943555Y-96296636D01*
X172973642Y-96280208D01*
X172974310Y-96280255D01*
X172974904Y-96279940D01*
X173009124Y-96282745D01*
G37*
%TD.AperFunction*%
%TA.AperFunction,Conductor*%
G36*
X174366266Y-92221025D02*
G01*
X174397459Y-92283546D01*
X174399400Y-92305402D01*
X174399400Y-93527230D01*
X174399399Y-93527248D01*
X174399399Y-93692954D01*
X174399398Y-93692954D01*
X174440323Y-93845685D01*
X174467423Y-93892623D01*
X174479026Y-93912720D01*
X174495499Y-93980620D01*
X174472646Y-94046647D01*
X174459320Y-94062401D01*
X174433113Y-94088607D01*
X174433110Y-94088611D01*
X174345509Y-94219714D01*
X174345502Y-94219727D01*
X174285164Y-94365398D01*
X174285161Y-94365408D01*
X174271435Y-94434413D01*
X174239049Y-94496324D01*
X174178333Y-94530898D01*
X174137216Y-94533579D01*
X174048347Y-94524500D01*
X173501662Y-94524500D01*
X173501644Y-94524501D01*
X173402292Y-94534650D01*
X173402289Y-94534651D01*
X173241305Y-94587996D01*
X173241294Y-94588001D01*
X173096959Y-94677029D01*
X173096953Y-94677033D01*
X173087678Y-94686309D01*
X173087091Y-94686629D01*
X173086764Y-94687214D01*
X173056449Y-94703359D01*
X173026354Y-94719792D01*
X173025686Y-94719744D01*
X173025096Y-94720059D01*
X172990851Y-94717251D01*
X172956662Y-94714805D01*
X172955904Y-94714386D01*
X172955460Y-94714350D01*
X172953305Y-94712949D01*
X172924661Y-94697114D01*
X172918130Y-94692118D01*
X172903044Y-94677032D01*
X172879104Y-94662265D01*
X172874161Y-94658484D01*
X172857044Y-94635116D01*
X172837677Y-94613582D01*
X172836060Y-94606468D01*
X172832874Y-94602118D01*
X172832066Y-94588890D01*
X172825500Y-94559995D01*
X172825500Y-93112597D01*
X172845185Y-93045558D01*
X172861819Y-93024916D01*
X173624917Y-92261819D01*
X173686240Y-92228334D01*
X173712598Y-92225500D01*
X174054169Y-92225500D01*
X174054174Y-92225500D01*
X174152685Y-92215436D01*
X174236398Y-92187695D01*
X174306224Y-92185294D01*
X174366266Y-92221025D01*
G37*
%TD.AperFunction*%
%TA.AperFunction,Conductor*%
G36*
X178506215Y-86620185D02*
G01*
X178551970Y-86672989D01*
X178561914Y-86742147D01*
X178532889Y-86805703D01*
X178497629Y-86833858D01*
X178198224Y-86993893D01*
X178198206Y-86993904D01*
X177912248Y-87184975D01*
X177912234Y-87184985D01*
X177646367Y-87403176D01*
X177403176Y-87646367D01*
X177184985Y-87912234D01*
X177184975Y-87912248D01*
X176993904Y-88198206D01*
X176993893Y-88198224D01*
X176831772Y-88501530D01*
X176831770Y-88501535D01*
X176700150Y-88819293D01*
X176600308Y-89148427D01*
X176533210Y-89485750D01*
X176499500Y-89828034D01*
X176499500Y-90171965D01*
X176533210Y-90514249D01*
X176600308Y-90851572D01*
X176700150Y-91180706D01*
X176831770Y-91498464D01*
X176831772Y-91498469D01*
X176993893Y-91801775D01*
X176993904Y-91801793D01*
X177144165Y-92026675D01*
X177165043Y-92093353D01*
X177146558Y-92160733D01*
X177094579Y-92207423D01*
X177025609Y-92218599D01*
X176961546Y-92190713D01*
X176953382Y-92183247D01*
X176038419Y-91268284D01*
X176004934Y-91206961D01*
X176002100Y-91180603D01*
X176002100Y-89778765D01*
X176021785Y-89711726D01*
X176022998Y-89709874D01*
X176110990Y-89578185D01*
X176110990Y-89578184D01*
X176110994Y-89578179D01*
X176171337Y-89432497D01*
X176202100Y-89277842D01*
X176202100Y-89120158D01*
X176202100Y-89120155D01*
X176202099Y-89120153D01*
X176174916Y-88983497D01*
X176171337Y-88965503D01*
X176154811Y-88925606D01*
X176110997Y-88819827D01*
X176110990Y-88819814D01*
X176023389Y-88688711D01*
X176023386Y-88688707D01*
X175911892Y-88577213D01*
X175911888Y-88577210D01*
X175780785Y-88489609D01*
X175780772Y-88489602D01*
X175635101Y-88429264D01*
X175635089Y-88429261D01*
X175480445Y-88398500D01*
X175480442Y-88398500D01*
X175426924Y-88398500D01*
X175359885Y-88378815D01*
X175314130Y-88326011D01*
X175304186Y-88256853D01*
X175305666Y-88250235D01*
X175305349Y-88250172D01*
X175337299Y-88089546D01*
X175337300Y-88089544D01*
X175337300Y-87931855D01*
X175337299Y-87931853D01*
X175333398Y-87912240D01*
X175306537Y-87777203D01*
X175306535Y-87777198D01*
X175246197Y-87631527D01*
X175246190Y-87631514D01*
X175158198Y-87499825D01*
X175137320Y-87433147D01*
X175137300Y-87430934D01*
X175137300Y-86986897D01*
X175156985Y-86919858D01*
X175173619Y-86899216D01*
X175436016Y-86636819D01*
X175497339Y-86603334D01*
X175523697Y-86600500D01*
X178439176Y-86600500D01*
X178506215Y-86620185D01*
G37*
%TD.AperFunction*%
%TA.AperFunction,Conductor*%
G36*
X171951684Y-87224999D02*
G01*
X171999237Y-87224999D01*
X172066276Y-87244682D01*
X172112032Y-87297485D01*
X172121977Y-87366644D01*
X172104779Y-87414094D01*
X172088000Y-87441298D01*
X172087996Y-87441305D01*
X172034651Y-87602290D01*
X172024500Y-87701647D01*
X172024500Y-88248337D01*
X172024501Y-88248355D01*
X172034650Y-88347707D01*
X172034651Y-88347710D01*
X172087996Y-88508694D01*
X172088001Y-88508705D01*
X172172318Y-88645403D01*
X172190759Y-88712795D01*
X172169837Y-88779459D01*
X172116195Y-88824229D01*
X172066780Y-88834500D01*
X171933553Y-88834500D01*
X171898760Y-88841421D01*
X171829168Y-88835194D01*
X171773991Y-88792331D01*
X171750747Y-88726441D01*
X171750569Y-88719805D01*
X171750569Y-88623192D01*
X171750563Y-87341763D01*
X171770246Y-87274727D01*
X171823050Y-87228972D01*
X171887166Y-87218408D01*
X171951684Y-87224999D01*
G37*
%TD.AperFunction*%
%TA.AperFunction,Conductor*%
G36*
X187684084Y-80750568D02*
G01*
X187684090Y-80750570D01*
X187743022Y-80750569D01*
X187756896Y-80751348D01*
X187770008Y-80752825D01*
X187847249Y-80761526D01*
X187874318Y-80767705D01*
X187953514Y-80795417D01*
X187978529Y-80807463D01*
X188049577Y-80852104D01*
X188071288Y-80869417D01*
X188130620Y-80928748D01*
X188147933Y-80950458D01*
X188192573Y-81021502D01*
X188204620Y-81046518D01*
X188232333Y-81125715D01*
X188238512Y-81152787D01*
X188248682Y-81243051D01*
X188248691Y-81243126D01*
X188249471Y-81256960D01*
X188249471Y-81315942D01*
X188249494Y-81316031D01*
X188249498Y-81324124D01*
X188249495Y-81324132D01*
X188249498Y-81324174D01*
X188249485Y-84907735D01*
X188229800Y-84974775D01*
X188176996Y-85020530D01*
X188112883Y-85031093D01*
X188048347Y-85024500D01*
X187451662Y-85024500D01*
X187451644Y-85024501D01*
X187352292Y-85034650D01*
X187352289Y-85034651D01*
X187191305Y-85087996D01*
X187191300Y-85087998D01*
X187065097Y-85165842D01*
X186997704Y-85184282D01*
X186934903Y-85165842D01*
X186808699Y-85087998D01*
X186808694Y-85087996D01*
X186647709Y-85034651D01*
X186548346Y-85024500D01*
X185951662Y-85024500D01*
X185951644Y-85024501D01*
X185852292Y-85034650D01*
X185852289Y-85034651D01*
X185691305Y-85087996D01*
X185691294Y-85088001D01*
X185546959Y-85177029D01*
X185546955Y-85177032D01*
X185427032Y-85296955D01*
X185427029Y-85296959D01*
X185338001Y-85441294D01*
X185337996Y-85441305D01*
X185284651Y-85602290D01*
X185274500Y-85701647D01*
X185274500Y-86049901D01*
X185265855Y-86079341D01*
X185259332Y-86109328D01*
X185255577Y-86114343D01*
X185254815Y-86116940D01*
X185238185Y-86137577D01*
X185074186Y-86301578D01*
X185074185Y-86301578D01*
X185074184Y-86301579D01*
X184962381Y-86413382D01*
X184962379Y-86413385D01*
X184924072Y-86479734D01*
X184924055Y-86479765D01*
X184922890Y-86481784D01*
X184883323Y-86550315D01*
X184879693Y-86563861D01*
X184873195Y-86576180D01*
X184858154Y-86591658D01*
X184846919Y-86610087D01*
X184834287Y-86616221D01*
X184824504Y-86626290D01*
X184803486Y-86631179D01*
X184784069Y-86640609D01*
X184770125Y-86638940D01*
X184756452Y-86642121D01*
X184736126Y-86634871D01*
X184714694Y-86632306D01*
X184698831Y-86621568D01*
X184690644Y-86618648D01*
X184686412Y-86613161D01*
X184675839Y-86606004D01*
X183708190Y-85638355D01*
X183708188Y-85638352D01*
X183589317Y-85519481D01*
X183589316Y-85519480D01*
X183502504Y-85469360D01*
X183502504Y-85469359D01*
X183502500Y-85469358D01*
X183452385Y-85440423D01*
X183299657Y-85399499D01*
X183141543Y-85399499D01*
X183133947Y-85399499D01*
X183133931Y-85399500D01*
X181306894Y-85399500D01*
X181239855Y-85379815D01*
X181194100Y-85327011D01*
X181184156Y-85257853D01*
X181213181Y-85194297D01*
X181232582Y-85176234D01*
X181257546Y-85157546D01*
X181343796Y-85042331D01*
X181394091Y-84907483D01*
X181400500Y-84847873D01*
X181400499Y-82752128D01*
X181394091Y-82692517D01*
X181393164Y-82690032D01*
X181390233Y-82682171D01*
X181375889Y-82643713D01*
X184899500Y-82643713D01*
X184899500Y-82856286D01*
X184932753Y-83066239D01*
X184998444Y-83268414D01*
X185094951Y-83457820D01*
X185219890Y-83629786D01*
X185370213Y-83780109D01*
X185542179Y-83905048D01*
X185542181Y-83905049D01*
X185542184Y-83905051D01*
X185731588Y-84001557D01*
X185933757Y-84067246D01*
X186143713Y-84100500D01*
X186143714Y-84100500D01*
X186356286Y-84100500D01*
X186356287Y-84100500D01*
X186566243Y-84067246D01*
X186768412Y-84001557D01*
X186957816Y-83905051D01*
X186979789Y-83889086D01*
X187129786Y-83780109D01*
X187129788Y-83780106D01*
X187129792Y-83780104D01*
X187280104Y-83629792D01*
X187280106Y-83629788D01*
X187280109Y-83629786D01*
X187405048Y-83457820D01*
X187405047Y-83457820D01*
X187405051Y-83457816D01*
X187501557Y-83268412D01*
X187567246Y-83066243D01*
X187600500Y-82856287D01*
X187600500Y-82643713D01*
X187567246Y-82433757D01*
X187501557Y-82231588D01*
X187405051Y-82042184D01*
X187405049Y-82042181D01*
X187405048Y-82042179D01*
X187280109Y-81870213D01*
X187129786Y-81719890D01*
X186957820Y-81594951D01*
X186768414Y-81498444D01*
X186768413Y-81498443D01*
X186768412Y-81498443D01*
X186566243Y-81432754D01*
X186566241Y-81432753D01*
X186566240Y-81432753D01*
X186404957Y-81407208D01*
X186356287Y-81399500D01*
X186143713Y-81399500D01*
X186095042Y-81407208D01*
X185933760Y-81432753D01*
X185731585Y-81498444D01*
X185542179Y-81594951D01*
X185370213Y-81719890D01*
X185219890Y-81870213D01*
X185094951Y-82042179D01*
X184998444Y-82231585D01*
X184932753Y-82433760D01*
X184899500Y-82643713D01*
X181375889Y-82643713D01*
X181343797Y-82557671D01*
X181343793Y-82557664D01*
X181257547Y-82442455D01*
X181257544Y-82442452D01*
X181142335Y-82356206D01*
X181142328Y-82356202D01*
X181007482Y-82305908D01*
X181007483Y-82305908D01*
X180947883Y-82299501D01*
X180947881Y-82299500D01*
X180947873Y-82299500D01*
X180947864Y-82299500D01*
X179052129Y-82299500D01*
X179052123Y-82299501D01*
X178992516Y-82305908D01*
X178857671Y-82356202D01*
X178857664Y-82356206D01*
X178742455Y-82442452D01*
X178742452Y-82442455D01*
X178656206Y-82557664D01*
X178656202Y-82557671D01*
X178605908Y-82692517D01*
X178599501Y-82752116D01*
X178599501Y-82752123D01*
X178599500Y-82752135D01*
X178599500Y-84847870D01*
X178599501Y-84847876D01*
X178605908Y-84907483D01*
X178656202Y-85042328D01*
X178656206Y-85042335D01*
X178742452Y-85157544D01*
X178742453Y-85157544D01*
X178742454Y-85157546D01*
X178753536Y-85165842D01*
X178767418Y-85176234D01*
X178809288Y-85232168D01*
X178814272Y-85301860D01*
X178780786Y-85363182D01*
X178719462Y-85396667D01*
X178693106Y-85399500D01*
X178389500Y-85399500D01*
X178322461Y-85379815D01*
X178276706Y-85327011D01*
X178265500Y-85275500D01*
X178265500Y-85240955D01*
X178265499Y-85240953D01*
X178252784Y-85177032D01*
X178234737Y-85086303D01*
X178234735Y-85086298D01*
X178174397Y-84940627D01*
X178174390Y-84940614D01*
X178086789Y-84809511D01*
X178086786Y-84809507D01*
X177975292Y-84698013D01*
X177975288Y-84698010D01*
X177844185Y-84610409D01*
X177844172Y-84610402D01*
X177698501Y-84550064D01*
X177698489Y-84550061D01*
X177543845Y-84519300D01*
X177543842Y-84519300D01*
X177386158Y-84519300D01*
X177386155Y-84519300D01*
X177231510Y-84550061D01*
X177231498Y-84550064D01*
X177085827Y-84610402D01*
X177085814Y-84610409D01*
X176953976Y-84698502D01*
X176887299Y-84719380D01*
X176885085Y-84719400D01*
X173542069Y-84719400D01*
X173542053Y-84719399D01*
X173534457Y-84719399D01*
X173376343Y-84719399D01*
X173268987Y-84748165D01*
X173223610Y-84760324D01*
X173223609Y-84760325D01*
X173173496Y-84789259D01*
X173173495Y-84789260D01*
X173138426Y-84809507D01*
X173086685Y-84839379D01*
X173086682Y-84839381D01*
X172974878Y-84951186D01*
X172678570Y-85247493D01*
X172617247Y-85280978D01*
X172578286Y-85283170D01*
X172498322Y-85275000D01*
X172475000Y-85275000D01*
X172475000Y-85450400D01*
X172458387Y-85512400D01*
X172440423Y-85543515D01*
X172399499Y-85696243D01*
X172399499Y-85696245D01*
X172399499Y-85864346D01*
X172399500Y-85864359D01*
X172399500Y-86126000D01*
X172396949Y-86134685D01*
X172398238Y-86143647D01*
X172387259Y-86167687D01*
X172379815Y-86193039D01*
X172372974Y-86198966D01*
X172369213Y-86207203D01*
X172346978Y-86221492D01*
X172327011Y-86238794D01*
X172316496Y-86241081D01*
X172310435Y-86244977D01*
X172275500Y-86250000D01*
X172099000Y-86250000D01*
X172031961Y-86230315D01*
X171986206Y-86177511D01*
X171975000Y-86126000D01*
X171975000Y-85274999D01*
X171951693Y-85275000D01*
X171951669Y-85275002D01*
X171887153Y-85281592D01*
X171818460Y-85268822D01*
X171767577Y-85220940D01*
X171750553Y-85158235D01*
X171750552Y-85042335D01*
X171750542Y-82643713D01*
X172399500Y-82643713D01*
X172399500Y-82856286D01*
X172432753Y-83066239D01*
X172498444Y-83268414D01*
X172594951Y-83457820D01*
X172719890Y-83629786D01*
X172870213Y-83780109D01*
X173042179Y-83905048D01*
X173042181Y-83905049D01*
X173042184Y-83905051D01*
X173231588Y-84001557D01*
X173433757Y-84067246D01*
X173643713Y-84100500D01*
X173643714Y-84100500D01*
X173856286Y-84100500D01*
X173856287Y-84100500D01*
X174066243Y-84067246D01*
X174268412Y-84001557D01*
X174457816Y-83905051D01*
X174479789Y-83889086D01*
X174629786Y-83780109D01*
X174629788Y-83780106D01*
X174629792Y-83780104D01*
X174780104Y-83629792D01*
X174780106Y-83629788D01*
X174780109Y-83629786D01*
X174905048Y-83457820D01*
X174905047Y-83457820D01*
X174905051Y-83457816D01*
X175001557Y-83268412D01*
X175067246Y-83066243D01*
X175100500Y-82856287D01*
X175100500Y-82643713D01*
X175067246Y-82433757D01*
X175001557Y-82231588D01*
X174905051Y-82042184D01*
X174905049Y-82042181D01*
X174905048Y-82042179D01*
X174780109Y-81870213D01*
X174629786Y-81719890D01*
X174457820Y-81594951D01*
X174268414Y-81498444D01*
X174268413Y-81498443D01*
X174268412Y-81498443D01*
X174066243Y-81432754D01*
X174066241Y-81432753D01*
X174066240Y-81432753D01*
X173904957Y-81407208D01*
X173856287Y-81399500D01*
X173643713Y-81399500D01*
X173595042Y-81407208D01*
X173433760Y-81432753D01*
X173231585Y-81498444D01*
X173042179Y-81594951D01*
X172870213Y-81719890D01*
X172719890Y-81870213D01*
X172594951Y-82042179D01*
X172498444Y-82231585D01*
X172432753Y-82433760D01*
X172399500Y-82643713D01*
X171750542Y-82643713D01*
X171750536Y-81256934D01*
X171751316Y-81243051D01*
X171761486Y-81152787D01*
X171761495Y-81152706D01*
X171767671Y-81125646D01*
X171795389Y-81046435D01*
X171807429Y-81021431D01*
X171852082Y-80950367D01*
X171869387Y-80928668D01*
X171928726Y-80869329D01*
X171950425Y-80852024D01*
X172021489Y-80807371D01*
X172046493Y-80795331D01*
X172125704Y-80767613D01*
X172152764Y-80761437D01*
X172242916Y-80751279D01*
X172256797Y-80750500D01*
X187684084Y-80750568D01*
G37*
%TD.AperFunction*%
%TD*%
M02*
