M48
; DRILL file KiCad 10.0.3 date 2026-06-25T13:47:20
; FORMAT={-:-/ absolute / metric / decimal}
; #@! TF.CreationDate,2026-06-25T13:47:20+09:00
; #@! TF.GenerationSoftware,Kicad,Pcbnew,10.0.3
; #@! TF.FileFunction,Plated,1,2,PTH
FMAT,2
METRIC
; #@! TA.AperFunction,Plated,PTH,ViaDrill
T1C0.300
; #@! TA.AperFunction,Plated,PTH,ComponentDrill
T2C0.500
%
G90
G05
T1
X172.012Y-89.635
X173.6Y-97.521
X173.996Y-90.207
X174.537Y-88.011
X175.055Y-94.599
X175.402Y-89.199
X175.863Y-94.44
X175.946Y-98.281
X176.022Y-88.678
X176.731Y-91.91
X177.465Y-85.32
X177.581Y-94.765
X177.738Y-93.561
X179.5Y-94.926
X182.325Y-94.326
X182.697Y-86.75
X183.963Y-97.805
X184.75Y-93.475
X185.267Y-88.047
X185.978Y-97.5
X186.633Y-88.75
T2
X187.0Y-93.75
X187.0Y-94.75
X187.0Y-95.75
M30
