%TF.GenerationSoftware,KiCad,Pcbnew,10.0.3*%
%TF.CreationDate,2026-06-25T14:26:17+09:00*%
%TF.ProjectId,elephant_robot_posision_sensor,656c6570-6861-46e7-945f-726f626f745f,rev?*%
%TF.SameCoordinates,Original*%
%TF.FileFunction,Legend,Top*%
%TF.FilePolarity,Positive*%
%FSLAX46Y46*%
G04 Gerber Fmt 4.6, Leading zero omitted, Abs format (unit mm)*
G04 Created by KiCad (PCBNEW 10.0.3) date 2026-06-25 14:26:17*
%MOMM*%
%LPD*%
G01*
G04 APERTURE LIST*
%ADD10C,0.100000*%
%ADD11C,0.120000*%
G04 APERTURE END LIST*
D10*
X175649122Y-81045304D02*
X175649122Y-81450066D01*
X175649122Y-81450066D02*
X175625312Y-81497685D01*
X175625312Y-81497685D02*
X175601503Y-81521494D01*
X175601503Y-81521494D02*
X175553884Y-81545304D01*
X175553884Y-81545304D02*
X175482455Y-81545304D01*
X175482455Y-81545304D02*
X175434836Y-81521494D01*
X175649122Y-81354828D02*
X175601503Y-81378637D01*
X175601503Y-81378637D02*
X175506265Y-81378637D01*
X175506265Y-81378637D02*
X175458646Y-81354828D01*
X175458646Y-81354828D02*
X175434836Y-81331018D01*
X175434836Y-81331018D02*
X175411027Y-81283399D01*
X175411027Y-81283399D02*
X175411027Y-81140542D01*
X175411027Y-81140542D02*
X175434836Y-81092923D01*
X175434836Y-81092923D02*
X175458646Y-81069113D01*
X175458646Y-81069113D02*
X175506265Y-81045304D01*
X175506265Y-81045304D02*
X175601503Y-81045304D01*
X175601503Y-81045304D02*
X175649122Y-81069113D01*
X175887217Y-81378637D02*
X175887217Y-81045304D01*
X175887217Y-80878637D02*
X175863408Y-80902447D01*
X175863408Y-80902447D02*
X175887217Y-80926256D01*
X175887217Y-80926256D02*
X175911027Y-80902447D01*
X175911027Y-80902447D02*
X175887217Y-80878637D01*
X175887217Y-80878637D02*
X175887217Y-80926256D01*
X176053884Y-81045304D02*
X176244360Y-81045304D01*
X176125312Y-80878637D02*
X176125312Y-81307208D01*
X176125312Y-81307208D02*
X176149122Y-81354828D01*
X176149122Y-81354828D02*
X176196741Y-81378637D01*
X176196741Y-81378637D02*
X176244360Y-81378637D01*
X176411026Y-81378637D02*
X176411026Y-80878637D01*
X176625312Y-81378637D02*
X176625312Y-81116732D01*
X176625312Y-81116732D02*
X176601502Y-81069113D01*
X176601502Y-81069113D02*
X176553883Y-81045304D01*
X176553883Y-81045304D02*
X176482455Y-81045304D01*
X176482455Y-81045304D02*
X176434836Y-81069113D01*
X176434836Y-81069113D02*
X176411026Y-81092923D01*
X177077693Y-81045304D02*
X177077693Y-81378637D01*
X176863407Y-81045304D02*
X176863407Y-81307208D01*
X176863407Y-81307208D02*
X176887217Y-81354828D01*
X176887217Y-81354828D02*
X176934836Y-81378637D01*
X176934836Y-81378637D02*
X177006264Y-81378637D01*
X177006264Y-81378637D02*
X177053883Y-81354828D01*
X177053883Y-81354828D02*
X177077693Y-81331018D01*
X177315788Y-81378637D02*
X177315788Y-80878637D01*
X177315788Y-81069113D02*
X177363407Y-81045304D01*
X177363407Y-81045304D02*
X177458645Y-81045304D01*
X177458645Y-81045304D02*
X177506264Y-81069113D01*
X177506264Y-81069113D02*
X177530074Y-81092923D01*
X177530074Y-81092923D02*
X177553883Y-81140542D01*
X177553883Y-81140542D02*
X177553883Y-81283399D01*
X177553883Y-81283399D02*
X177530074Y-81331018D01*
X177530074Y-81331018D02*
X177506264Y-81354828D01*
X177506264Y-81354828D02*
X177458645Y-81378637D01*
X177458645Y-81378637D02*
X177363407Y-81378637D01*
X177363407Y-81378637D02*
X177315788Y-81354828D01*
X177768169Y-81331018D02*
X177791979Y-81354828D01*
X177791979Y-81354828D02*
X177768169Y-81378637D01*
X177768169Y-81378637D02*
X177744360Y-81354828D01*
X177744360Y-81354828D02*
X177768169Y-81331018D01*
X177768169Y-81331018D02*
X177768169Y-81378637D01*
X178220550Y-81354828D02*
X178172931Y-81378637D01*
X178172931Y-81378637D02*
X178077693Y-81378637D01*
X178077693Y-81378637D02*
X178030074Y-81354828D01*
X178030074Y-81354828D02*
X178006264Y-81331018D01*
X178006264Y-81331018D02*
X177982455Y-81283399D01*
X177982455Y-81283399D02*
X177982455Y-81140542D01*
X177982455Y-81140542D02*
X178006264Y-81092923D01*
X178006264Y-81092923D02*
X178030074Y-81069113D01*
X178030074Y-81069113D02*
X178077693Y-81045304D01*
X178077693Y-81045304D02*
X178172931Y-81045304D01*
X178172931Y-81045304D02*
X178220550Y-81069113D01*
X178506264Y-81378637D02*
X178458645Y-81354828D01*
X178458645Y-81354828D02*
X178434835Y-81331018D01*
X178434835Y-81331018D02*
X178411026Y-81283399D01*
X178411026Y-81283399D02*
X178411026Y-81140542D01*
X178411026Y-81140542D02*
X178434835Y-81092923D01*
X178434835Y-81092923D02*
X178458645Y-81069113D01*
X178458645Y-81069113D02*
X178506264Y-81045304D01*
X178506264Y-81045304D02*
X178577692Y-81045304D01*
X178577692Y-81045304D02*
X178625311Y-81069113D01*
X178625311Y-81069113D02*
X178649121Y-81092923D01*
X178649121Y-81092923D02*
X178672930Y-81140542D01*
X178672930Y-81140542D02*
X178672930Y-81283399D01*
X178672930Y-81283399D02*
X178649121Y-81331018D01*
X178649121Y-81331018D02*
X178625311Y-81354828D01*
X178625311Y-81354828D02*
X178577692Y-81378637D01*
X178577692Y-81378637D02*
X178506264Y-81378637D01*
X178887216Y-81378637D02*
X178887216Y-81045304D01*
X178887216Y-81092923D02*
X178911026Y-81069113D01*
X178911026Y-81069113D02*
X178958645Y-81045304D01*
X178958645Y-81045304D02*
X179030073Y-81045304D01*
X179030073Y-81045304D02*
X179077692Y-81069113D01*
X179077692Y-81069113D02*
X179101502Y-81116732D01*
X179101502Y-81116732D02*
X179101502Y-81378637D01*
X179101502Y-81116732D02*
X179125311Y-81069113D01*
X179125311Y-81069113D02*
X179172930Y-81045304D01*
X179172930Y-81045304D02*
X179244359Y-81045304D01*
X179244359Y-81045304D02*
X179291978Y-81069113D01*
X179291978Y-81069113D02*
X179315788Y-81116732D01*
X179315788Y-81116732D02*
X179315788Y-81378637D01*
X179911026Y-80854828D02*
X179482455Y-81497685D01*
X175411027Y-82040752D02*
X175649122Y-82040752D01*
X175363408Y-82183609D02*
X175530074Y-81683609D01*
X175530074Y-81683609D02*
X175696741Y-82183609D01*
X175839598Y-82040752D02*
X176077693Y-82040752D01*
X175791979Y-82183609D02*
X175958645Y-81683609D01*
X175958645Y-81683609D02*
X176125312Y-82183609D01*
X176291978Y-82183609D02*
X176291978Y-81683609D01*
X176577692Y-82183609D02*
X176363407Y-81897895D01*
X176577692Y-81683609D02*
X176291978Y-81969323D01*
X176791978Y-82183609D02*
X176791978Y-81683609D01*
X177077692Y-82183609D02*
X176863407Y-81897895D01*
X177077692Y-81683609D02*
X176791978Y-81969323D01*
X177387216Y-81683609D02*
X177434835Y-81683609D01*
X177434835Y-81683609D02*
X177482454Y-81707419D01*
X177482454Y-81707419D02*
X177506264Y-81731228D01*
X177506264Y-81731228D02*
X177530073Y-81778847D01*
X177530073Y-81778847D02*
X177553883Y-81874085D01*
X177553883Y-81874085D02*
X177553883Y-81993133D01*
X177553883Y-81993133D02*
X177530073Y-82088371D01*
X177530073Y-82088371D02*
X177506264Y-82135990D01*
X177506264Y-82135990D02*
X177482454Y-82159800D01*
X177482454Y-82159800D02*
X177434835Y-82183609D01*
X177434835Y-82183609D02*
X177387216Y-82183609D01*
X177387216Y-82183609D02*
X177339597Y-82159800D01*
X177339597Y-82159800D02*
X177315788Y-82135990D01*
X177315788Y-82135990D02*
X177291978Y-82088371D01*
X177291978Y-82088371D02*
X177268169Y-81993133D01*
X177268169Y-81993133D02*
X177268169Y-81874085D01*
X177268169Y-81874085D02*
X177291978Y-81778847D01*
X177291978Y-81778847D02*
X177315788Y-81731228D01*
X177315788Y-81731228D02*
X177339597Y-81707419D01*
X177339597Y-81707419D02*
X177387216Y-81683609D01*
X177863406Y-81683609D02*
X177911025Y-81683609D01*
X177911025Y-81683609D02*
X177958644Y-81707419D01*
X177958644Y-81707419D02*
X177982454Y-81731228D01*
X177982454Y-81731228D02*
X178006263Y-81778847D01*
X178006263Y-81778847D02*
X178030073Y-81874085D01*
X178030073Y-81874085D02*
X178030073Y-81993133D01*
X178030073Y-81993133D02*
X178006263Y-82088371D01*
X178006263Y-82088371D02*
X177982454Y-82135990D01*
X177982454Y-82135990D02*
X177958644Y-82159800D01*
X177958644Y-82159800D02*
X177911025Y-82183609D01*
X177911025Y-82183609D02*
X177863406Y-82183609D01*
X177863406Y-82183609D02*
X177815787Y-82159800D01*
X177815787Y-82159800D02*
X177791978Y-82135990D01*
X177791978Y-82135990D02*
X177768168Y-82088371D01*
X177768168Y-82088371D02*
X177744359Y-81993133D01*
X177744359Y-81993133D02*
X177744359Y-81874085D01*
X177744359Y-81874085D02*
X177768168Y-81778847D01*
X177768168Y-81778847D02*
X177791978Y-81731228D01*
X177791978Y-81731228D02*
X177815787Y-81707419D01*
X177815787Y-81707419D02*
X177863406Y-81683609D01*
X178601501Y-81659800D02*
X178172930Y-82302657D01*
X178768168Y-82183609D02*
X178768168Y-81683609D01*
X178768168Y-81683609D02*
X178958644Y-81683609D01*
X178958644Y-81683609D02*
X179006263Y-81707419D01*
X179006263Y-81707419D02*
X179030073Y-81731228D01*
X179030073Y-81731228D02*
X179053882Y-81778847D01*
X179053882Y-81778847D02*
X179053882Y-81850276D01*
X179053882Y-81850276D02*
X179030073Y-81897895D01*
X179030073Y-81897895D02*
X179006263Y-81921704D01*
X179006263Y-81921704D02*
X178958644Y-81945514D01*
X178958644Y-81945514D02*
X178768168Y-81945514D01*
X179244359Y-82159800D02*
X179315787Y-82183609D01*
X179315787Y-82183609D02*
X179434835Y-82183609D01*
X179434835Y-82183609D02*
X179482454Y-82159800D01*
X179482454Y-82159800D02*
X179506263Y-82135990D01*
X179506263Y-82135990D02*
X179530073Y-82088371D01*
X179530073Y-82088371D02*
X179530073Y-82040752D01*
X179530073Y-82040752D02*
X179506263Y-81993133D01*
X179506263Y-81993133D02*
X179482454Y-81969323D01*
X179482454Y-81969323D02*
X179434835Y-81945514D01*
X179434835Y-81945514D02*
X179339597Y-81921704D01*
X179339597Y-81921704D02*
X179291978Y-81897895D01*
X179291978Y-81897895D02*
X179268168Y-81874085D01*
X179268168Y-81874085D02*
X179244359Y-81826466D01*
X179244359Y-81826466D02*
X179244359Y-81778847D01*
X179244359Y-81778847D02*
X179268168Y-81731228D01*
X179268168Y-81731228D02*
X179291978Y-81707419D01*
X179291978Y-81707419D02*
X179339597Y-81683609D01*
X179339597Y-81683609D02*
X179458644Y-81683609D01*
X179458644Y-81683609D02*
X179530073Y-81707419D01*
X179958644Y-81850276D02*
X179958644Y-82183609D01*
X179839596Y-81659800D02*
X179720549Y-82016942D01*
X179720549Y-82016942D02*
X180030072Y-82016942D01*
X180291977Y-81897895D02*
X180244358Y-81874085D01*
X180244358Y-81874085D02*
X180220548Y-81850276D01*
X180220548Y-81850276D02*
X180196739Y-81802657D01*
X180196739Y-81802657D02*
X180196739Y-81778847D01*
X180196739Y-81778847D02*
X180220548Y-81731228D01*
X180220548Y-81731228D02*
X180244358Y-81707419D01*
X180244358Y-81707419D02*
X180291977Y-81683609D01*
X180291977Y-81683609D02*
X180387215Y-81683609D01*
X180387215Y-81683609D02*
X180434834Y-81707419D01*
X180434834Y-81707419D02*
X180458643Y-81731228D01*
X180458643Y-81731228D02*
X180482453Y-81778847D01*
X180482453Y-81778847D02*
X180482453Y-81802657D01*
X180482453Y-81802657D02*
X180458643Y-81850276D01*
X180458643Y-81850276D02*
X180434834Y-81874085D01*
X180434834Y-81874085D02*
X180387215Y-81897895D01*
X180387215Y-81897895D02*
X180291977Y-81897895D01*
X180291977Y-81897895D02*
X180244358Y-81921704D01*
X180244358Y-81921704D02*
X180220548Y-81945514D01*
X180220548Y-81945514D02*
X180196739Y-81993133D01*
X180196739Y-81993133D02*
X180196739Y-82088371D01*
X180196739Y-82088371D02*
X180220548Y-82135990D01*
X180220548Y-82135990D02*
X180244358Y-82159800D01*
X180244358Y-82159800D02*
X180291977Y-82183609D01*
X180291977Y-82183609D02*
X180387215Y-82183609D01*
X180387215Y-82183609D02*
X180434834Y-82159800D01*
X180434834Y-82159800D02*
X180458643Y-82135990D01*
X180458643Y-82135990D02*
X180482453Y-82088371D01*
X180482453Y-82088371D02*
X180482453Y-81993133D01*
X180482453Y-81993133D02*
X180458643Y-81945514D01*
X180458643Y-81945514D02*
X180434834Y-81921704D01*
X180434834Y-81921704D02*
X180387215Y-81897895D01*
X180934833Y-81683609D02*
X180696738Y-81683609D01*
X180696738Y-81683609D02*
X180672929Y-81921704D01*
X180672929Y-81921704D02*
X180696738Y-81897895D01*
X180696738Y-81897895D02*
X180744357Y-81874085D01*
X180744357Y-81874085D02*
X180863405Y-81874085D01*
X180863405Y-81874085D02*
X180911024Y-81897895D01*
X180911024Y-81897895D02*
X180934833Y-81921704D01*
X180934833Y-81921704D02*
X180958643Y-81969323D01*
X180958643Y-81969323D02*
X180958643Y-82088371D01*
X180958643Y-82088371D02*
X180934833Y-82135990D01*
X180934833Y-82135990D02*
X180911024Y-82159800D01*
X180911024Y-82159800D02*
X180863405Y-82183609D01*
X180863405Y-82183609D02*
X180744357Y-82183609D01*
X180744357Y-82183609D02*
X180696738Y-82159800D01*
X180696738Y-82159800D02*
X180672929Y-82135990D01*
X184434836Y-98183609D02*
X184434836Y-97683609D01*
X184434836Y-97683609D02*
X184601503Y-98040752D01*
X184601503Y-98040752D02*
X184768169Y-97683609D01*
X184768169Y-97683609D02*
X184768169Y-98183609D01*
X185196741Y-98159800D02*
X185149122Y-98183609D01*
X185149122Y-98183609D02*
X185053884Y-98183609D01*
X185053884Y-98183609D02*
X185006265Y-98159800D01*
X185006265Y-98159800D02*
X184982456Y-98112180D01*
X184982456Y-98112180D02*
X184982456Y-97921704D01*
X184982456Y-97921704D02*
X185006265Y-97874085D01*
X185006265Y-97874085D02*
X185053884Y-97850276D01*
X185053884Y-97850276D02*
X185149122Y-97850276D01*
X185149122Y-97850276D02*
X185196741Y-97874085D01*
X185196741Y-97874085D02*
X185220551Y-97921704D01*
X185220551Y-97921704D02*
X185220551Y-97969323D01*
X185220551Y-97969323D02*
X184982456Y-98016942D01*
X185434836Y-98183609D02*
X185434836Y-97850276D01*
X185434836Y-97683609D02*
X185411027Y-97707419D01*
X185411027Y-97707419D02*
X185434836Y-97731228D01*
X185434836Y-97731228D02*
X185458646Y-97707419D01*
X185458646Y-97707419D02*
X185434836Y-97683609D01*
X185434836Y-97683609D02*
X185434836Y-97731228D01*
X185672931Y-97850276D02*
X185672931Y-98278847D01*
X185672931Y-98278847D02*
X185649122Y-98326466D01*
X185649122Y-98326466D02*
X185601503Y-98350276D01*
X185601503Y-98350276D02*
X185577693Y-98350276D01*
X185672931Y-97683609D02*
X185649122Y-97707419D01*
X185649122Y-97707419D02*
X185672931Y-97731228D01*
X185672931Y-97731228D02*
X185696741Y-97707419D01*
X185696741Y-97707419D02*
X185672931Y-97683609D01*
X185672931Y-97683609D02*
X185672931Y-97731228D01*
X185911026Y-98183609D02*
X185911026Y-97850276D01*
X185911026Y-97683609D02*
X185887217Y-97707419D01*
X185887217Y-97707419D02*
X185911026Y-97731228D01*
X185911026Y-97731228D02*
X185934836Y-97707419D01*
X185934836Y-97707419D02*
X185911026Y-97683609D01*
X185911026Y-97683609D02*
X185911026Y-97731228D01*
X186530073Y-97683609D02*
X186530073Y-98088371D01*
X186530073Y-98088371D02*
X186553883Y-98135990D01*
X186553883Y-98135990D02*
X186577692Y-98159800D01*
X186577692Y-98159800D02*
X186625311Y-98183609D01*
X186625311Y-98183609D02*
X186720549Y-98183609D01*
X186720549Y-98183609D02*
X186768168Y-98159800D01*
X186768168Y-98159800D02*
X186791978Y-98135990D01*
X186791978Y-98135990D02*
X186815787Y-98088371D01*
X186815787Y-98088371D02*
X186815787Y-97683609D01*
X187053883Y-97850276D02*
X187053883Y-98183609D01*
X187053883Y-97897895D02*
X187077693Y-97874085D01*
X187077693Y-97874085D02*
X187125312Y-97850276D01*
X187125312Y-97850276D02*
X187196740Y-97850276D01*
X187196740Y-97850276D02*
X187244359Y-97874085D01*
X187244359Y-97874085D02*
X187268169Y-97921704D01*
X187268169Y-97921704D02*
X187268169Y-98183609D01*
X187506264Y-98183609D02*
X187506264Y-97850276D01*
X187506264Y-97683609D02*
X187482455Y-97707419D01*
X187482455Y-97707419D02*
X187506264Y-97731228D01*
X187506264Y-97731228D02*
X187530074Y-97707419D01*
X187530074Y-97707419D02*
X187506264Y-97683609D01*
X187506264Y-97683609D02*
X187506264Y-97731228D01*
X187696740Y-97850276D02*
X187815788Y-98183609D01*
X187815788Y-98183609D02*
X187934835Y-97850276D01*
X188125311Y-98135990D02*
X188149121Y-98159800D01*
X188149121Y-98159800D02*
X188125311Y-98183609D01*
X188125311Y-98183609D02*
X188101502Y-98159800D01*
X188101502Y-98159800D02*
X188125311Y-98135990D01*
X188125311Y-98135990D02*
X188125311Y-98183609D01*
X184387217Y-98600276D02*
X184506265Y-98933609D01*
X184506265Y-98933609D02*
X184625312Y-98600276D01*
X185006264Y-98909800D02*
X184958645Y-98933609D01*
X184958645Y-98933609D02*
X184863407Y-98933609D01*
X184863407Y-98933609D02*
X184815788Y-98909800D01*
X184815788Y-98909800D02*
X184791979Y-98862180D01*
X184791979Y-98862180D02*
X184791979Y-98671704D01*
X184791979Y-98671704D02*
X184815788Y-98624085D01*
X184815788Y-98624085D02*
X184863407Y-98600276D01*
X184863407Y-98600276D02*
X184958645Y-98600276D01*
X184958645Y-98600276D02*
X185006264Y-98624085D01*
X185006264Y-98624085D02*
X185030074Y-98671704D01*
X185030074Y-98671704D02*
X185030074Y-98719323D01*
X185030074Y-98719323D02*
X184791979Y-98766942D01*
X185244359Y-98933609D02*
X185244359Y-98600276D01*
X185244359Y-98695514D02*
X185268169Y-98647895D01*
X185268169Y-98647895D02*
X185291978Y-98624085D01*
X185291978Y-98624085D02*
X185339597Y-98600276D01*
X185339597Y-98600276D02*
X185387216Y-98600276D01*
X186196740Y-98933609D02*
X185911026Y-98933609D01*
X186053883Y-98933609D02*
X186053883Y-98433609D01*
X186053883Y-98433609D02*
X186006264Y-98505038D01*
X186006264Y-98505038D02*
X185958645Y-98552657D01*
X185958645Y-98552657D02*
X185911026Y-98576466D01*
X186411025Y-98885990D02*
X186434835Y-98909800D01*
X186434835Y-98909800D02*
X186411025Y-98933609D01*
X186411025Y-98933609D02*
X186387216Y-98909800D01*
X186387216Y-98909800D02*
X186411025Y-98885990D01*
X186411025Y-98885990D02*
X186411025Y-98933609D01*
X186744358Y-98433609D02*
X186791977Y-98433609D01*
X186791977Y-98433609D02*
X186839596Y-98457419D01*
X186839596Y-98457419D02*
X186863406Y-98481228D01*
X186863406Y-98481228D02*
X186887215Y-98528847D01*
X186887215Y-98528847D02*
X186911025Y-98624085D01*
X186911025Y-98624085D02*
X186911025Y-98743133D01*
X186911025Y-98743133D02*
X186887215Y-98838371D01*
X186887215Y-98838371D02*
X186863406Y-98885990D01*
X186863406Y-98885990D02*
X186839596Y-98909800D01*
X186839596Y-98909800D02*
X186791977Y-98933609D01*
X186791977Y-98933609D02*
X186744358Y-98933609D01*
X186744358Y-98933609D02*
X186696739Y-98909800D01*
X186696739Y-98909800D02*
X186672930Y-98885990D01*
X186672930Y-98885990D02*
X186649120Y-98838371D01*
X186649120Y-98838371D02*
X186625311Y-98743133D01*
X186625311Y-98743133D02*
X186625311Y-98624085D01*
X186625311Y-98624085D02*
X186649120Y-98528847D01*
X186649120Y-98528847D02*
X186672930Y-98481228D01*
X186672930Y-98481228D02*
X186696739Y-98457419D01*
X186696739Y-98457419D02*
X186744358Y-98433609D01*
X187125310Y-98885990D02*
X187149120Y-98909800D01*
X187149120Y-98909800D02*
X187125310Y-98933609D01*
X187125310Y-98933609D02*
X187101501Y-98909800D01*
X187101501Y-98909800D02*
X187125310Y-98885990D01*
X187125310Y-98885990D02*
X187125310Y-98933609D01*
X187458643Y-98433609D02*
X187506262Y-98433609D01*
X187506262Y-98433609D02*
X187553881Y-98457419D01*
X187553881Y-98457419D02*
X187577691Y-98481228D01*
X187577691Y-98481228D02*
X187601500Y-98528847D01*
X187601500Y-98528847D02*
X187625310Y-98624085D01*
X187625310Y-98624085D02*
X187625310Y-98743133D01*
X187625310Y-98743133D02*
X187601500Y-98838371D01*
X187601500Y-98838371D02*
X187577691Y-98885990D01*
X187577691Y-98885990D02*
X187553881Y-98909800D01*
X187553881Y-98909800D02*
X187506262Y-98933609D01*
X187506262Y-98933609D02*
X187458643Y-98933609D01*
X187458643Y-98933609D02*
X187411024Y-98909800D01*
X187411024Y-98909800D02*
X187387215Y-98885990D01*
X187387215Y-98885990D02*
X187363405Y-98838371D01*
X187363405Y-98838371D02*
X187339596Y-98743133D01*
X187339596Y-98743133D02*
X187339596Y-98624085D01*
X187339596Y-98624085D02*
X187363405Y-98528847D01*
X187363405Y-98528847D02*
X187387215Y-98481228D01*
X187387215Y-98481228D02*
X187411024Y-98457419D01*
X187411024Y-98457419D02*
X187458643Y-98433609D01*
X184434836Y-97433609D02*
X184434836Y-96933609D01*
X184434836Y-96933609D02*
X184625312Y-96933609D01*
X184625312Y-96933609D02*
X184672931Y-96957419D01*
X184672931Y-96957419D02*
X184696741Y-96981228D01*
X184696741Y-96981228D02*
X184720550Y-97028847D01*
X184720550Y-97028847D02*
X184720550Y-97100276D01*
X184720550Y-97100276D02*
X184696741Y-97147895D01*
X184696741Y-97147895D02*
X184672931Y-97171704D01*
X184672931Y-97171704D02*
X184625312Y-97195514D01*
X184625312Y-97195514D02*
X184434836Y-97195514D01*
X184911027Y-97409800D02*
X184982455Y-97433609D01*
X184982455Y-97433609D02*
X185101503Y-97433609D01*
X185101503Y-97433609D02*
X185149122Y-97409800D01*
X185149122Y-97409800D02*
X185172931Y-97385990D01*
X185172931Y-97385990D02*
X185196741Y-97338371D01*
X185196741Y-97338371D02*
X185196741Y-97290752D01*
X185196741Y-97290752D02*
X185172931Y-97243133D01*
X185172931Y-97243133D02*
X185149122Y-97219323D01*
X185149122Y-97219323D02*
X185101503Y-97195514D01*
X185101503Y-97195514D02*
X185006265Y-97171704D01*
X185006265Y-97171704D02*
X184958646Y-97147895D01*
X184958646Y-97147895D02*
X184934836Y-97124085D01*
X184934836Y-97124085D02*
X184911027Y-97076466D01*
X184911027Y-97076466D02*
X184911027Y-97028847D01*
X184911027Y-97028847D02*
X184934836Y-96981228D01*
X184934836Y-96981228D02*
X184958646Y-96957419D01*
X184958646Y-96957419D02*
X185006265Y-96933609D01*
X185006265Y-96933609D02*
X185125312Y-96933609D01*
X185125312Y-96933609D02*
X185196741Y-96957419D01*
X185625312Y-97100276D02*
X185625312Y-97433609D01*
X185506264Y-96909800D02*
X185387217Y-97266942D01*
X185387217Y-97266942D02*
X185696740Y-97266942D01*
X185958645Y-97147895D02*
X185911026Y-97124085D01*
X185911026Y-97124085D02*
X185887216Y-97100276D01*
X185887216Y-97100276D02*
X185863407Y-97052657D01*
X185863407Y-97052657D02*
X185863407Y-97028847D01*
X185863407Y-97028847D02*
X185887216Y-96981228D01*
X185887216Y-96981228D02*
X185911026Y-96957419D01*
X185911026Y-96957419D02*
X185958645Y-96933609D01*
X185958645Y-96933609D02*
X186053883Y-96933609D01*
X186053883Y-96933609D02*
X186101502Y-96957419D01*
X186101502Y-96957419D02*
X186125311Y-96981228D01*
X186125311Y-96981228D02*
X186149121Y-97028847D01*
X186149121Y-97028847D02*
X186149121Y-97052657D01*
X186149121Y-97052657D02*
X186125311Y-97100276D01*
X186125311Y-97100276D02*
X186101502Y-97124085D01*
X186101502Y-97124085D02*
X186053883Y-97147895D01*
X186053883Y-97147895D02*
X185958645Y-97147895D01*
X185958645Y-97147895D02*
X185911026Y-97171704D01*
X185911026Y-97171704D02*
X185887216Y-97195514D01*
X185887216Y-97195514D02*
X185863407Y-97243133D01*
X185863407Y-97243133D02*
X185863407Y-97338371D01*
X185863407Y-97338371D02*
X185887216Y-97385990D01*
X185887216Y-97385990D02*
X185911026Y-97409800D01*
X185911026Y-97409800D02*
X185958645Y-97433609D01*
X185958645Y-97433609D02*
X186053883Y-97433609D01*
X186053883Y-97433609D02*
X186101502Y-97409800D01*
X186101502Y-97409800D02*
X186125311Y-97385990D01*
X186125311Y-97385990D02*
X186149121Y-97338371D01*
X186149121Y-97338371D02*
X186149121Y-97243133D01*
X186149121Y-97243133D02*
X186125311Y-97195514D01*
X186125311Y-97195514D02*
X186101502Y-97171704D01*
X186101502Y-97171704D02*
X186053883Y-97147895D01*
X186601501Y-96933609D02*
X186363406Y-96933609D01*
X186363406Y-96933609D02*
X186339597Y-97171704D01*
X186339597Y-97171704D02*
X186363406Y-97147895D01*
X186363406Y-97147895D02*
X186411025Y-97124085D01*
X186411025Y-97124085D02*
X186530073Y-97124085D01*
X186530073Y-97124085D02*
X186577692Y-97147895D01*
X186577692Y-97147895D02*
X186601501Y-97171704D01*
X186601501Y-97171704D02*
X186625311Y-97219323D01*
X186625311Y-97219323D02*
X186625311Y-97338371D01*
X186625311Y-97338371D02*
X186601501Y-97385990D01*
X186601501Y-97385990D02*
X186577692Y-97409800D01*
X186577692Y-97409800D02*
X186530073Y-97433609D01*
X186530073Y-97433609D02*
X186411025Y-97433609D01*
X186411025Y-97433609D02*
X186363406Y-97409800D01*
X186363406Y-97409800D02*
X186339597Y-97385990D01*
%TO.C,*%
G36*
X181750000Y-81350000D02*
G01*
X181850000Y-81350000D01*
X181850000Y-81450000D01*
X181750000Y-81450000D01*
X181750000Y-81350000D01*
G37*
G36*
X181750000Y-81450000D02*
G01*
X181850000Y-81450000D01*
X181850000Y-81550000D01*
X181750000Y-81550000D01*
X181750000Y-81450000D01*
G37*
G36*
X181750000Y-81550000D02*
G01*
X181850000Y-81550000D01*
X181850000Y-81650000D01*
X181750000Y-81650000D01*
X181750000Y-81550000D01*
G37*
G36*
X181750000Y-81650000D02*
G01*
X181850000Y-81650000D01*
X181850000Y-81750000D01*
X181750000Y-81750000D01*
X181750000Y-81650000D01*
G37*
G36*
X181750000Y-81750000D02*
G01*
X181850000Y-81750000D01*
X181850000Y-81850000D01*
X181750000Y-81850000D01*
X181750000Y-81750000D01*
G37*
G36*
X181750000Y-81850000D02*
G01*
X181850000Y-81850000D01*
X181850000Y-81950000D01*
X181750000Y-81950000D01*
X181750000Y-81850000D01*
G37*
G36*
X181750000Y-81950000D02*
G01*
X181850000Y-81950000D01*
X181850000Y-82050000D01*
X181750000Y-82050000D01*
X181750000Y-81950000D01*
G37*
G36*
X181750000Y-82150000D02*
G01*
X181850000Y-82150000D01*
X181850000Y-82250000D01*
X181750000Y-82250000D01*
X181750000Y-82150000D01*
G37*
G36*
X181750000Y-82250000D02*
G01*
X181850000Y-82250000D01*
X181850000Y-82350000D01*
X181750000Y-82350000D01*
X181750000Y-82250000D01*
G37*
G36*
X181750000Y-82450000D02*
G01*
X181850000Y-82450000D01*
X181850000Y-82550000D01*
X181750000Y-82550000D01*
X181750000Y-82450000D01*
G37*
G36*
X181750000Y-82650000D02*
G01*
X181850000Y-82650000D01*
X181850000Y-82750000D01*
X181750000Y-82750000D01*
X181750000Y-82650000D01*
G37*
G36*
X181750000Y-82850000D02*
G01*
X181850000Y-82850000D01*
X181850000Y-82950000D01*
X181750000Y-82950000D01*
X181750000Y-82850000D01*
G37*
G36*
X181750000Y-82950000D02*
G01*
X181850000Y-82950000D01*
X181850000Y-83050000D01*
X181750000Y-83050000D01*
X181750000Y-82950000D01*
G37*
G36*
X181750000Y-83150000D02*
G01*
X181850000Y-83150000D01*
X181850000Y-83250000D01*
X181750000Y-83250000D01*
X181750000Y-83150000D01*
G37*
G36*
X181750000Y-83350000D02*
G01*
X181850000Y-83350000D01*
X181850000Y-83450000D01*
X181750000Y-83450000D01*
X181750000Y-83350000D01*
G37*
G36*
X181750000Y-83550000D02*
G01*
X181850000Y-83550000D01*
X181850000Y-83650000D01*
X181750000Y-83650000D01*
X181750000Y-83550000D01*
G37*
G36*
X181750000Y-83650000D02*
G01*
X181850000Y-83650000D01*
X181850000Y-83750000D01*
X181750000Y-83750000D01*
X181750000Y-83650000D01*
G37*
G36*
X181750000Y-83750000D02*
G01*
X181850000Y-83750000D01*
X181850000Y-83850000D01*
X181750000Y-83850000D01*
X181750000Y-83750000D01*
G37*
G36*
X181750000Y-83850000D02*
G01*
X181850000Y-83850000D01*
X181850000Y-83950000D01*
X181750000Y-83950000D01*
X181750000Y-83850000D01*
G37*
G36*
X181750000Y-83950000D02*
G01*
X181850000Y-83950000D01*
X181850000Y-84050000D01*
X181750000Y-84050000D01*
X181750000Y-83950000D01*
G37*
G36*
X181750000Y-84050000D02*
G01*
X181850000Y-84050000D01*
X181850000Y-84150000D01*
X181750000Y-84150000D01*
X181750000Y-84050000D01*
G37*
G36*
X181750000Y-84150000D02*
G01*
X181850000Y-84150000D01*
X181850000Y-84250000D01*
X181750000Y-84250000D01*
X181750000Y-84150000D01*
G37*
G36*
X181850000Y-81350000D02*
G01*
X181950000Y-81350000D01*
X181950000Y-81450000D01*
X181850000Y-81450000D01*
X181850000Y-81350000D01*
G37*
G36*
X181850000Y-81950000D02*
G01*
X181950000Y-81950000D01*
X181950000Y-82050000D01*
X181850000Y-82050000D01*
X181850000Y-81950000D01*
G37*
G36*
X181850000Y-82250000D02*
G01*
X181950000Y-82250000D01*
X181950000Y-82350000D01*
X181850000Y-82350000D01*
X181850000Y-82250000D01*
G37*
G36*
X181850000Y-82350000D02*
G01*
X181950000Y-82350000D01*
X181950000Y-82450000D01*
X181850000Y-82450000D01*
X181850000Y-82350000D01*
G37*
G36*
X181850000Y-82450000D02*
G01*
X181950000Y-82450000D01*
X181950000Y-82550000D01*
X181850000Y-82550000D01*
X181850000Y-82450000D01*
G37*
G36*
X181850000Y-82650000D02*
G01*
X181950000Y-82650000D01*
X181950000Y-82750000D01*
X181850000Y-82750000D01*
X181850000Y-82650000D01*
G37*
G36*
X181850000Y-82850000D02*
G01*
X181950000Y-82850000D01*
X181950000Y-82950000D01*
X181850000Y-82950000D01*
X181850000Y-82850000D01*
G37*
G36*
X181850000Y-82950000D02*
G01*
X181950000Y-82950000D01*
X181950000Y-83050000D01*
X181850000Y-83050000D01*
X181850000Y-82950000D01*
G37*
G36*
X181850000Y-83050000D02*
G01*
X181950000Y-83050000D01*
X181950000Y-83150000D01*
X181850000Y-83150000D01*
X181850000Y-83050000D01*
G37*
G36*
X181850000Y-83550000D02*
G01*
X181950000Y-83550000D01*
X181950000Y-83650000D01*
X181850000Y-83650000D01*
X181850000Y-83550000D01*
G37*
G36*
X181850000Y-84150000D02*
G01*
X181950000Y-84150000D01*
X181950000Y-84250000D01*
X181850000Y-84250000D01*
X181850000Y-84150000D01*
G37*
G36*
X181950000Y-81350000D02*
G01*
X182050000Y-81350000D01*
X182050000Y-81450000D01*
X181950000Y-81450000D01*
X181950000Y-81350000D01*
G37*
G36*
X181950000Y-81550000D02*
G01*
X182050000Y-81550000D01*
X182050000Y-81650000D01*
X181950000Y-81650000D01*
X181950000Y-81550000D01*
G37*
G36*
X181950000Y-81650000D02*
G01*
X182050000Y-81650000D01*
X182050000Y-81750000D01*
X181950000Y-81750000D01*
X181950000Y-81650000D01*
G37*
G36*
X181950000Y-81750000D02*
G01*
X182050000Y-81750000D01*
X182050000Y-81850000D01*
X181950000Y-81850000D01*
X181950000Y-81750000D01*
G37*
G36*
X181950000Y-81950000D02*
G01*
X182050000Y-81950000D01*
X182050000Y-82050000D01*
X181950000Y-82050000D01*
X181950000Y-81950000D01*
G37*
G36*
X181950000Y-82350000D02*
G01*
X182050000Y-82350000D01*
X182050000Y-82450000D01*
X181950000Y-82450000D01*
X181950000Y-82350000D01*
G37*
G36*
X181950000Y-82450000D02*
G01*
X182050000Y-82450000D01*
X182050000Y-82550000D01*
X181950000Y-82550000D01*
X181950000Y-82450000D01*
G37*
G36*
X181950000Y-82650000D02*
G01*
X182050000Y-82650000D01*
X182050000Y-82750000D01*
X181950000Y-82750000D01*
X181950000Y-82650000D01*
G37*
G36*
X181950000Y-82850000D02*
G01*
X182050000Y-82850000D01*
X182050000Y-82950000D01*
X181950000Y-82950000D01*
X181950000Y-82850000D01*
G37*
G36*
X181950000Y-82950000D02*
G01*
X182050000Y-82950000D01*
X182050000Y-83050000D01*
X181950000Y-83050000D01*
X181950000Y-82950000D01*
G37*
G36*
X181950000Y-83150000D02*
G01*
X182050000Y-83150000D01*
X182050000Y-83250000D01*
X181950000Y-83250000D01*
X181950000Y-83150000D01*
G37*
G36*
X181950000Y-83250000D02*
G01*
X182050000Y-83250000D01*
X182050000Y-83350000D01*
X181950000Y-83350000D01*
X181950000Y-83250000D01*
G37*
G36*
X181950000Y-83550000D02*
G01*
X182050000Y-83550000D01*
X182050000Y-83650000D01*
X181950000Y-83650000D01*
X181950000Y-83550000D01*
G37*
G36*
X181950000Y-83750000D02*
G01*
X182050000Y-83750000D01*
X182050000Y-83850000D01*
X181950000Y-83850000D01*
X181950000Y-83750000D01*
G37*
G36*
X181950000Y-83850000D02*
G01*
X182050000Y-83850000D01*
X182050000Y-83950000D01*
X181950000Y-83950000D01*
X181950000Y-83850000D01*
G37*
G36*
X181950000Y-83950000D02*
G01*
X182050000Y-83950000D01*
X182050000Y-84050000D01*
X181950000Y-84050000D01*
X181950000Y-83950000D01*
G37*
G36*
X181950000Y-84150000D02*
G01*
X182050000Y-84150000D01*
X182050000Y-84250000D01*
X181950000Y-84250000D01*
X181950000Y-84150000D01*
G37*
G36*
X182050000Y-81350000D02*
G01*
X182150000Y-81350000D01*
X182150000Y-81450000D01*
X182050000Y-81450000D01*
X182050000Y-81350000D01*
G37*
G36*
X182050000Y-81550000D02*
G01*
X182150000Y-81550000D01*
X182150000Y-81650000D01*
X182050000Y-81650000D01*
X182050000Y-81550000D01*
G37*
G36*
X182050000Y-81650000D02*
G01*
X182150000Y-81650000D01*
X182150000Y-81750000D01*
X182050000Y-81750000D01*
X182050000Y-81650000D01*
G37*
G36*
X182050000Y-81750000D02*
G01*
X182150000Y-81750000D01*
X182150000Y-81850000D01*
X182050000Y-81850000D01*
X182050000Y-81750000D01*
G37*
G36*
X182050000Y-81950000D02*
G01*
X182150000Y-81950000D01*
X182150000Y-82050000D01*
X182050000Y-82050000D01*
X182050000Y-81950000D01*
G37*
G36*
X182050000Y-82150000D02*
G01*
X182150000Y-82150000D01*
X182150000Y-82250000D01*
X182050000Y-82250000D01*
X182050000Y-82150000D01*
G37*
G36*
X182050000Y-82250000D02*
G01*
X182150000Y-82250000D01*
X182150000Y-82350000D01*
X182050000Y-82350000D01*
X182050000Y-82250000D01*
G37*
G36*
X182050000Y-82350000D02*
G01*
X182150000Y-82350000D01*
X182150000Y-82450000D01*
X182050000Y-82450000D01*
X182050000Y-82350000D01*
G37*
G36*
X182050000Y-82450000D02*
G01*
X182150000Y-82450000D01*
X182150000Y-82550000D01*
X182050000Y-82550000D01*
X182050000Y-82450000D01*
G37*
G36*
X182050000Y-82550000D02*
G01*
X182150000Y-82550000D01*
X182150000Y-82650000D01*
X182050000Y-82650000D01*
X182050000Y-82550000D01*
G37*
G36*
X182050000Y-82950000D02*
G01*
X182150000Y-82950000D01*
X182150000Y-83050000D01*
X182050000Y-83050000D01*
X182050000Y-82950000D01*
G37*
G36*
X182050000Y-83150000D02*
G01*
X182150000Y-83150000D01*
X182150000Y-83250000D01*
X182050000Y-83250000D01*
X182050000Y-83150000D01*
G37*
G36*
X182050000Y-83250000D02*
G01*
X182150000Y-83250000D01*
X182150000Y-83350000D01*
X182050000Y-83350000D01*
X182050000Y-83250000D01*
G37*
G36*
X182050000Y-83350000D02*
G01*
X182150000Y-83350000D01*
X182150000Y-83450000D01*
X182050000Y-83450000D01*
X182050000Y-83350000D01*
G37*
G36*
X182050000Y-83550000D02*
G01*
X182150000Y-83550000D01*
X182150000Y-83650000D01*
X182050000Y-83650000D01*
X182050000Y-83550000D01*
G37*
G36*
X182050000Y-83750000D02*
G01*
X182150000Y-83750000D01*
X182150000Y-83850000D01*
X182050000Y-83850000D01*
X182050000Y-83750000D01*
G37*
G36*
X182050000Y-83850000D02*
G01*
X182150000Y-83850000D01*
X182150000Y-83950000D01*
X182050000Y-83950000D01*
X182050000Y-83850000D01*
G37*
G36*
X182050000Y-83950000D02*
G01*
X182150000Y-83950000D01*
X182150000Y-84050000D01*
X182050000Y-84050000D01*
X182050000Y-83950000D01*
G37*
G36*
X182050000Y-84150000D02*
G01*
X182150000Y-84150000D01*
X182150000Y-84250000D01*
X182050000Y-84250000D01*
X182050000Y-84150000D01*
G37*
G36*
X182150000Y-81350000D02*
G01*
X182250000Y-81350000D01*
X182250000Y-81450000D01*
X182150000Y-81450000D01*
X182150000Y-81350000D01*
G37*
G36*
X182150000Y-81550000D02*
G01*
X182250000Y-81550000D01*
X182250000Y-81650000D01*
X182150000Y-81650000D01*
X182150000Y-81550000D01*
G37*
G36*
X182150000Y-81650000D02*
G01*
X182250000Y-81650000D01*
X182250000Y-81750000D01*
X182150000Y-81750000D01*
X182150000Y-81650000D01*
G37*
G36*
X182150000Y-81750000D02*
G01*
X182250000Y-81750000D01*
X182250000Y-81850000D01*
X182150000Y-81850000D01*
X182150000Y-81750000D01*
G37*
G36*
X182150000Y-81950000D02*
G01*
X182250000Y-81950000D01*
X182250000Y-82050000D01*
X182150000Y-82050000D01*
X182150000Y-81950000D01*
G37*
G36*
X182150000Y-82550000D02*
G01*
X182250000Y-82550000D01*
X182250000Y-82650000D01*
X182150000Y-82650000D01*
X182150000Y-82550000D01*
G37*
G36*
X182150000Y-82650000D02*
G01*
X182250000Y-82650000D01*
X182250000Y-82750000D01*
X182150000Y-82750000D01*
X182150000Y-82650000D01*
G37*
G36*
X182150000Y-82750000D02*
G01*
X182250000Y-82750000D01*
X182250000Y-82850000D01*
X182150000Y-82850000D01*
X182150000Y-82750000D01*
G37*
G36*
X182150000Y-82850000D02*
G01*
X182250000Y-82850000D01*
X182250000Y-82950000D01*
X182150000Y-82950000D01*
X182150000Y-82850000D01*
G37*
G36*
X182150000Y-82950000D02*
G01*
X182250000Y-82950000D01*
X182250000Y-83050000D01*
X182150000Y-83050000D01*
X182150000Y-82950000D01*
G37*
G36*
X182150000Y-83050000D02*
G01*
X182250000Y-83050000D01*
X182250000Y-83150000D01*
X182150000Y-83150000D01*
X182150000Y-83050000D01*
G37*
G36*
X182150000Y-83150000D02*
G01*
X182250000Y-83150000D01*
X182250000Y-83250000D01*
X182150000Y-83250000D01*
X182150000Y-83150000D01*
G37*
G36*
X182150000Y-83550000D02*
G01*
X182250000Y-83550000D01*
X182250000Y-83650000D01*
X182150000Y-83650000D01*
X182150000Y-83550000D01*
G37*
G36*
X182150000Y-83750000D02*
G01*
X182250000Y-83750000D01*
X182250000Y-83850000D01*
X182150000Y-83850000D01*
X182150000Y-83750000D01*
G37*
G36*
X182150000Y-83850000D02*
G01*
X182250000Y-83850000D01*
X182250000Y-83950000D01*
X182150000Y-83950000D01*
X182150000Y-83850000D01*
G37*
G36*
X182150000Y-83950000D02*
G01*
X182250000Y-83950000D01*
X182250000Y-84050000D01*
X182150000Y-84050000D01*
X182150000Y-83950000D01*
G37*
G36*
X182150000Y-84150000D02*
G01*
X182250000Y-84150000D01*
X182250000Y-84250000D01*
X182150000Y-84250000D01*
X182150000Y-84150000D01*
G37*
G36*
X182250000Y-81350000D02*
G01*
X182350000Y-81350000D01*
X182350000Y-81450000D01*
X182250000Y-81450000D01*
X182250000Y-81350000D01*
G37*
G36*
X182250000Y-81950000D02*
G01*
X182350000Y-81950000D01*
X182350000Y-82050000D01*
X182250000Y-82050000D01*
X182250000Y-81950000D01*
G37*
G36*
X182250000Y-82150000D02*
G01*
X182350000Y-82150000D01*
X182350000Y-82250000D01*
X182250000Y-82250000D01*
X182250000Y-82150000D01*
G37*
G36*
X182250000Y-82250000D02*
G01*
X182350000Y-82250000D01*
X182350000Y-82350000D01*
X182250000Y-82350000D01*
X182250000Y-82250000D01*
G37*
G36*
X182250000Y-82450000D02*
G01*
X182350000Y-82450000D01*
X182350000Y-82550000D01*
X182250000Y-82550000D01*
X182250000Y-82450000D01*
G37*
G36*
X182250000Y-82950000D02*
G01*
X182350000Y-82950000D01*
X182350000Y-83050000D01*
X182250000Y-83050000D01*
X182250000Y-82950000D01*
G37*
G36*
X182250000Y-83050000D02*
G01*
X182350000Y-83050000D01*
X182350000Y-83150000D01*
X182250000Y-83150000D01*
X182250000Y-83050000D01*
G37*
G36*
X182250000Y-83150000D02*
G01*
X182350000Y-83150000D01*
X182350000Y-83250000D01*
X182250000Y-83250000D01*
X182250000Y-83150000D01*
G37*
G36*
X182250000Y-83550000D02*
G01*
X182350000Y-83550000D01*
X182350000Y-83650000D01*
X182250000Y-83650000D01*
X182250000Y-83550000D01*
G37*
G36*
X182250000Y-84150000D02*
G01*
X182350000Y-84150000D01*
X182350000Y-84250000D01*
X182250000Y-84250000D01*
X182250000Y-84150000D01*
G37*
G36*
X182350000Y-81350000D02*
G01*
X182450000Y-81350000D01*
X182450000Y-81450000D01*
X182350000Y-81450000D01*
X182350000Y-81350000D01*
G37*
G36*
X182350000Y-81450000D02*
G01*
X182450000Y-81450000D01*
X182450000Y-81550000D01*
X182350000Y-81550000D01*
X182350000Y-81450000D01*
G37*
G36*
X182350000Y-81550000D02*
G01*
X182450000Y-81550000D01*
X182450000Y-81650000D01*
X182350000Y-81650000D01*
X182350000Y-81550000D01*
G37*
G36*
X182350000Y-81650000D02*
G01*
X182450000Y-81650000D01*
X182450000Y-81750000D01*
X182350000Y-81750000D01*
X182350000Y-81650000D01*
G37*
G36*
X182350000Y-81750000D02*
G01*
X182450000Y-81750000D01*
X182450000Y-81850000D01*
X182350000Y-81850000D01*
X182350000Y-81750000D01*
G37*
G36*
X182350000Y-81850000D02*
G01*
X182450000Y-81850000D01*
X182450000Y-81950000D01*
X182350000Y-81950000D01*
X182350000Y-81850000D01*
G37*
G36*
X182350000Y-81950000D02*
G01*
X182450000Y-81950000D01*
X182450000Y-82050000D01*
X182350000Y-82050000D01*
X182350000Y-81950000D01*
G37*
G36*
X182350000Y-82150000D02*
G01*
X182450000Y-82150000D01*
X182450000Y-82250000D01*
X182350000Y-82250000D01*
X182350000Y-82150000D01*
G37*
G36*
X182350000Y-82350000D02*
G01*
X182450000Y-82350000D01*
X182450000Y-82450000D01*
X182350000Y-82450000D01*
X182350000Y-82350000D01*
G37*
G36*
X182350000Y-82550000D02*
G01*
X182450000Y-82550000D01*
X182450000Y-82650000D01*
X182350000Y-82650000D01*
X182350000Y-82550000D01*
G37*
G36*
X182350000Y-82750000D02*
G01*
X182450000Y-82750000D01*
X182450000Y-82850000D01*
X182350000Y-82850000D01*
X182350000Y-82750000D01*
G37*
G36*
X182350000Y-82950000D02*
G01*
X182450000Y-82950000D01*
X182450000Y-83050000D01*
X182350000Y-83050000D01*
X182350000Y-82950000D01*
G37*
G36*
X182350000Y-83150000D02*
G01*
X182450000Y-83150000D01*
X182450000Y-83250000D01*
X182350000Y-83250000D01*
X182350000Y-83150000D01*
G37*
G36*
X182350000Y-83350000D02*
G01*
X182450000Y-83350000D01*
X182450000Y-83450000D01*
X182350000Y-83450000D01*
X182350000Y-83350000D01*
G37*
G36*
X182350000Y-83550000D02*
G01*
X182450000Y-83550000D01*
X182450000Y-83650000D01*
X182350000Y-83650000D01*
X182350000Y-83550000D01*
G37*
G36*
X182350000Y-83650000D02*
G01*
X182450000Y-83650000D01*
X182450000Y-83750000D01*
X182350000Y-83750000D01*
X182350000Y-83650000D01*
G37*
G36*
X182350000Y-83750000D02*
G01*
X182450000Y-83750000D01*
X182450000Y-83850000D01*
X182350000Y-83850000D01*
X182350000Y-83750000D01*
G37*
G36*
X182350000Y-83850000D02*
G01*
X182450000Y-83850000D01*
X182450000Y-83950000D01*
X182350000Y-83950000D01*
X182350000Y-83850000D01*
G37*
G36*
X182350000Y-83950000D02*
G01*
X182450000Y-83950000D01*
X182450000Y-84050000D01*
X182350000Y-84050000D01*
X182350000Y-83950000D01*
G37*
G36*
X182350000Y-84050000D02*
G01*
X182450000Y-84050000D01*
X182450000Y-84150000D01*
X182350000Y-84150000D01*
X182350000Y-84050000D01*
G37*
G36*
X182350000Y-84150000D02*
G01*
X182450000Y-84150000D01*
X182450000Y-84250000D01*
X182350000Y-84250000D01*
X182350000Y-84150000D01*
G37*
G36*
X182450000Y-82250000D02*
G01*
X182550000Y-82250000D01*
X182550000Y-82350000D01*
X182450000Y-82350000D01*
X182450000Y-82250000D01*
G37*
G36*
X182450000Y-82850000D02*
G01*
X182550000Y-82850000D01*
X182550000Y-82950000D01*
X182450000Y-82950000D01*
X182450000Y-82850000D01*
G37*
G36*
X182450000Y-82950000D02*
G01*
X182550000Y-82950000D01*
X182550000Y-83050000D01*
X182450000Y-83050000D01*
X182450000Y-82950000D01*
G37*
G36*
X182450000Y-83250000D02*
G01*
X182550000Y-83250000D01*
X182550000Y-83350000D01*
X182450000Y-83350000D01*
X182450000Y-83250000D01*
G37*
G36*
X182450000Y-83350000D02*
G01*
X182550000Y-83350000D01*
X182550000Y-83450000D01*
X182450000Y-83450000D01*
X182450000Y-83350000D01*
G37*
G36*
X182550000Y-81850000D02*
G01*
X182650000Y-81850000D01*
X182650000Y-81950000D01*
X182550000Y-81950000D01*
X182550000Y-81850000D01*
G37*
G36*
X182550000Y-81950000D02*
G01*
X182650000Y-81950000D01*
X182650000Y-82050000D01*
X182550000Y-82050000D01*
X182550000Y-81950000D01*
G37*
G36*
X182550000Y-82150000D02*
G01*
X182650000Y-82150000D01*
X182650000Y-82250000D01*
X182550000Y-82250000D01*
X182550000Y-82150000D01*
G37*
G36*
X182550000Y-82350000D02*
G01*
X182650000Y-82350000D01*
X182650000Y-82450000D01*
X182550000Y-82450000D01*
X182550000Y-82350000D01*
G37*
G36*
X182550000Y-82550000D02*
G01*
X182650000Y-82550000D01*
X182650000Y-82650000D01*
X182550000Y-82650000D01*
X182550000Y-82550000D01*
G37*
G36*
X182550000Y-82950000D02*
G01*
X182650000Y-82950000D01*
X182650000Y-83050000D01*
X182550000Y-83050000D01*
X182550000Y-82950000D01*
G37*
G36*
X182550000Y-83050000D02*
G01*
X182650000Y-83050000D01*
X182650000Y-83150000D01*
X182550000Y-83150000D01*
X182550000Y-83050000D01*
G37*
G36*
X182550000Y-83150000D02*
G01*
X182650000Y-83150000D01*
X182650000Y-83250000D01*
X182550000Y-83250000D01*
X182550000Y-83150000D01*
G37*
G36*
X182550000Y-83250000D02*
G01*
X182650000Y-83250000D01*
X182650000Y-83350000D01*
X182550000Y-83350000D01*
X182550000Y-83250000D01*
G37*
G36*
X182550000Y-83450000D02*
G01*
X182650000Y-83450000D01*
X182650000Y-83550000D01*
X182550000Y-83550000D01*
X182550000Y-83450000D01*
G37*
G36*
X182550000Y-83650000D02*
G01*
X182650000Y-83650000D01*
X182650000Y-83750000D01*
X182550000Y-83750000D01*
X182550000Y-83650000D01*
G37*
G36*
X182550000Y-83850000D02*
G01*
X182650000Y-83850000D01*
X182650000Y-83950000D01*
X182550000Y-83950000D01*
X182550000Y-83850000D01*
G37*
G36*
X182550000Y-84150000D02*
G01*
X182650000Y-84150000D01*
X182650000Y-84250000D01*
X182550000Y-84250000D01*
X182550000Y-84150000D01*
G37*
G36*
X182650000Y-81350000D02*
G01*
X182750000Y-81350000D01*
X182750000Y-81450000D01*
X182650000Y-81450000D01*
X182650000Y-81350000D01*
G37*
G36*
X182650000Y-81450000D02*
G01*
X182750000Y-81450000D01*
X182750000Y-81550000D01*
X182650000Y-81550000D01*
X182650000Y-81450000D01*
G37*
G36*
X182650000Y-81550000D02*
G01*
X182750000Y-81550000D01*
X182750000Y-81650000D01*
X182650000Y-81650000D01*
X182650000Y-81550000D01*
G37*
G36*
X182650000Y-81650000D02*
G01*
X182750000Y-81650000D01*
X182750000Y-81750000D01*
X182650000Y-81750000D01*
X182650000Y-81650000D01*
G37*
G36*
X182650000Y-81750000D02*
G01*
X182750000Y-81750000D01*
X182750000Y-81850000D01*
X182650000Y-81850000D01*
X182650000Y-81750000D01*
G37*
G36*
X182650000Y-82050000D02*
G01*
X182750000Y-82050000D01*
X182750000Y-82150000D01*
X182650000Y-82150000D01*
X182650000Y-82050000D01*
G37*
G36*
X182650000Y-82150000D02*
G01*
X182750000Y-82150000D01*
X182750000Y-82250000D01*
X182650000Y-82250000D01*
X182650000Y-82150000D01*
G37*
G36*
X182650000Y-82350000D02*
G01*
X182750000Y-82350000D01*
X182750000Y-82450000D01*
X182650000Y-82450000D01*
X182650000Y-82350000D01*
G37*
G36*
X182650000Y-82650000D02*
G01*
X182750000Y-82650000D01*
X182750000Y-82750000D01*
X182650000Y-82750000D01*
X182650000Y-82650000D01*
G37*
G36*
X182650000Y-82950000D02*
G01*
X182750000Y-82950000D01*
X182750000Y-83050000D01*
X182650000Y-83050000D01*
X182650000Y-82950000D01*
G37*
G36*
X182650000Y-83050000D02*
G01*
X182750000Y-83050000D01*
X182750000Y-83150000D01*
X182650000Y-83150000D01*
X182650000Y-83050000D01*
G37*
G36*
X182650000Y-83350000D02*
G01*
X182750000Y-83350000D01*
X182750000Y-83450000D01*
X182650000Y-83450000D01*
X182650000Y-83350000D01*
G37*
G36*
X182650000Y-83550000D02*
G01*
X182750000Y-83550000D01*
X182750000Y-83650000D01*
X182650000Y-83650000D01*
X182650000Y-83550000D01*
G37*
G36*
X182650000Y-83650000D02*
G01*
X182750000Y-83650000D01*
X182750000Y-83750000D01*
X182650000Y-83750000D01*
X182650000Y-83650000D01*
G37*
G36*
X182650000Y-83750000D02*
G01*
X182750000Y-83750000D01*
X182750000Y-83850000D01*
X182650000Y-83850000D01*
X182650000Y-83750000D01*
G37*
G36*
X182650000Y-83850000D02*
G01*
X182750000Y-83850000D01*
X182750000Y-83950000D01*
X182650000Y-83950000D01*
X182650000Y-83850000D01*
G37*
G36*
X182650000Y-83950000D02*
G01*
X182750000Y-83950000D01*
X182750000Y-84050000D01*
X182650000Y-84050000D01*
X182650000Y-83950000D01*
G37*
G36*
X182650000Y-84050000D02*
G01*
X182750000Y-84050000D01*
X182750000Y-84150000D01*
X182650000Y-84150000D01*
X182650000Y-84050000D01*
G37*
G36*
X182750000Y-81750000D02*
G01*
X182850000Y-81750000D01*
X182850000Y-81850000D01*
X182750000Y-81850000D01*
X182750000Y-81750000D01*
G37*
G36*
X182750000Y-81850000D02*
G01*
X182850000Y-81850000D01*
X182850000Y-81950000D01*
X182750000Y-81950000D01*
X182750000Y-81850000D01*
G37*
G36*
X182750000Y-81950000D02*
G01*
X182850000Y-81950000D01*
X182850000Y-82050000D01*
X182750000Y-82050000D01*
X182750000Y-81950000D01*
G37*
G36*
X182750000Y-82350000D02*
G01*
X182850000Y-82350000D01*
X182850000Y-82450000D01*
X182750000Y-82450000D01*
X182750000Y-82350000D01*
G37*
G36*
X182750000Y-82550000D02*
G01*
X182850000Y-82550000D01*
X182850000Y-82650000D01*
X182750000Y-82650000D01*
X182750000Y-82550000D01*
G37*
G36*
X182750000Y-82650000D02*
G01*
X182850000Y-82650000D01*
X182850000Y-82750000D01*
X182750000Y-82750000D01*
X182750000Y-82650000D01*
G37*
G36*
X182750000Y-82750000D02*
G01*
X182850000Y-82750000D01*
X182850000Y-82850000D01*
X182750000Y-82850000D01*
X182750000Y-82750000D01*
G37*
G36*
X182750000Y-83150000D02*
G01*
X182850000Y-83150000D01*
X182850000Y-83250000D01*
X182750000Y-83250000D01*
X182750000Y-83150000D01*
G37*
G36*
X182750000Y-83550000D02*
G01*
X182850000Y-83550000D01*
X182850000Y-83650000D01*
X182750000Y-83650000D01*
X182750000Y-83550000D01*
G37*
G36*
X182750000Y-83650000D02*
G01*
X182850000Y-83650000D01*
X182850000Y-83750000D01*
X182750000Y-83750000D01*
X182750000Y-83650000D01*
G37*
G36*
X182750000Y-83850000D02*
G01*
X182850000Y-83850000D01*
X182850000Y-83950000D01*
X182750000Y-83950000D01*
X182750000Y-83850000D01*
G37*
G36*
X182750000Y-84050000D02*
G01*
X182850000Y-84050000D01*
X182850000Y-84150000D01*
X182750000Y-84150000D01*
X182750000Y-84050000D01*
G37*
G36*
X182750000Y-84150000D02*
G01*
X182850000Y-84150000D01*
X182850000Y-84250000D01*
X182750000Y-84250000D01*
X182750000Y-84150000D01*
G37*
G36*
X182850000Y-81450000D02*
G01*
X182950000Y-81450000D01*
X182950000Y-81550000D01*
X182850000Y-81550000D01*
X182850000Y-81450000D01*
G37*
G36*
X182850000Y-81650000D02*
G01*
X182950000Y-81650000D01*
X182950000Y-81750000D01*
X182850000Y-81750000D01*
X182850000Y-81650000D01*
G37*
G36*
X182850000Y-81750000D02*
G01*
X182950000Y-81750000D01*
X182950000Y-81850000D01*
X182850000Y-81850000D01*
X182850000Y-81750000D01*
G37*
G36*
X182850000Y-81850000D02*
G01*
X182950000Y-81850000D01*
X182950000Y-81950000D01*
X182850000Y-81950000D01*
X182850000Y-81850000D01*
G37*
G36*
X182850000Y-82050000D02*
G01*
X182950000Y-82050000D01*
X182950000Y-82150000D01*
X182850000Y-82150000D01*
X182850000Y-82050000D01*
G37*
G36*
X182850000Y-82250000D02*
G01*
X182950000Y-82250000D01*
X182950000Y-82350000D01*
X182850000Y-82350000D01*
X182850000Y-82250000D01*
G37*
G36*
X182850000Y-82350000D02*
G01*
X182950000Y-82350000D01*
X182950000Y-82450000D01*
X182850000Y-82450000D01*
X182850000Y-82350000D01*
G37*
G36*
X182850000Y-82650000D02*
G01*
X182950000Y-82650000D01*
X182950000Y-82750000D01*
X182850000Y-82750000D01*
X182850000Y-82650000D01*
G37*
G36*
X182850000Y-82750000D02*
G01*
X182950000Y-82750000D01*
X182950000Y-82850000D01*
X182850000Y-82850000D01*
X182850000Y-82750000D01*
G37*
G36*
X182850000Y-82850000D02*
G01*
X182950000Y-82850000D01*
X182950000Y-82950000D01*
X182850000Y-82950000D01*
X182850000Y-82850000D01*
G37*
G36*
X182850000Y-82950000D02*
G01*
X182950000Y-82950000D01*
X182950000Y-83050000D01*
X182850000Y-83050000D01*
X182850000Y-82950000D01*
G37*
G36*
X182850000Y-83050000D02*
G01*
X182950000Y-83050000D01*
X182950000Y-83150000D01*
X182850000Y-83150000D01*
X182850000Y-83050000D01*
G37*
G36*
X182850000Y-83250000D02*
G01*
X182950000Y-83250000D01*
X182950000Y-83350000D01*
X182850000Y-83350000D01*
X182850000Y-83250000D01*
G37*
G36*
X182850000Y-83350000D02*
G01*
X182950000Y-83350000D01*
X182950000Y-83450000D01*
X182850000Y-83450000D01*
X182850000Y-83350000D01*
G37*
G36*
X182850000Y-83750000D02*
G01*
X182950000Y-83750000D01*
X182950000Y-83850000D01*
X182850000Y-83850000D01*
X182850000Y-83750000D01*
G37*
G36*
X182850000Y-83850000D02*
G01*
X182950000Y-83850000D01*
X182950000Y-83950000D01*
X182850000Y-83950000D01*
X182850000Y-83850000D01*
G37*
G36*
X182850000Y-84050000D02*
G01*
X182950000Y-84050000D01*
X182950000Y-84150000D01*
X182850000Y-84150000D01*
X182850000Y-84050000D01*
G37*
G36*
X182950000Y-81450000D02*
G01*
X183050000Y-81450000D01*
X183050000Y-81550000D01*
X182950000Y-81550000D01*
X182950000Y-81450000D01*
G37*
G36*
X182950000Y-81550000D02*
G01*
X183050000Y-81550000D01*
X183050000Y-81650000D01*
X182950000Y-81650000D01*
X182950000Y-81550000D01*
G37*
G36*
X182950000Y-81650000D02*
G01*
X183050000Y-81650000D01*
X183050000Y-81750000D01*
X182950000Y-81750000D01*
X182950000Y-81650000D01*
G37*
G36*
X182950000Y-81750000D02*
G01*
X183050000Y-81750000D01*
X183050000Y-81850000D01*
X182950000Y-81850000D01*
X182950000Y-81750000D01*
G37*
G36*
X182950000Y-81950000D02*
G01*
X183050000Y-81950000D01*
X183050000Y-82050000D01*
X182950000Y-82050000D01*
X182950000Y-81950000D01*
G37*
G36*
X182950000Y-82050000D02*
G01*
X183050000Y-82050000D01*
X183050000Y-82150000D01*
X182950000Y-82150000D01*
X182950000Y-82050000D01*
G37*
G36*
X182950000Y-82250000D02*
G01*
X183050000Y-82250000D01*
X183050000Y-82350000D01*
X182950000Y-82350000D01*
X182950000Y-82250000D01*
G37*
G36*
X182950000Y-82450000D02*
G01*
X183050000Y-82450000D01*
X183050000Y-82550000D01*
X182950000Y-82550000D01*
X182950000Y-82450000D01*
G37*
G36*
X182950000Y-82750000D02*
G01*
X183050000Y-82750000D01*
X183050000Y-82850000D01*
X182950000Y-82850000D01*
X182950000Y-82750000D01*
G37*
G36*
X182950000Y-83150000D02*
G01*
X183050000Y-83150000D01*
X183050000Y-83250000D01*
X182950000Y-83250000D01*
X182950000Y-83150000D01*
G37*
G36*
X182950000Y-83350000D02*
G01*
X183050000Y-83350000D01*
X183050000Y-83450000D01*
X182950000Y-83450000D01*
X182950000Y-83350000D01*
G37*
G36*
X182950000Y-83450000D02*
G01*
X183050000Y-83450000D01*
X183050000Y-83550000D01*
X182950000Y-83550000D01*
X182950000Y-83450000D01*
G37*
G36*
X182950000Y-83550000D02*
G01*
X183050000Y-83550000D01*
X183050000Y-83650000D01*
X182950000Y-83650000D01*
X182950000Y-83550000D01*
G37*
G36*
X182950000Y-83650000D02*
G01*
X183050000Y-83650000D01*
X183050000Y-83750000D01*
X182950000Y-83750000D01*
X182950000Y-83650000D01*
G37*
G36*
X183050000Y-81650000D02*
G01*
X183150000Y-81650000D01*
X183150000Y-81750000D01*
X183050000Y-81750000D01*
X183050000Y-81650000D01*
G37*
G36*
X183050000Y-82050000D02*
G01*
X183150000Y-82050000D01*
X183150000Y-82150000D01*
X183050000Y-82150000D01*
X183050000Y-82050000D01*
G37*
G36*
X183050000Y-82250000D02*
G01*
X183150000Y-82250000D01*
X183150000Y-82350000D01*
X183050000Y-82350000D01*
X183050000Y-82250000D01*
G37*
G36*
X183050000Y-82350000D02*
G01*
X183150000Y-82350000D01*
X183150000Y-82450000D01*
X183050000Y-82450000D01*
X183050000Y-82350000D01*
G37*
G36*
X183050000Y-82450000D02*
G01*
X183150000Y-82450000D01*
X183150000Y-82550000D01*
X183050000Y-82550000D01*
X183050000Y-82450000D01*
G37*
G36*
X183050000Y-82650000D02*
G01*
X183150000Y-82650000D01*
X183150000Y-82750000D01*
X183050000Y-82750000D01*
X183050000Y-82650000D01*
G37*
G36*
X183050000Y-82750000D02*
G01*
X183150000Y-82750000D01*
X183150000Y-82850000D01*
X183050000Y-82850000D01*
X183050000Y-82750000D01*
G37*
G36*
X183050000Y-82950000D02*
G01*
X183150000Y-82950000D01*
X183150000Y-83050000D01*
X183050000Y-83050000D01*
X183050000Y-82950000D01*
G37*
G36*
X183050000Y-83050000D02*
G01*
X183150000Y-83050000D01*
X183150000Y-83150000D01*
X183050000Y-83150000D01*
X183050000Y-83050000D01*
G37*
G36*
X183050000Y-83850000D02*
G01*
X183150000Y-83850000D01*
X183150000Y-83950000D01*
X183050000Y-83950000D01*
X183050000Y-83850000D01*
G37*
G36*
X183050000Y-84050000D02*
G01*
X183150000Y-84050000D01*
X183150000Y-84150000D01*
X183050000Y-84150000D01*
X183050000Y-84050000D01*
G37*
G36*
X183050000Y-84150000D02*
G01*
X183150000Y-84150000D01*
X183150000Y-84250000D01*
X183050000Y-84250000D01*
X183050000Y-84150000D01*
G37*
G36*
X183150000Y-81350000D02*
G01*
X183250000Y-81350000D01*
X183250000Y-81450000D01*
X183150000Y-81450000D01*
X183150000Y-81350000D01*
G37*
G36*
X183150000Y-81550000D02*
G01*
X183250000Y-81550000D01*
X183250000Y-81650000D01*
X183150000Y-81650000D01*
X183150000Y-81550000D01*
G37*
G36*
X183150000Y-81950000D02*
G01*
X183250000Y-81950000D01*
X183250000Y-82050000D01*
X183150000Y-82050000D01*
X183150000Y-81950000D01*
G37*
G36*
X183150000Y-82150000D02*
G01*
X183250000Y-82150000D01*
X183250000Y-82250000D01*
X183150000Y-82250000D01*
X183150000Y-82150000D01*
G37*
G36*
X183150000Y-82350000D02*
G01*
X183250000Y-82350000D01*
X183250000Y-82450000D01*
X183150000Y-82450000D01*
X183150000Y-82350000D01*
G37*
G36*
X183150000Y-82550000D02*
G01*
X183250000Y-82550000D01*
X183250000Y-82650000D01*
X183150000Y-82650000D01*
X183150000Y-82550000D01*
G37*
G36*
X183150000Y-82650000D02*
G01*
X183250000Y-82650000D01*
X183250000Y-82750000D01*
X183150000Y-82750000D01*
X183150000Y-82650000D01*
G37*
G36*
X183150000Y-82750000D02*
G01*
X183250000Y-82750000D01*
X183250000Y-82850000D01*
X183150000Y-82850000D01*
X183150000Y-82750000D01*
G37*
G36*
X183150000Y-83050000D02*
G01*
X183250000Y-83050000D01*
X183250000Y-83150000D01*
X183150000Y-83150000D01*
X183150000Y-83050000D01*
G37*
G36*
X183150000Y-83150000D02*
G01*
X183250000Y-83150000D01*
X183250000Y-83250000D01*
X183150000Y-83250000D01*
X183150000Y-83150000D01*
G37*
G36*
X183150000Y-83250000D02*
G01*
X183250000Y-83250000D01*
X183250000Y-83350000D01*
X183150000Y-83350000D01*
X183150000Y-83250000D01*
G37*
G36*
X183150000Y-83450000D02*
G01*
X183250000Y-83450000D01*
X183250000Y-83550000D01*
X183150000Y-83550000D01*
X183150000Y-83450000D01*
G37*
G36*
X183150000Y-83650000D02*
G01*
X183250000Y-83650000D01*
X183250000Y-83750000D01*
X183150000Y-83750000D01*
X183150000Y-83650000D01*
G37*
G36*
X183150000Y-83950000D02*
G01*
X183250000Y-83950000D01*
X183250000Y-84050000D01*
X183150000Y-84050000D01*
X183150000Y-83950000D01*
G37*
G36*
X183250000Y-81550000D02*
G01*
X183350000Y-81550000D01*
X183350000Y-81650000D01*
X183250000Y-81650000D01*
X183250000Y-81550000D01*
G37*
G36*
X183250000Y-81850000D02*
G01*
X183350000Y-81850000D01*
X183350000Y-81950000D01*
X183250000Y-81950000D01*
X183250000Y-81850000D01*
G37*
G36*
X183250000Y-82050000D02*
G01*
X183350000Y-82050000D01*
X183350000Y-82150000D01*
X183250000Y-82150000D01*
X183250000Y-82050000D01*
G37*
G36*
X183250000Y-82250000D02*
G01*
X183350000Y-82250000D01*
X183350000Y-82350000D01*
X183250000Y-82350000D01*
X183250000Y-82250000D01*
G37*
G36*
X183250000Y-82350000D02*
G01*
X183350000Y-82350000D01*
X183350000Y-82450000D01*
X183250000Y-82450000D01*
X183250000Y-82350000D01*
G37*
G36*
X183250000Y-82550000D02*
G01*
X183350000Y-82550000D01*
X183350000Y-82650000D01*
X183250000Y-82650000D01*
X183250000Y-82550000D01*
G37*
G36*
X183250000Y-82650000D02*
G01*
X183350000Y-82650000D01*
X183350000Y-82750000D01*
X183250000Y-82750000D01*
X183250000Y-82650000D01*
G37*
G36*
X183250000Y-82850000D02*
G01*
X183350000Y-82850000D01*
X183350000Y-82950000D01*
X183250000Y-82950000D01*
X183250000Y-82850000D01*
G37*
G36*
X183250000Y-83050000D02*
G01*
X183350000Y-83050000D01*
X183350000Y-83150000D01*
X183250000Y-83150000D01*
X183250000Y-83050000D01*
G37*
G36*
X183250000Y-83150000D02*
G01*
X183350000Y-83150000D01*
X183350000Y-83250000D01*
X183250000Y-83250000D01*
X183250000Y-83150000D01*
G37*
G36*
X183250000Y-83350000D02*
G01*
X183350000Y-83350000D01*
X183350000Y-83450000D01*
X183250000Y-83450000D01*
X183250000Y-83350000D01*
G37*
G36*
X183250000Y-83450000D02*
G01*
X183350000Y-83450000D01*
X183350000Y-83550000D01*
X183250000Y-83550000D01*
X183250000Y-83450000D01*
G37*
G36*
X183250000Y-83650000D02*
G01*
X183350000Y-83650000D01*
X183350000Y-83750000D01*
X183250000Y-83750000D01*
X183250000Y-83650000D01*
G37*
G36*
X183250000Y-84050000D02*
G01*
X183350000Y-84050000D01*
X183350000Y-84150000D01*
X183250000Y-84150000D01*
X183250000Y-84050000D01*
G37*
G36*
X183250000Y-84150000D02*
G01*
X183350000Y-84150000D01*
X183350000Y-84250000D01*
X183250000Y-84250000D01*
X183250000Y-84150000D01*
G37*
G36*
X183350000Y-81450000D02*
G01*
X183450000Y-81450000D01*
X183450000Y-81550000D01*
X183350000Y-81550000D01*
X183350000Y-81450000D01*
G37*
G36*
X183350000Y-81650000D02*
G01*
X183450000Y-81650000D01*
X183450000Y-81750000D01*
X183350000Y-81750000D01*
X183350000Y-81650000D01*
G37*
G36*
X183350000Y-81850000D02*
G01*
X183450000Y-81850000D01*
X183450000Y-81950000D01*
X183350000Y-81950000D01*
X183350000Y-81850000D01*
G37*
G36*
X183350000Y-81950000D02*
G01*
X183450000Y-81950000D01*
X183450000Y-82050000D01*
X183350000Y-82050000D01*
X183350000Y-81950000D01*
G37*
G36*
X183350000Y-82050000D02*
G01*
X183450000Y-82050000D01*
X183450000Y-82150000D01*
X183350000Y-82150000D01*
X183350000Y-82050000D01*
G37*
G36*
X183350000Y-82150000D02*
G01*
X183450000Y-82150000D01*
X183450000Y-82250000D01*
X183350000Y-82250000D01*
X183350000Y-82150000D01*
G37*
G36*
X183350000Y-82250000D02*
G01*
X183450000Y-82250000D01*
X183450000Y-82350000D01*
X183350000Y-82350000D01*
X183350000Y-82250000D01*
G37*
G36*
X183350000Y-82450000D02*
G01*
X183450000Y-82450000D01*
X183450000Y-82550000D01*
X183350000Y-82550000D01*
X183350000Y-82450000D01*
G37*
G36*
X183350000Y-82650000D02*
G01*
X183450000Y-82650000D01*
X183450000Y-82750000D01*
X183350000Y-82750000D01*
X183350000Y-82650000D01*
G37*
G36*
X183350000Y-83050000D02*
G01*
X183450000Y-83050000D01*
X183450000Y-83150000D01*
X183350000Y-83150000D01*
X183350000Y-83050000D01*
G37*
G36*
X183350000Y-83150000D02*
G01*
X183450000Y-83150000D01*
X183450000Y-83250000D01*
X183350000Y-83250000D01*
X183350000Y-83150000D01*
G37*
G36*
X183350000Y-83350000D02*
G01*
X183450000Y-83350000D01*
X183450000Y-83450000D01*
X183350000Y-83450000D01*
X183350000Y-83350000D01*
G37*
G36*
X183350000Y-83550000D02*
G01*
X183450000Y-83550000D01*
X183450000Y-83650000D01*
X183350000Y-83650000D01*
X183350000Y-83550000D01*
G37*
G36*
X183350000Y-83650000D02*
G01*
X183450000Y-83650000D01*
X183450000Y-83750000D01*
X183350000Y-83750000D01*
X183350000Y-83650000D01*
G37*
G36*
X183350000Y-83850000D02*
G01*
X183450000Y-83850000D01*
X183450000Y-83950000D01*
X183350000Y-83950000D01*
X183350000Y-83850000D01*
G37*
G36*
X183350000Y-83950000D02*
G01*
X183450000Y-83950000D01*
X183450000Y-84050000D01*
X183350000Y-84050000D01*
X183350000Y-83950000D01*
G37*
G36*
X183350000Y-84150000D02*
G01*
X183450000Y-84150000D01*
X183450000Y-84250000D01*
X183350000Y-84250000D01*
X183350000Y-84150000D01*
G37*
G36*
X183450000Y-81350000D02*
G01*
X183550000Y-81350000D01*
X183550000Y-81450000D01*
X183450000Y-81450000D01*
X183450000Y-81350000D01*
G37*
G36*
X183450000Y-81550000D02*
G01*
X183550000Y-81550000D01*
X183550000Y-81650000D01*
X183450000Y-81650000D01*
X183450000Y-81550000D01*
G37*
G36*
X183450000Y-82050000D02*
G01*
X183550000Y-82050000D01*
X183550000Y-82150000D01*
X183450000Y-82150000D01*
X183450000Y-82050000D01*
G37*
G36*
X183450000Y-82250000D02*
G01*
X183550000Y-82250000D01*
X183550000Y-82350000D01*
X183450000Y-82350000D01*
X183450000Y-82250000D01*
G37*
G36*
X183450000Y-82550000D02*
G01*
X183550000Y-82550000D01*
X183550000Y-82650000D01*
X183450000Y-82650000D01*
X183450000Y-82550000D01*
G37*
G36*
X183450000Y-82850000D02*
G01*
X183550000Y-82850000D01*
X183550000Y-82950000D01*
X183450000Y-82950000D01*
X183450000Y-82850000D01*
G37*
G36*
X183450000Y-83250000D02*
G01*
X183550000Y-83250000D01*
X183550000Y-83350000D01*
X183450000Y-83350000D01*
X183450000Y-83250000D01*
G37*
G36*
X183450000Y-83350000D02*
G01*
X183550000Y-83350000D01*
X183550000Y-83450000D01*
X183450000Y-83450000D01*
X183450000Y-83350000D01*
G37*
G36*
X183450000Y-83450000D02*
G01*
X183550000Y-83450000D01*
X183550000Y-83550000D01*
X183450000Y-83550000D01*
X183450000Y-83450000D01*
G37*
G36*
X183450000Y-83550000D02*
G01*
X183550000Y-83550000D01*
X183550000Y-83650000D01*
X183450000Y-83650000D01*
X183450000Y-83550000D01*
G37*
G36*
X183450000Y-83750000D02*
G01*
X183550000Y-83750000D01*
X183550000Y-83850000D01*
X183450000Y-83850000D01*
X183450000Y-83750000D01*
G37*
G36*
X183450000Y-83850000D02*
G01*
X183550000Y-83850000D01*
X183550000Y-83950000D01*
X183450000Y-83950000D01*
X183450000Y-83850000D01*
G37*
G36*
X183450000Y-83950000D02*
G01*
X183550000Y-83950000D01*
X183550000Y-84050000D01*
X183450000Y-84050000D01*
X183450000Y-83950000D01*
G37*
G36*
X183450000Y-84050000D02*
G01*
X183550000Y-84050000D01*
X183550000Y-84150000D01*
X183450000Y-84150000D01*
X183450000Y-84050000D01*
G37*
G36*
X183450000Y-84150000D02*
G01*
X183550000Y-84150000D01*
X183550000Y-84250000D01*
X183450000Y-84250000D01*
X183450000Y-84150000D01*
G37*
G36*
X183550000Y-81350000D02*
G01*
X183650000Y-81350000D01*
X183650000Y-81450000D01*
X183550000Y-81450000D01*
X183550000Y-81350000D01*
G37*
G36*
X183550000Y-81950000D02*
G01*
X183650000Y-81950000D01*
X183650000Y-82050000D01*
X183550000Y-82050000D01*
X183550000Y-81950000D01*
G37*
G36*
X183550000Y-82150000D02*
G01*
X183650000Y-82150000D01*
X183650000Y-82250000D01*
X183550000Y-82250000D01*
X183550000Y-82150000D01*
G37*
G36*
X183550000Y-82250000D02*
G01*
X183650000Y-82250000D01*
X183650000Y-82350000D01*
X183550000Y-82350000D01*
X183550000Y-82250000D01*
G37*
G36*
X183550000Y-82350000D02*
G01*
X183650000Y-82350000D01*
X183650000Y-82450000D01*
X183550000Y-82450000D01*
X183550000Y-82350000D01*
G37*
G36*
X183550000Y-82550000D02*
G01*
X183650000Y-82550000D01*
X183650000Y-82650000D01*
X183550000Y-82650000D01*
X183550000Y-82550000D01*
G37*
G36*
X183550000Y-82850000D02*
G01*
X183650000Y-82850000D01*
X183650000Y-82950000D01*
X183550000Y-82950000D01*
X183550000Y-82850000D01*
G37*
G36*
X183550000Y-83050000D02*
G01*
X183650000Y-83050000D01*
X183650000Y-83150000D01*
X183550000Y-83150000D01*
X183550000Y-83050000D01*
G37*
G36*
X183550000Y-83150000D02*
G01*
X183650000Y-83150000D01*
X183650000Y-83250000D01*
X183550000Y-83250000D01*
X183550000Y-83150000D01*
G37*
G36*
X183550000Y-83450000D02*
G01*
X183650000Y-83450000D01*
X183650000Y-83550000D01*
X183550000Y-83550000D01*
X183550000Y-83450000D01*
G37*
G36*
X183550000Y-83550000D02*
G01*
X183650000Y-83550000D01*
X183650000Y-83650000D01*
X183550000Y-83650000D01*
X183550000Y-83550000D01*
G37*
G36*
X183550000Y-83650000D02*
G01*
X183650000Y-83650000D01*
X183650000Y-83750000D01*
X183550000Y-83750000D01*
X183550000Y-83650000D01*
G37*
G36*
X183550000Y-83750000D02*
G01*
X183650000Y-83750000D01*
X183650000Y-83850000D01*
X183550000Y-83850000D01*
X183550000Y-83750000D01*
G37*
G36*
X183550000Y-83850000D02*
G01*
X183650000Y-83850000D01*
X183650000Y-83950000D01*
X183550000Y-83950000D01*
X183550000Y-83850000D01*
G37*
G36*
X183550000Y-84150000D02*
G01*
X183650000Y-84150000D01*
X183650000Y-84250000D01*
X183550000Y-84250000D01*
X183550000Y-84150000D01*
G37*
G36*
X183650000Y-81550000D02*
G01*
X183750000Y-81550000D01*
X183750000Y-81650000D01*
X183650000Y-81650000D01*
X183650000Y-81550000D01*
G37*
G36*
X183650000Y-81750000D02*
G01*
X183750000Y-81750000D01*
X183750000Y-81850000D01*
X183650000Y-81850000D01*
X183650000Y-81750000D01*
G37*
G36*
X183650000Y-81850000D02*
G01*
X183750000Y-81850000D01*
X183750000Y-81950000D01*
X183650000Y-81950000D01*
X183650000Y-81850000D01*
G37*
G36*
X183650000Y-82250000D02*
G01*
X183750000Y-82250000D01*
X183750000Y-82350000D01*
X183650000Y-82350000D01*
X183650000Y-82250000D01*
G37*
G36*
X183650000Y-82350000D02*
G01*
X183750000Y-82350000D01*
X183750000Y-82450000D01*
X183650000Y-82450000D01*
X183650000Y-82350000D01*
G37*
G36*
X183650000Y-82450000D02*
G01*
X183750000Y-82450000D01*
X183750000Y-82550000D01*
X183650000Y-82550000D01*
X183650000Y-82450000D01*
G37*
G36*
X183650000Y-83350000D02*
G01*
X183750000Y-83350000D01*
X183750000Y-83450000D01*
X183650000Y-83450000D01*
X183650000Y-83350000D01*
G37*
G36*
X183650000Y-83450000D02*
G01*
X183750000Y-83450000D01*
X183750000Y-83550000D01*
X183650000Y-83550000D01*
X183650000Y-83450000D01*
G37*
G36*
X183650000Y-83850000D02*
G01*
X183750000Y-83850000D01*
X183750000Y-83950000D01*
X183650000Y-83950000D01*
X183650000Y-83850000D01*
G37*
G36*
X183650000Y-83950000D02*
G01*
X183750000Y-83950000D01*
X183750000Y-84050000D01*
X183650000Y-84050000D01*
X183650000Y-83950000D01*
G37*
G36*
X183650000Y-84050000D02*
G01*
X183750000Y-84050000D01*
X183750000Y-84150000D01*
X183650000Y-84150000D01*
X183650000Y-84050000D01*
G37*
G36*
X183750000Y-81450000D02*
G01*
X183850000Y-81450000D01*
X183850000Y-81550000D01*
X183750000Y-81550000D01*
X183750000Y-81450000D01*
G37*
G36*
X183750000Y-81950000D02*
G01*
X183850000Y-81950000D01*
X183850000Y-82050000D01*
X183750000Y-82050000D01*
X183750000Y-81950000D01*
G37*
G36*
X183750000Y-82250000D02*
G01*
X183850000Y-82250000D01*
X183850000Y-82350000D01*
X183750000Y-82350000D01*
X183750000Y-82250000D01*
G37*
G36*
X183750000Y-82450000D02*
G01*
X183850000Y-82450000D01*
X183850000Y-82550000D01*
X183750000Y-82550000D01*
X183750000Y-82450000D01*
G37*
G36*
X183750000Y-82550000D02*
G01*
X183850000Y-82550000D01*
X183850000Y-82650000D01*
X183750000Y-82650000D01*
X183750000Y-82550000D01*
G37*
G36*
X183750000Y-82650000D02*
G01*
X183850000Y-82650000D01*
X183850000Y-82750000D01*
X183750000Y-82750000D01*
X183750000Y-82650000D01*
G37*
G36*
X183750000Y-82750000D02*
G01*
X183850000Y-82750000D01*
X183850000Y-82850000D01*
X183750000Y-82850000D01*
X183750000Y-82750000D01*
G37*
G36*
X183750000Y-82850000D02*
G01*
X183850000Y-82850000D01*
X183850000Y-82950000D01*
X183750000Y-82950000D01*
X183750000Y-82850000D01*
G37*
G36*
X183750000Y-82950000D02*
G01*
X183850000Y-82950000D01*
X183850000Y-83050000D01*
X183750000Y-83050000D01*
X183750000Y-82950000D01*
G37*
G36*
X183750000Y-83050000D02*
G01*
X183850000Y-83050000D01*
X183850000Y-83150000D01*
X183750000Y-83150000D01*
X183750000Y-83050000D01*
G37*
G36*
X183750000Y-83250000D02*
G01*
X183850000Y-83250000D01*
X183850000Y-83350000D01*
X183750000Y-83350000D01*
X183750000Y-83250000D01*
G37*
G36*
X183750000Y-83350000D02*
G01*
X183850000Y-83350000D01*
X183850000Y-83450000D01*
X183750000Y-83450000D01*
X183750000Y-83350000D01*
G37*
G36*
X183750000Y-83450000D02*
G01*
X183850000Y-83450000D01*
X183850000Y-83550000D01*
X183750000Y-83550000D01*
X183750000Y-83450000D01*
G37*
G36*
X183750000Y-83550000D02*
G01*
X183850000Y-83550000D01*
X183850000Y-83650000D01*
X183750000Y-83650000D01*
X183750000Y-83550000D01*
G37*
G36*
X183750000Y-83650000D02*
G01*
X183850000Y-83650000D01*
X183850000Y-83750000D01*
X183750000Y-83750000D01*
X183750000Y-83650000D01*
G37*
G36*
X183750000Y-83750000D02*
G01*
X183850000Y-83750000D01*
X183850000Y-83850000D01*
X183750000Y-83850000D01*
X183750000Y-83750000D01*
G37*
G36*
X183750000Y-83850000D02*
G01*
X183850000Y-83850000D01*
X183850000Y-83950000D01*
X183750000Y-83950000D01*
X183750000Y-83850000D01*
G37*
G36*
X183750000Y-83950000D02*
G01*
X183850000Y-83950000D01*
X183850000Y-84050000D01*
X183750000Y-84050000D01*
X183750000Y-83950000D01*
G37*
G36*
X183750000Y-84050000D02*
G01*
X183850000Y-84050000D01*
X183850000Y-84150000D01*
X183750000Y-84150000D01*
X183750000Y-84050000D01*
G37*
G36*
X183750000Y-84150000D02*
G01*
X183850000Y-84150000D01*
X183850000Y-84250000D01*
X183750000Y-84250000D01*
X183750000Y-84150000D01*
G37*
G36*
X183850000Y-82150000D02*
G01*
X183950000Y-82150000D01*
X183950000Y-82250000D01*
X183850000Y-82250000D01*
X183850000Y-82150000D01*
G37*
G36*
X183850000Y-82350000D02*
G01*
X183950000Y-82350000D01*
X183950000Y-82450000D01*
X183850000Y-82450000D01*
X183850000Y-82350000D01*
G37*
G36*
X183850000Y-82550000D02*
G01*
X183950000Y-82550000D01*
X183950000Y-82650000D01*
X183850000Y-82650000D01*
X183850000Y-82550000D01*
G37*
G36*
X183850000Y-82650000D02*
G01*
X183950000Y-82650000D01*
X183950000Y-82750000D01*
X183850000Y-82750000D01*
X183850000Y-82650000D01*
G37*
G36*
X183850000Y-82850000D02*
G01*
X183950000Y-82850000D01*
X183950000Y-82950000D01*
X183850000Y-82950000D01*
X183850000Y-82850000D01*
G37*
G36*
X183850000Y-83050000D02*
G01*
X183950000Y-83050000D01*
X183950000Y-83150000D01*
X183850000Y-83150000D01*
X183850000Y-83050000D01*
G37*
G36*
X183850000Y-83150000D02*
G01*
X183950000Y-83150000D01*
X183950000Y-83250000D01*
X183850000Y-83250000D01*
X183850000Y-83150000D01*
G37*
G36*
X183850000Y-83250000D02*
G01*
X183950000Y-83250000D01*
X183950000Y-83350000D01*
X183850000Y-83350000D01*
X183850000Y-83250000D01*
G37*
G36*
X183850000Y-83350000D02*
G01*
X183950000Y-83350000D01*
X183950000Y-83450000D01*
X183850000Y-83450000D01*
X183850000Y-83350000D01*
G37*
G36*
X183850000Y-83750000D02*
G01*
X183950000Y-83750000D01*
X183950000Y-83850000D01*
X183850000Y-83850000D01*
X183850000Y-83750000D01*
G37*
G36*
X183850000Y-84050000D02*
G01*
X183950000Y-84050000D01*
X183950000Y-84150000D01*
X183850000Y-84150000D01*
X183850000Y-84050000D01*
G37*
G36*
X183850000Y-84150000D02*
G01*
X183950000Y-84150000D01*
X183950000Y-84250000D01*
X183850000Y-84250000D01*
X183850000Y-84150000D01*
G37*
G36*
X183950000Y-81350000D02*
G01*
X184050000Y-81350000D01*
X184050000Y-81450000D01*
X183950000Y-81450000D01*
X183950000Y-81350000D01*
G37*
G36*
X183950000Y-81450000D02*
G01*
X184050000Y-81450000D01*
X184050000Y-81550000D01*
X183950000Y-81550000D01*
X183950000Y-81450000D01*
G37*
G36*
X183950000Y-81550000D02*
G01*
X184050000Y-81550000D01*
X184050000Y-81650000D01*
X183950000Y-81650000D01*
X183950000Y-81550000D01*
G37*
G36*
X183950000Y-81650000D02*
G01*
X184050000Y-81650000D01*
X184050000Y-81750000D01*
X183950000Y-81750000D01*
X183950000Y-81650000D01*
G37*
G36*
X183950000Y-81750000D02*
G01*
X184050000Y-81750000D01*
X184050000Y-81850000D01*
X183950000Y-81850000D01*
X183950000Y-81750000D01*
G37*
G36*
X183950000Y-81850000D02*
G01*
X184050000Y-81850000D01*
X184050000Y-81950000D01*
X183950000Y-81950000D01*
X183950000Y-81850000D01*
G37*
G36*
X183950000Y-81950000D02*
G01*
X184050000Y-81950000D01*
X184050000Y-82050000D01*
X183950000Y-82050000D01*
X183950000Y-81950000D01*
G37*
G36*
X183950000Y-82250000D02*
G01*
X184050000Y-82250000D01*
X184050000Y-82350000D01*
X183950000Y-82350000D01*
X183950000Y-82250000D01*
G37*
G36*
X183950000Y-82550000D02*
G01*
X184050000Y-82550000D01*
X184050000Y-82650000D01*
X183950000Y-82650000D01*
X183950000Y-82550000D01*
G37*
G36*
X183950000Y-82750000D02*
G01*
X184050000Y-82750000D01*
X184050000Y-82850000D01*
X183950000Y-82850000D01*
X183950000Y-82750000D01*
G37*
G36*
X183950000Y-82850000D02*
G01*
X184050000Y-82850000D01*
X184050000Y-82950000D01*
X183950000Y-82950000D01*
X183950000Y-82850000D01*
G37*
G36*
X183950000Y-83050000D02*
G01*
X184050000Y-83050000D01*
X184050000Y-83150000D01*
X183950000Y-83150000D01*
X183950000Y-83050000D01*
G37*
G36*
X183950000Y-83350000D02*
G01*
X184050000Y-83350000D01*
X184050000Y-83450000D01*
X183950000Y-83450000D01*
X183950000Y-83350000D01*
G37*
G36*
X183950000Y-83550000D02*
G01*
X184050000Y-83550000D01*
X184050000Y-83650000D01*
X183950000Y-83650000D01*
X183950000Y-83550000D01*
G37*
G36*
X183950000Y-83750000D02*
G01*
X184050000Y-83750000D01*
X184050000Y-83850000D01*
X183950000Y-83850000D01*
X183950000Y-83750000D01*
G37*
G36*
X183950000Y-83850000D02*
G01*
X184050000Y-83850000D01*
X184050000Y-83950000D01*
X183950000Y-83950000D01*
X183950000Y-83850000D01*
G37*
G36*
X183950000Y-84150000D02*
G01*
X184050000Y-84150000D01*
X184050000Y-84250000D01*
X183950000Y-84250000D01*
X183950000Y-84150000D01*
G37*
G36*
X184050000Y-81350000D02*
G01*
X184150000Y-81350000D01*
X184150000Y-81450000D01*
X184050000Y-81450000D01*
X184050000Y-81350000D01*
G37*
G36*
X184050000Y-81950000D02*
G01*
X184150000Y-81950000D01*
X184150000Y-82050000D01*
X184050000Y-82050000D01*
X184050000Y-81950000D01*
G37*
G36*
X184050000Y-82150000D02*
G01*
X184150000Y-82150000D01*
X184150000Y-82250000D01*
X184050000Y-82250000D01*
X184050000Y-82150000D01*
G37*
G36*
X184050000Y-82750000D02*
G01*
X184150000Y-82750000D01*
X184150000Y-82850000D01*
X184050000Y-82850000D01*
X184050000Y-82750000D01*
G37*
G36*
X184050000Y-82950000D02*
G01*
X184150000Y-82950000D01*
X184150000Y-83050000D01*
X184050000Y-83050000D01*
X184050000Y-82950000D01*
G37*
G36*
X184050000Y-83050000D02*
G01*
X184150000Y-83050000D01*
X184150000Y-83150000D01*
X184050000Y-83150000D01*
X184050000Y-83050000D01*
G37*
G36*
X184050000Y-83150000D02*
G01*
X184150000Y-83150000D01*
X184150000Y-83250000D01*
X184050000Y-83250000D01*
X184050000Y-83150000D01*
G37*
G36*
X184050000Y-83250000D02*
G01*
X184150000Y-83250000D01*
X184150000Y-83350000D01*
X184050000Y-83350000D01*
X184050000Y-83250000D01*
G37*
G36*
X184050000Y-83350000D02*
G01*
X184150000Y-83350000D01*
X184150000Y-83450000D01*
X184050000Y-83450000D01*
X184050000Y-83350000D01*
G37*
G36*
X184050000Y-83750000D02*
G01*
X184150000Y-83750000D01*
X184150000Y-83850000D01*
X184050000Y-83850000D01*
X184050000Y-83750000D01*
G37*
G36*
X184050000Y-83850000D02*
G01*
X184150000Y-83850000D01*
X184150000Y-83950000D01*
X184050000Y-83950000D01*
X184050000Y-83850000D01*
G37*
G36*
X184050000Y-84150000D02*
G01*
X184150000Y-84150000D01*
X184150000Y-84250000D01*
X184050000Y-84250000D01*
X184050000Y-84150000D01*
G37*
G36*
X184150000Y-81350000D02*
G01*
X184250000Y-81350000D01*
X184250000Y-81450000D01*
X184150000Y-81450000D01*
X184150000Y-81350000D01*
G37*
G36*
X184150000Y-81550000D02*
G01*
X184250000Y-81550000D01*
X184250000Y-81650000D01*
X184150000Y-81650000D01*
X184150000Y-81550000D01*
G37*
G36*
X184150000Y-81650000D02*
G01*
X184250000Y-81650000D01*
X184250000Y-81750000D01*
X184150000Y-81750000D01*
X184150000Y-81650000D01*
G37*
G36*
X184150000Y-81750000D02*
G01*
X184250000Y-81750000D01*
X184250000Y-81850000D01*
X184150000Y-81850000D01*
X184150000Y-81750000D01*
G37*
G36*
X184150000Y-81950000D02*
G01*
X184250000Y-81950000D01*
X184250000Y-82050000D01*
X184150000Y-82050000D01*
X184150000Y-81950000D01*
G37*
G36*
X184150000Y-82350000D02*
G01*
X184250000Y-82350000D01*
X184250000Y-82450000D01*
X184150000Y-82450000D01*
X184150000Y-82350000D01*
G37*
G36*
X184150000Y-82450000D02*
G01*
X184250000Y-82450000D01*
X184250000Y-82550000D01*
X184150000Y-82550000D01*
X184150000Y-82450000D01*
G37*
G36*
X184150000Y-82750000D02*
G01*
X184250000Y-82750000D01*
X184250000Y-82850000D01*
X184150000Y-82850000D01*
X184150000Y-82750000D01*
G37*
G36*
X184150000Y-83150000D02*
G01*
X184250000Y-83150000D01*
X184250000Y-83250000D01*
X184150000Y-83250000D01*
X184150000Y-83150000D01*
G37*
G36*
X184150000Y-83250000D02*
G01*
X184250000Y-83250000D01*
X184250000Y-83350000D01*
X184150000Y-83350000D01*
X184150000Y-83250000D01*
G37*
G36*
X184150000Y-83350000D02*
G01*
X184250000Y-83350000D01*
X184250000Y-83450000D01*
X184150000Y-83450000D01*
X184150000Y-83350000D01*
G37*
G36*
X184150000Y-83450000D02*
G01*
X184250000Y-83450000D01*
X184250000Y-83550000D01*
X184150000Y-83550000D01*
X184150000Y-83450000D01*
G37*
G36*
X184150000Y-83550000D02*
G01*
X184250000Y-83550000D01*
X184250000Y-83650000D01*
X184150000Y-83650000D01*
X184150000Y-83550000D01*
G37*
G36*
X184150000Y-83650000D02*
G01*
X184250000Y-83650000D01*
X184250000Y-83750000D01*
X184150000Y-83750000D01*
X184150000Y-83650000D01*
G37*
G36*
X184150000Y-83750000D02*
G01*
X184250000Y-83750000D01*
X184250000Y-83850000D01*
X184150000Y-83850000D01*
X184150000Y-83750000D01*
G37*
G36*
X184150000Y-83850000D02*
G01*
X184250000Y-83850000D01*
X184250000Y-83950000D01*
X184150000Y-83950000D01*
X184150000Y-83850000D01*
G37*
G36*
X184150000Y-83950000D02*
G01*
X184250000Y-83950000D01*
X184250000Y-84050000D01*
X184150000Y-84050000D01*
X184150000Y-83950000D01*
G37*
G36*
X184150000Y-84050000D02*
G01*
X184250000Y-84050000D01*
X184250000Y-84150000D01*
X184150000Y-84150000D01*
X184150000Y-84050000D01*
G37*
G36*
X184150000Y-84150000D02*
G01*
X184250000Y-84150000D01*
X184250000Y-84250000D01*
X184150000Y-84250000D01*
X184150000Y-84150000D01*
G37*
G36*
X184250000Y-81350000D02*
G01*
X184350000Y-81350000D01*
X184350000Y-81450000D01*
X184250000Y-81450000D01*
X184250000Y-81350000D01*
G37*
G36*
X184250000Y-81550000D02*
G01*
X184350000Y-81550000D01*
X184350000Y-81650000D01*
X184250000Y-81650000D01*
X184250000Y-81550000D01*
G37*
G36*
X184250000Y-81650000D02*
G01*
X184350000Y-81650000D01*
X184350000Y-81750000D01*
X184250000Y-81750000D01*
X184250000Y-81650000D01*
G37*
G36*
X184250000Y-81750000D02*
G01*
X184350000Y-81750000D01*
X184350000Y-81850000D01*
X184250000Y-81850000D01*
X184250000Y-81750000D01*
G37*
G36*
X184250000Y-81950000D02*
G01*
X184350000Y-81950000D01*
X184350000Y-82050000D01*
X184250000Y-82050000D01*
X184250000Y-81950000D01*
G37*
G36*
X184250000Y-82250000D02*
G01*
X184350000Y-82250000D01*
X184350000Y-82350000D01*
X184250000Y-82350000D01*
X184250000Y-82250000D01*
G37*
G36*
X184250000Y-82350000D02*
G01*
X184350000Y-82350000D01*
X184350000Y-82450000D01*
X184250000Y-82450000D01*
X184250000Y-82350000D01*
G37*
G36*
X184250000Y-82550000D02*
G01*
X184350000Y-82550000D01*
X184350000Y-82650000D01*
X184250000Y-82650000D01*
X184250000Y-82550000D01*
G37*
G36*
X184250000Y-82750000D02*
G01*
X184350000Y-82750000D01*
X184350000Y-82850000D01*
X184250000Y-82850000D01*
X184250000Y-82750000D01*
G37*
G36*
X184250000Y-82850000D02*
G01*
X184350000Y-82850000D01*
X184350000Y-82950000D01*
X184250000Y-82950000D01*
X184250000Y-82850000D01*
G37*
G36*
X184250000Y-83050000D02*
G01*
X184350000Y-83050000D01*
X184350000Y-83150000D01*
X184250000Y-83150000D01*
X184250000Y-83050000D01*
G37*
G36*
X184250000Y-83650000D02*
G01*
X184350000Y-83650000D01*
X184350000Y-83750000D01*
X184250000Y-83750000D01*
X184250000Y-83650000D01*
G37*
G36*
X184250000Y-83850000D02*
G01*
X184350000Y-83850000D01*
X184350000Y-83950000D01*
X184250000Y-83950000D01*
X184250000Y-83850000D01*
G37*
G36*
X184250000Y-83950000D02*
G01*
X184350000Y-83950000D01*
X184350000Y-84050000D01*
X184250000Y-84050000D01*
X184250000Y-83950000D01*
G37*
G36*
X184250000Y-84150000D02*
G01*
X184350000Y-84150000D01*
X184350000Y-84250000D01*
X184250000Y-84250000D01*
X184250000Y-84150000D01*
G37*
G36*
X184350000Y-81350000D02*
G01*
X184450000Y-81350000D01*
X184450000Y-81450000D01*
X184350000Y-81450000D01*
X184350000Y-81350000D01*
G37*
G36*
X184350000Y-81550000D02*
G01*
X184450000Y-81550000D01*
X184450000Y-81650000D01*
X184350000Y-81650000D01*
X184350000Y-81550000D01*
G37*
G36*
X184350000Y-81650000D02*
G01*
X184450000Y-81650000D01*
X184450000Y-81750000D01*
X184350000Y-81750000D01*
X184350000Y-81650000D01*
G37*
G36*
X184350000Y-81750000D02*
G01*
X184450000Y-81750000D01*
X184450000Y-81850000D01*
X184350000Y-81850000D01*
X184350000Y-81750000D01*
G37*
G36*
X184350000Y-81950000D02*
G01*
X184450000Y-81950000D01*
X184450000Y-82050000D01*
X184350000Y-82050000D01*
X184350000Y-81950000D01*
G37*
G36*
X184350000Y-82350000D02*
G01*
X184450000Y-82350000D01*
X184450000Y-82450000D01*
X184350000Y-82450000D01*
X184350000Y-82350000D01*
G37*
G36*
X184350000Y-82450000D02*
G01*
X184450000Y-82450000D01*
X184450000Y-82550000D01*
X184350000Y-82550000D01*
X184350000Y-82450000D01*
G37*
G36*
X184350000Y-82750000D02*
G01*
X184450000Y-82750000D01*
X184450000Y-82850000D01*
X184350000Y-82850000D01*
X184350000Y-82750000D01*
G37*
G36*
X184350000Y-83350000D02*
G01*
X184450000Y-83350000D01*
X184450000Y-83450000D01*
X184350000Y-83450000D01*
X184350000Y-83350000D01*
G37*
G36*
X184350000Y-83450000D02*
G01*
X184450000Y-83450000D01*
X184450000Y-83550000D01*
X184350000Y-83550000D01*
X184350000Y-83450000D01*
G37*
G36*
X184350000Y-83650000D02*
G01*
X184450000Y-83650000D01*
X184450000Y-83750000D01*
X184350000Y-83750000D01*
X184350000Y-83650000D01*
G37*
G36*
X184350000Y-83850000D02*
G01*
X184450000Y-83850000D01*
X184450000Y-83950000D01*
X184350000Y-83950000D01*
X184350000Y-83850000D01*
G37*
G36*
X184350000Y-83950000D02*
G01*
X184450000Y-83950000D01*
X184450000Y-84050000D01*
X184350000Y-84050000D01*
X184350000Y-83950000D01*
G37*
G36*
X184450000Y-81350000D02*
G01*
X184550000Y-81350000D01*
X184550000Y-81450000D01*
X184450000Y-81450000D01*
X184450000Y-81350000D01*
G37*
G36*
X184450000Y-81950000D02*
G01*
X184550000Y-81950000D01*
X184550000Y-82050000D01*
X184450000Y-82050000D01*
X184450000Y-81950000D01*
G37*
G36*
X184450000Y-82350000D02*
G01*
X184550000Y-82350000D01*
X184550000Y-82450000D01*
X184450000Y-82450000D01*
X184450000Y-82350000D01*
G37*
G36*
X184450000Y-82450000D02*
G01*
X184550000Y-82450000D01*
X184550000Y-82550000D01*
X184450000Y-82550000D01*
X184450000Y-82450000D01*
G37*
G36*
X184450000Y-82550000D02*
G01*
X184550000Y-82550000D01*
X184550000Y-82650000D01*
X184450000Y-82650000D01*
X184450000Y-82550000D01*
G37*
G36*
X184450000Y-82750000D02*
G01*
X184550000Y-82750000D01*
X184550000Y-82850000D01*
X184450000Y-82850000D01*
X184450000Y-82750000D01*
G37*
G36*
X184450000Y-82850000D02*
G01*
X184550000Y-82850000D01*
X184550000Y-82950000D01*
X184450000Y-82950000D01*
X184450000Y-82850000D01*
G37*
G36*
X184450000Y-82950000D02*
G01*
X184550000Y-82950000D01*
X184550000Y-83050000D01*
X184450000Y-83050000D01*
X184450000Y-82950000D01*
G37*
G36*
X184450000Y-83150000D02*
G01*
X184550000Y-83150000D01*
X184550000Y-83250000D01*
X184450000Y-83250000D01*
X184450000Y-83150000D01*
G37*
G36*
X184450000Y-83250000D02*
G01*
X184550000Y-83250000D01*
X184550000Y-83350000D01*
X184450000Y-83350000D01*
X184450000Y-83250000D01*
G37*
G36*
X184450000Y-83450000D02*
G01*
X184550000Y-83450000D01*
X184550000Y-83550000D01*
X184450000Y-83550000D01*
X184450000Y-83450000D01*
G37*
G36*
X184450000Y-83550000D02*
G01*
X184550000Y-83550000D01*
X184550000Y-83650000D01*
X184450000Y-83650000D01*
X184450000Y-83550000D01*
G37*
G36*
X184450000Y-83750000D02*
G01*
X184550000Y-83750000D01*
X184550000Y-83850000D01*
X184450000Y-83850000D01*
X184450000Y-83750000D01*
G37*
G36*
X184450000Y-84050000D02*
G01*
X184550000Y-84050000D01*
X184550000Y-84150000D01*
X184450000Y-84150000D01*
X184450000Y-84050000D01*
G37*
G36*
X184450000Y-84150000D02*
G01*
X184550000Y-84150000D01*
X184550000Y-84250000D01*
X184450000Y-84250000D01*
X184450000Y-84150000D01*
G37*
G36*
X184550000Y-81350000D02*
G01*
X184650000Y-81350000D01*
X184650000Y-81450000D01*
X184550000Y-81450000D01*
X184550000Y-81350000D01*
G37*
G36*
X184550000Y-81450000D02*
G01*
X184650000Y-81450000D01*
X184650000Y-81550000D01*
X184550000Y-81550000D01*
X184550000Y-81450000D01*
G37*
G36*
X184550000Y-81550000D02*
G01*
X184650000Y-81550000D01*
X184650000Y-81650000D01*
X184550000Y-81650000D01*
X184550000Y-81550000D01*
G37*
G36*
X184550000Y-81650000D02*
G01*
X184650000Y-81650000D01*
X184650000Y-81750000D01*
X184550000Y-81750000D01*
X184550000Y-81650000D01*
G37*
G36*
X184550000Y-81750000D02*
G01*
X184650000Y-81750000D01*
X184650000Y-81850000D01*
X184550000Y-81850000D01*
X184550000Y-81750000D01*
G37*
G36*
X184550000Y-81850000D02*
G01*
X184650000Y-81850000D01*
X184650000Y-81950000D01*
X184550000Y-81950000D01*
X184550000Y-81850000D01*
G37*
G36*
X184550000Y-81950000D02*
G01*
X184650000Y-81950000D01*
X184650000Y-82050000D01*
X184550000Y-82050000D01*
X184550000Y-81950000D01*
G37*
G36*
X184550000Y-82250000D02*
G01*
X184650000Y-82250000D01*
X184650000Y-82350000D01*
X184550000Y-82350000D01*
X184550000Y-82250000D01*
G37*
G36*
X184550000Y-82550000D02*
G01*
X184650000Y-82550000D01*
X184650000Y-82650000D01*
X184550000Y-82650000D01*
X184550000Y-82550000D01*
G37*
G36*
X184550000Y-82750000D02*
G01*
X184650000Y-82750000D01*
X184650000Y-82850000D01*
X184550000Y-82850000D01*
X184550000Y-82750000D01*
G37*
G36*
X184550000Y-83050000D02*
G01*
X184650000Y-83050000D01*
X184650000Y-83150000D01*
X184550000Y-83150000D01*
X184550000Y-83050000D01*
G37*
G36*
X184550000Y-83150000D02*
G01*
X184650000Y-83150000D01*
X184650000Y-83250000D01*
X184550000Y-83250000D01*
X184550000Y-83150000D01*
G37*
G36*
X184550000Y-83250000D02*
G01*
X184650000Y-83250000D01*
X184650000Y-83350000D01*
X184550000Y-83350000D01*
X184550000Y-83250000D01*
G37*
G36*
X184550000Y-83450000D02*
G01*
X184650000Y-83450000D01*
X184650000Y-83550000D01*
X184550000Y-83550000D01*
X184550000Y-83450000D01*
G37*
G36*
X184550000Y-83650000D02*
G01*
X184650000Y-83650000D01*
X184650000Y-83750000D01*
X184550000Y-83750000D01*
X184550000Y-83650000D01*
G37*
G36*
X184550000Y-83850000D02*
G01*
X184650000Y-83850000D01*
X184650000Y-83950000D01*
X184550000Y-83950000D01*
X184550000Y-83850000D01*
G37*
G36*
X184550000Y-83950000D02*
G01*
X184650000Y-83950000D01*
X184650000Y-84050000D01*
X184550000Y-84050000D01*
X184550000Y-83950000D01*
G37*
%TO.C,R1*%
D11*
X185740000Y-86609420D02*
X185740000Y-86890580D01*
X186760000Y-86609420D02*
X186760000Y-86890580D01*
%TO.C,C3*%
X173140580Y-85740000D02*
X172859420Y-85740000D01*
X173140580Y-86760000D02*
X172859420Y-86760000D01*
%TO.C,C2*%
X172859420Y-94990000D02*
X173140580Y-94990000D01*
X172859420Y-96010000D02*
X173140580Y-96010000D01*
%TO.C,J1*%
X186255000Y-93015000D02*
X187000000Y-93015000D01*
X186255000Y-93750000D02*
X186255000Y-93015000D01*
X186255000Y-94485000D02*
X186255000Y-96360000D01*
X186255000Y-94485000D02*
X186314435Y-94485000D01*
X186255000Y-96360000D02*
X186589970Y-96360000D01*
X187410030Y-96360000D02*
X187745000Y-96360000D01*
X187685565Y-94485000D02*
X187745000Y-94485000D01*
X187745000Y-94485000D02*
X187745000Y-96360000D01*
%TO.C,C4*%
X187240000Y-86609420D02*
X187240000Y-86890580D01*
X188260000Y-86609420D02*
X188260000Y-86890580D01*
%TO.C,U4*%
D10*
X174500000Y-90000000D02*
X174500000Y-96500000D01*
X174500000Y-96500000D02*
X185500000Y-96500000D01*
X185500000Y-90000000D02*
X185500000Y-96500000D01*
X174500000Y-90000000D02*
G75*
G02*
X185500000Y-90000000I5500000J0D01*
G01*
%TO.C,C1*%
D11*
X172490000Y-88609420D02*
X172490000Y-88890580D01*
X173510000Y-88609420D02*
X173510000Y-88890580D01*
%TO.C,10k1*%
X173237258Y-97977500D02*
X172762742Y-97977500D01*
X173237258Y-99022500D02*
X172762742Y-99022500D01*
%TO.C,L1*%
X173162779Y-90740000D02*
X172837221Y-90740000D01*
X173162779Y-91760000D02*
X172837221Y-91760000D01*
%TD*%
M02*
